<?xml version="1.0" encoding="UTF-8" standalone="no"?>
<svg
   xmlns:dc="http://purl.org/dc/elements/1.1/"
   xmlns:cc="http://creativecommons.org/ns#"
   xmlns:rdf="http://www.w3.org/1999/02/22-rdf-syntax-ns#"
   xmlns:svg="http://www.w3.org/2000/svg"
   xmlns="http://www.w3.org/2000/svg"
   xmlns:sodipodi="http://sodipodi.sourceforge.net/DTD/sodipodi-0.dtd"
   xmlns:inkscape="http://www.inkscape.org/namespaces/inkscape"
   sodipodi:docname="musica.svg"
   inkscape:version="1.0 (4035a4fb49, 2020-05-01)"
   id="svg8"
   version="1.1"
   viewBox="0 0 210 297"
   height="297mm"
   width="210mm">
  <defs
     id="defs2" />
  <sodipodi:namedview
     inkscape:window-maximized="1"
     inkscape:window-y="-8"
     inkscape:window-x="1912"
     inkscape:window-height="1017"
     inkscape:window-width="1920"
     showborder="false"
     showgrid="false"
     inkscape:document-rotation="0"
     inkscape:current-layer="layer1"
     inkscape:document-units="px"
     inkscape:cy="-124.26116"
     inkscape:cx="-44.49356"
     inkscape:zoom="2.8284271"
     inkscape:pageshadow="2"
     inkscape:pageopacity="0.0"
     borderopacity="1.0"
     bordercolor="#666666"
     pagecolor="#ffffff"
     id="base" />
  <metadata
     id="metadata5">
    <rdf:RDF>
      <cc:Work
         rdf:about="">
        <dc:format>image/svg+xml</dc:format>
        <dc:type
           rdf:resource="http://purl.org/dc/dcmitype/StillImage" />
        <dc:title></dc:title>
      </cc:Work>
    </rdf:RDF>
  </metadata>
  <g
     id="layer1"
     inkscape:groupmode="layer"
     inkscape:label="Layer 1">
    <path
       id="path933"
       d="m 3.9288619,-64.639134 c -0.075275,0.16941 -0.078298,1.41841 0,1.496709 0.022048,0.02204 0.071496,-0.02204 0.093545,0 0.012517,0.01251 0,1.098036 0,1.216077 0,0.112358 0.049181,0.369359 0,0.46772 -0.3069198,0.613842 -0.1870887,1.797849 -0.1870887,2.33861 0,0.221991 -0.02349,0.351105 -0.093544,0.561266 -0.1272479,0.381743 0,1.895806 0,2.61924 0,0.387252 -0.093545,0.676764 -0.093545,1.028988 0,2.057974 0,4.115951 0,6.173925 0,0.660821 -0.126719,2.393 0,2.899876 0.07287,0.291478 0.093545,0.53068 0.093545,0.841899 0,2.463334 0,4.926668 0,7.390003 0,0.613838 -0.129835,2.884545 0,3.274052 0.1433508,0.430051 -0.014854,0.876033 0.093544,1.309618 0.2109483,0.843794 0.093544,1.829771 0.093544,2.712787 0,2.307426 0,4.614854 0,6.922281 0,1.09135 0,2.182701 0,3.274051 0,0.350643 -0.108422,0.89081 0,1.216077 0.1008581,0.302574 0.201177,3.713597 0.093545,3.928862 -0.052596,0.10519 -0.2483959,0.622573 -0.280633,0.65481 -0.022048,0.02205 -0.071496,-0.02205 -0.093545,0 -0.044097,0.0441 0.02789,0.131309 0,0.187089 -0.1946544,0.389309 0.00646,-0.100003 -0.1870887,0.09354 -0.070343,0.07034 -0.1463823,0.801193 -0.1870884,0.841899 -0.022048,0.02205 -0.071496,-0.02205 -0.093545,0 -0.073004,0.073 -0.1361014,0.314761 -0.1870885,0.467722 -0.029582,0.08874 0.066146,0.214487 0,0.280633 -0.022048,0.02205 -0.071496,-0.02205 -0.093545,0 -0.044097,0.0441 0.02789,0.131309 0,0.187088 -0.039442,0.07888 -0.1476468,0.108205 -0.1870887,0.187089 -0.02789,0.05578 0.044097,0.142992 0,0.187089 -0.022048,0.02205 -0.071496,-0.02205 -0.093544,0 -0.044097,0.0441 0.044097,0.142991 0,0.187088 -0.091813,0.09181 -0.3503301,0.291635 -0.4677216,0.467722 -0.054696,0.08204 -0.023821,0.210909 -0.093544,0.280633 -0.1559484,0.155949 -0.2694584,0.175914 -0.3741773,0.280633 -0.1870887,0.187089 0.2104748,-0.11693 -0.093544,0.187089 -0.049302,0.0493 -0.1377865,0.04424 -0.1870887,0.09354 -0.095362,0.09536 0.1030045,0.182359 -0.093544,0.280633 -0.056694,0.02835 -0.2414339,0.05434 -0.280633,0.09354 -0.022049,0.022048 0,0.062363 0,0.093545 -0.0935444,0.062363 -0.17624782,0.1453345 -0.28063304,0.1870884 -0.0579025,0.023162 -0.13130958,-0.027889 -0.18708867,0 -0.0278895,0.013946 0.0220485,0.071496 0,0.093545 -0.0440972,0.044097 -0.13130959,-0.02789 -0.18708865,0 -0.16606081,0.08303 -0.30166087,0.1976025 -0.46772167,0.280633 -0.0981369,0.049068 -0.39661301,0.022437 -0.46772166,0.093544 -0.0220485,0.022048 0.0220485,0.071496 0,0.093545 -0.18337995,0.1833798 -0.48936611,0.1979107 -0.65481031,0.280633 -0.1992364,0.099618 -0.3240791,0.2951149 -0.561266,0.3741771 -0.1842913,0.06143 -0.3736761,0.031014 -0.561266,0.093544 -0.1773792,0.059127 -0.3914625,0.1957311 -0.561266,0.280633 -0.083669,0.041834 -0.1918891,-0.029581 -0.280633,0 -0.4011993,0.1337331 -0.7937455,0.3269446 -1.2160763,0.4677217 -0.3239801,0.1079934 -0.7899823,-0.047507 -1.1225321,0 -0.2252747,0.032182 -0.5723231,0.099073 -0.7483546,0.1870887 -0.2067412,0.1033706 -1.1066822,0 -1.403165,0 -0.4274093,0 -0.8041698,0.00943 -1.2160763,-0.093544 -0.5074989,-0.1268746 -1.0341769,0.044178 -1.496709,-0.1870885 -0.07788,-0.038942 -0.314841,0.059336 -0.374177,0 -0.06298,-0.062975 -0.04934,-0.1182139 -0.187089,-0.1870887 -0.205532,-0.1027657 -0.673287,-0.018476 -0.841899,-0.1870887 -0.02205,-0.022048 0.02205,-0.071496 0,-0.093544 -0.03808,-0.038084 -0.314296,-0.1571483 -0.374177,-0.1870888 -0.104969,-0.052485 -0.265821,-0.039366 -0.374178,-0.093544 -0.148051,-0.074026 -0.311373,-0.3113735 -0.374177,-0.3741771 -0.161536,-0.1615356 -0.598212,-0.2240347 -0.748355,-0.3741775 -0.05615,-0.056152 -0.07654,-0.2069354 -0.187088,-0.280633 -0.05801,-0.038676 -0.137787,-0.044242 -0.187089,-0.093544 -0.05893,-0.058928 -0.323534,-0.3664346 -0.374177,-0.4677216 -0.02789,-0.05578 0.0441,-0.142991 0,-0.187089 -0.02205,-0.02205 -0.0715,0.02205 -0.09354,0 -0.02205,-0.02205 0.02205,-0.07149 0,-0.09354 -0.04677,-0.04677 -0.140316,-0.04677 -0.187088,-0.09354 -0.0441,-0.0441 0.0441,-0.142992 0,-0.187089 -0.13268,-0.13268 -0.349377,-0.255832 -0.467722,-0.374177 -0.04687,-0.04687 -0.03222,-0.312852 -0.09354,-0.374178 -0.0493,-0.0493 -0.137787,-0.04424 -0.187089,-0.09354 -0.06133,-0.06133 -0.04668,-0.327312 -0.09354,-0.374177 -0.05202,-0.05202 -0.215814,-0.150995 -0.280633,-0.280633 -0.02789,-0.05578 0.0441,-0.142992 0,-0.187089 -0.06298,-0.06297 -0.118214,-0.04934 -0.187089,-0.187089 -0.02789,-0.05578 0.0441,-0.142991 0,-0.187088 -0.02205,-0.02205 -0.0796,0.02789 -0.09354,0 -0.05578,-0.111558 0.03944,-0.255852 0,-0.374178 -0.02789,-0.08367 -0.147647,-0.108205 -0.187089,-0.187088 -0.04968,-0.09936 0.02578,-0.390393 0,-0.467722 -0.0099,-0.02958 -0.0715,0.02205 -0.09354,0 -0.01715,-0.01715 0,-1.43511 0,-1.590254 0,-0.05708 -0.03645,-0.337729 0,-0.374177 0.06297,-0.06297 0.118213,-0.04934 0.187088,-0.187089 0.1273,-0.254599 -0.03445,-0.679459 0.09354,-0.935443 0.01394,-0.02789 0.0715,0.02205 0.09354,0 0.04324,-0.04324 -0.02824,-0.224153 0,-0.280633 0.297881,-0.595762 0.573881,-1.147763 0.841899,-1.683798 0.194655,-0.389309 -0.0065,0.100002 0.187089,-0.09354 0.0392,-0.0392 0.0652,-0.22394 0.09354,-0.280633 0.0156,-0.03119 0.308175,-0.40172 0.374177,-0.467722 0.158069,-0.158069 0.457879,-0.242889 0.654811,-0.374177 0.166412,-0.110942 0.18086,-0.274405 0.280633,-0.374178 0.03118,-0.03118 0.249451,-0.06236 0.280633,-0.09354 0.06133,-0.06133 0.140223,-0.233767 0.187088,-0.280633 0.0441,-0.0441 0.13131,0.02789 0.187089,0 0.389309,-0.194655 -0.100002,0.0065 0.09354,-0.187089 0.0441,-0.0441 0.13131,0.02789 0.187089,0 0.128914,-0.06446 0.125842,-0.219386 0.187089,-0.280633 0.0067,-0.0067 0.614803,-0.160417 0.65481,-0.187088 0.02595,-0.0173 -0.02205,-0.0715 0,-0.09354 0.0441,-0.0441 0.13131,0.02789 0.187089,0 0.03944,-0.01972 0.0541,-0.07382 0.09354,-0.09354 0.05578,-0.02789 0.142991,0.0441 0.187089,0 0.02205,-0.02205 -0.02205,-0.0715 0,-0.09354 0.03757,-0.03757 0.227726,0.01763 0.280633,0 0.169309,0.05638 0.173976,-0.151537 0.280633,-0.187089 0.194862,-0.06495 0.473291,-0.0028 0.65481,-0.09354 0.1377491,-0.06887 0.124113,-0.124114 0.1870884,-0.187089 0.044097,-0.0441 0.1313095,0.02789 0.1870884,0 0.6120667,-0.306033 1.2755372,-0.425179 1.9644312,-0.65481 0.1183251,-0.03944 0.2518736,0.02446 0.3741772,0 0.846138,-0.169228 -0.2540876,-0.0088 0.280633,-0.187089 0.4083682,-0.136123 0.8999537,0.04301 1.3096208,-0.09354 0.3866435,-0.128882 0.7801049,-0.202964 1.1225318,-0.374178 0.1282478,-0.06412 0.4653129,0.09595 0.5612662,0 0.022048,-0.02205 -0.022048,-0.07149 0,-0.09354 0.067686,-0.06769 0.5892837,0.0094 0.6548104,0 0.1530379,-0.02186 2.0192368,-0.522528 2.0579752,-0.561266 0.022048,-0.02205 -0.022048,-0.0715 0,-0.09354 0.022048,-0.02205 0.093544,0.03118 0.093544,0 0,-0.03118 -0.1155929,0.02205 -0.093544,0 0.069684,-0.06968 0.3213215,-0.134233 0.3741773,-0.187089 0.14739591,-0.147396 0.19194947,-0.379038 0.28063304,-0.467722 0.0220485,-0.02205 0.0714957,0.02205 0.0935443,0 0.0440972,-0.0441 -0.0278896,-0.131309 0,-0.187088 0.16419726,-0.328395 0.49078602,-0.748355 0.37417731,-0.748355 -0.0311814,0 0,0.124726 0,0.09354 0,-0.574148 0.0935443,-0.873214 0.0935443,-1.403164 0,-0.276468 -0.0663314,-0.670118 0,-0.935445 0.14429,-0.577159 -0.0588131,-1.507357 0.09354434,-1.96443 0.26034834,-0.781045 0.18708866,-1.383099 0.18708866,-2.245064 0,-0.396872 0.02763779,-2.123882 0,-2.15152 -0.0220486,-0.02204 -0.07149572,0.02204 -0.09354433,0 -0.0671739,-0.06717 -0.09354433,-2.034641 -0.09354433,-2.245064 0,-1.714979 0,-3.429958 0,-5.144939 0,-0.531358 -0.11798919,-1.728452 0,-1.964431 C -0.0096629,-43.946511 -0.01104838,-44.703142 0,-44.714191 c 0.02204861,-0.02204 0.07149572,0.02204 0.09354433,0 0.0048519,-0.0048 0,-1.280052 0,-1.309622 0,-0.658299 0.11756447,-2.78231 -0.18708866,-3.086962 -0.02204861,-0.02204 -0.07149573,0.02204 -0.09354434,0 -0.0593363,-0.05934 0.038942,-0.296294 0,-0.374176 -0.0705753,-0.141153 -0.12891669,-0.199663 -0.18708867,-0.374179 -0.0467722,-0.140317 0.0935443,-0.09354 0,-0.280633 -0.0215821,-0.04316 -0.47649677,-0.0088 -0.56126599,-0.09354 -0.0220485,-0.02204 0.0220485,-0.0715 0,-0.09354 -0.0440972,-0.0441 -0.13130957,0.02789 -0.18708867,0 -0.039442,-0.01971 -0.054103,-0.07382 -0.093544,-0.09355 -0.2780659,-0.139034 -0.99829,0 -1.3096207,0 -0.1247258,0 -0.285983,-0.08819 -0.3741773,0 -0.022048,0.02204 0.022048,0.07149 0,0.09355 -0.062363,0.06236 -0.3118144,-0.06236 -0.3741775,0 -0.022048,0.02204 0.022048,0.07149 0,0.09354 -0.066146,0.06615 -0.1969643,-0.04183 -0.2806329,0 -0.027889,0.01394 0.02789,0.0796 0,0.09354 -0.1483265,0.07416 -0.3966615,-0.04115 -0.5612659,0 -0.4136192,0.103404 -0.1493293,0.09355 -0.3741775,0.09355 -0.1046916,0 -0.9447392,0.05142 -1.0289876,0.09354 -0.4253788,0.212688 0.6516495,5.29e-4 -0.4677216,0.18709 -0.1998025,0.0333 -0.4650568,-0.06325 -0.6548104,0 -0.029581,0.0099 0.02789,0.0796 0,0.09354 -0.073793,0.08367 -0.1969643,-0.04183 -0.280633,0 -0.039442,0.01971 -0.05171,0.0796 -0.093544,0.09354 -0.088744,0.02958 -0.1918891,-0.02958 -0.280633,0 -0.6354577,0.211821 -1.2142012,0.186466 -1.7773425,0.37418 -0.4402513,0.146748 -1.0457261,-0.05678 -1.4967101,0.09354 -0.02958,0.0099 0.02205,0.0715 0,0.09354 -0.107926,0.107927 -0.690144,-0.03794 -0.841899,0 -0.216723,0.05418 -0.42482,0.154234 -0.654809,0.18709 -0.374879,0.05355 -0.424149,-0.01453 -0.748355,0.09354 -0.111091,0.03703 -0.392987,-0.07473 -0.467721,0 -0.02205,0.02204 0.02205,0.0715 0,0.09355 -0.07575,0.07575 -0.452417,-0.03628 -0.561266,0 -0.34505,0.115015 -0.76057,0.159978 -1.122532,0.280633 -0.196139,0.06538 -0.453856,-0.05024 -0.654811,0 -0.349521,0.08738 -0.689228,0.102148 -1.028987,0.187087 -0.129859,0.03247 -0.348493,-0.05961 -0.467722,0 -0.453795,0.226899 -1.392576,0.04148 -1.683798,0.18709 -0.397998,0.198998 -1.266481,0.07197 -1.496709,0.187089 -0.319483,0.15974 -0.84241,0.218356 -1.216077,0.280633 -0.05288,0.0088 -0.542351,-0.05623 -0.65481,0 -0.296885,0.148442 -0.769133,0.209952 -1.122532,0.280633 -0.230649,0.04613 -0.526211,-0.07405 -0.748355,0 -0.04183,0.01394 -0.05076,0.08285 -0.09354,0.09354 -0.316866,0.07922 -1.167095,-0.0245 -1.403165,0.09354 -0.446038,0.22302 -0.661435,0.22048 -1.122533,0.374179 -0.184423,0.06147 -0.370298,0.248804 -0.561266,0.280633 -0.187698,0.03128 -0.568642,0.0037 -0.748353,0.09354 -0.07888,0.03944 -0.108206,0.147648 -0.187089,0.187089 -0.09912,0.04956 -0.08797,-0.04956 -0.187091,0 -0.238786,0.119393 -0.29184,0.198295 -0.46772,0.374176 -0.0072,0.0072 -0.518556,0.165733 -0.561264,0.18709 -0.02789,0.01394 0.02204,0.0715 0,0.09354 -0.111819,0.111819 -0.343094,0.218319 -0.467723,0.280633 -0.09519,0.0476 -0.308091,0.401638 -0.37418,0.467723 -0.05565,0.05565 -0.449415,0.337571 -0.467719,0.374176 -0.02789,0.05578 0.01971,0.127926 0,0.18709 -0.06601,0.198032 -0.199557,0.11848 -0.280634,0.280633 -0.06456,0.129116 -0.02947,0.339563 -0.09355,0.467722 -0.01394,0.02789 -0.0715,-0.02204 -0.09354,0 -0.06951,0.06951 0,0.649018 0,0.748353 0,1.496711 0,2.993419 0,4.49013 0,0.486976 0.141734,1.445683 0,1.870884 -0.235612,0.706837 -0.09354,1.675228 -0.09354,2.432154 0,0.646707 -0.132117,2.971249 0,3.367595 0.189603,0.568809 0.09354,1.331862 0.09354,1.964433 0,1.153713 0,2.307426 0,3.46114 0,0.426123 0.134675,1.092686 0,1.496709 -0.118941,0.356821 -0.11184,0.746281 -0.18709,1.122532 -0.07244,0.3622 0.163846,0.981932 0,1.309621 -0.127825,0.255651 -0.194839,1.566995 -0.09354,1.870886 0.03555,0.106657 0.151537,0.173976 0.187089,0.280633 0.037,0.110989 -0.08602,0.568789 0,0.654811 0.02204,0.02205 0.0715,-0.02205 0.09354,0 0.114437,0.114436 -0.05602,0.580311 0,0.748354 0.277556,0.832665 0.09354,2.009817 0.09354,2.899875 0,2.17975 0.148204,4.100176 -0.748353,5.8932926 -0.03742,0.074835 0.03742,0.2057977 0,0.2806329 -0.07142,0.1428451 -0.06193,0.4361109 -0.09355,0.4677217 -0.02204,0.022048 -0.0796,-0.027889 -0.09354,0 -0.05871,0.1174197 -0.03484,0.1632135 -0.09354,0.2806332 -0.06257,0.1251297 0.09375,0.4675217 0,0.5612659 -0.02204,0.022048 -0.07149,-0.022048 -0.09355,0 -0.02072,0.020714 -0.06616,0.7597545 -0.09354,0.8418989 -0.04067,0.1220063 -0.239355,0.2393545 -0.280633,0.2806332 -0.06972,0.069724 -0.02381,0.2109092 -0.09354,0.280633 -0.06133,0.061326 -0.233768,0.1402228 -0.280633,0.1870887 -0.263898,0.263897 -0.594067,0.907496 -0.748356,1.2160763 -0.15549,0.3109786 -0.555305,0.3682151 -0.748355,0.5612659 -0.0493,0.049302 -0.04424,0.1377866 -0.09354,0.1870888 -0.187089,0.1870887 -0.561266,0.1870887 -0.748354,0.3741771 -0.0493,0.049302 -0.03553,0.148413 -0.09354,0.1870888 -0.05189,0.034593 -0.13131,-0.02789 -0.187089,0 -0.02611,0.013054 -0.215292,0.2947349 -0.374177,0.3741774 -0.188997,0.094498 -1.346088,0.2806329 -1.590254,0.2806329 -0.120585,0 -0.753755,-0.088144 -0.841899,0 -0.02204,0.022048 0.02204,0.071496 0,0.093544 -0.02384,0.02384 -0.375457,0.062789 -0.467722,0.093544 -0.278413,0.092805 -0.504852,0.2524255 -0.748354,0.3741773 -0.05578,0.02789 -0.12659,-0.015125 -0.187089,0 -0.281368,0.070342 -0.55612,0.233003 -0.841898,0.280633 -0.555564,0.092594 -1.102284,0.093544 -1.683799,0.093544 -0.605803,0 -1.190612,0.023802 -1.777344,-0.093544 -0.259844,-0.051969 -0.155906,0.077954 -0.46772,0 -0.09091,-0.022728 -0.270885,-0.1526577 -0.374178,-0.1870886 -0.05291,-0.017636 -0.243063,0.037571 -0.280634,0 -0.02204,-0.022049 0.02204,-0.071496 0,-0.093544 -0.05473,-0.054736 -0.495659,-0.1608469 -0.561266,-0.1870886 -0.154352,-0.061742 -0.327477,-0.2338848 -0.467722,-0.280633 -0.05916,-0.019721 -0.131307,0.02789 -0.187087,0 -0.02789,-0.013945 0.02789,-0.0796 0,-0.093544 -0.05578,-0.02789 -0.127926,0.019721 -0.187089,0 -0.09315,-0.031052 -0.187479,-0.156037 -0.280633,-0.1870886 -0.183605,-0.061202 -0.374963,-0.031443 -0.561266,-0.093544 -0.259094,-0.086364 -0.517925,-0.2038233 -0.748356,-0.2806332 -0.08874,-0.029581 -0.214487,0.066146 -0.280633,0 -0.04239,-0.04239 -0.280514,-0.4208902 -0.374176,-0.4677214 -0.383768,-0.1918835 -0.727964,-0.4473311 -1.028988,-0.7483549 -0.02204,-0.022048 0.02204,-0.071496 0,-0.093544 -0.02204,-0.022048 -0.06236,0 -0.09354,0 -0.03118,-0.031181 -0.06908,-0.056853 -0.09354,-0.093544 -0.205994,-0.3089902 -0.500547,-0.6269156 -0.654812,-0.9354433 -0.09577,-0.1915494 -0.0074,-0.4825291 -0.09354,-0.6548104 -0.0464,-0.092803 -0.154792,-0.1837381 -0.187089,-0.280633 -0.04144,-0.1243243 0.05938,-0.3489492 0,-0.4677217 -0.09932,-0.1986319 7.94e-4,-0.4661006 -0.09354,-0.6548104 -0.01394,-0.027889 -0.07149,0.022048 -0.09354,0 -0.02159,-0.021593 -0.09355,-1.7149823 -0.09355,-1.8708867 0,-0.2103845 -0.0016,-1.1210748 0.09355,-1.2160758 0.02204,-0.02205 0.0715,0.02205 0.09354,0 0.04677,-0.04677 -0.04677,-0.233861 0,-0.280633 0.02204,-0.02205 0.0715,0.02205 0.09354,0 0.192937,-0.192938 0.146677,-0.480441 0.280634,-0.748355 0.104494,-0.20899 0.271129,-0.448713 0.374178,-0.65481 0.03118,-0.06236 0.155905,-0.03118 0.187087,-0.09355 0.276606,-0.55321 -0.337143,0.200073 0.09355,-0.374177 0.174802,-0.23307 0.442301,-0.442304 0.561267,-0.561266 0.06968,-0.06968 0.134231,-0.321322 0.187086,-0.374177 0.02204,-0.02205 0.0715,0.02205 0.09355,0 0.0862,-0.0862 0.164229,-0.335376 0.280631,-0.374178 0.259099,-0.08637 0.308664,-0.129071 0.561267,-0.280633 0.387127,-0.232276 0.839329,-0.529228 1.216076,-0.65481 0.06748,-0.02249 0.415165,-0.04099 0.467722,-0.09354 0.02204,-0.02205 -0.02789,-0.0796 0,-0.09355 0.19948,-0.09974 0.545333,-0.01233 0.748356,-0.09354 0.104383,-0.04175 0.180075,-0.13681 0.280633,-0.187089 0.131106,-0.06555 0.397816,-0.03906 0.561265,-0.09354 0.362929,-0.120977 1.36147,-0.01037 1.777342,-0.09354 0.139763,-0.02795 0.260516,-0.158674 0.374176,-0.187089 0.260706,-0.06518 0.512731,-0.108548 0.748354,-0.187089 0.118325,-0.03944 0.253175,0.03025 0.374178,0 0.342363,-0.08559 0.713433,-0.268992 1.028988,-0.374177 0.151622,-0.05054 0.334904,-0.247429 0.467723,-0.280633 0.293613,-0.0734 0.43498,-0.03087 0.748354,-0.09354 0.08568,-0.01714 1.838561,-0.903119 1.870885,-0.935444 0.02204,-0.02205 -0.02204,-0.0715 0,-0.09354 0.227166,-0.227164 0.666644,-0.49139 0.841899,-0.841899 0.130963,-0.261924 0.523848,-0.392886 0.654812,-0.65481 0.09574,-0.191474 0.105163,-0.450002 0.187086,-0.654811 0.04176,-0.104385 0.142804,-0.177297 0.18709,-0.280633 0.151932,-0.354508 0.179152,-0.750429 0.280633,-1.122532 0.04418,-0.162 0.146362,-0.304818 0.187089,-0.467721 0.07808,-0.312335 0,-0.798211 0,-1.122532 0,-0.779537 0,-1.559073 0,-2.338609 0,-2.057976 0,-4.11595 0,-6.173927 0,-6.446218 0.18709,-12.828024 0.18709,-19.27013 0,-0.200316 -0.0469,-0.281152 -0.09355,-0.467723 -0.143944,-0.575783 0,-1.627026 0,-2.245063 0,-0.895247 0.04184,0.209171 -0.09354,-0.467723 -0.138242,-0.691203 0,-1.541843 0,-2.245063 0,-0.380029 -0.135935,-1.505474 0,-1.777344 0.131265,-0.262533 0.36372,-0.529892 0.467723,-0.841899 0.01762,-0.05291 -0.03757,-0.243062 0,-0.280633 0.04928,-0.04928 0.259453,-0.14473 0.280633,-0.187087 0.02789,-0.05578 -0.02789,-0.13131 0,-0.187089 0.01394,-0.02789 0.06565,0.01394 0.09354,0 0.389308,-0.194654 -0.100002,0.0065 0.09354,-0.18709 0.0441,-0.04409 0.142991,0.0441 0.187089,0 0.06241,-0.06241 -0.06241,-0.12468 0,-0.187087 0.06721,-0.06721 0.393309,-0.112675 0.467723,-0.187089 0.02204,-0.02204 -0.02204,-0.0715 0,-0.09354 0.06615,-0.06615 0.189881,0.0227 0.280633,0 0.268642,-0.06716 0.481957,-0.191833 0.748352,-0.280633 0.376651,-0.12555 0.831025,0.0027 1.216078,-0.09355 0.245756,-0.06144 0.48998,-0.144026 0.748353,-0.187087 0.210391,-0.03506 0.445537,0.04186 0.654812,0 0.310661,-0.06213 0.629862,-0.03243 0.935442,-0.09355 0.225354,-0.04507 0.438886,-0.143901 0.654812,-0.187087 0.374023,-0.07481 0.211191,0.03472 0.46772,-0.09355 0.148114,-0.07406 0.576212,0.01434 0.748356,0 0.488865,-0.04074 0.951829,-0.07426 1.403165,-0.187087 0.148925,-0.03723 0.422744,0.06926 0.561266,0 0.22342,-0.111712 0.573324,-0.22692 0.841899,-0.280633 0.122303,-0.02447 0.262619,0.05578 0.374177,0 0.693671,-0.346837 1.136513,-0.284128 1.870887,-0.467722 0.259105,-0.06478 0.486627,-0.228288 0.748354,-0.280633 0.25423,-0.05085 0.598439,-0.01238 0.841899,-0.09354 0.106657,-0.03555 0.172533,-0.156205 0.280633,-0.18709 0.300761,-0.08593 0.712543,-0.0408 1.028988,-0.09355 0.634337,-0.105722 1.163912,-0.365482 1.777342,-0.46772 0.354796,-0.05913 0.489482,-0.02307 0.841899,-0.09355 0.04324,-0.0087 0.06236,-0.06236 0.09354,-0.09354 0.06236,-0.03118 0.118313,-0.08208 0.187088,-0.09354 0.123029,-0.0205 0.251874,0.02447 0.374178,0 0.04324,-0.0087 0.05076,-0.08285 0.09354,-0.09355 0.09075,-0.02267 0.188905,0.01834 0.280633,0 0.333043,-0.06661 0.695945,-0.214024 1.028988,-0.280633 0.307705,-0.06154 0.623568,-0.124711 0.935443,-0.187087 0.259845,-0.05197 0.155907,0.07795 0.467722,0 0.135185,-0.0338 0.332536,-0.153294 0.467721,-0.187089 0.176084,-0.04402 0.385183,0.04402 0.561266,0 0.403032,-0.100759 0.807328,-0.105339 1.216077,-0.18709 0.955193,-0.191037 1.9587402,-0.325982 2.8998745,-0.561266 0.2541532,-0.06354 0.5992979,-0.01267 0.8418991,-0.09354 0.3076916,-0.102563 0.6917679,-0.232458 1.0289876,-0.280633 0.1091044,-0.01558 1.4614845,-0.05832 1.4967093,-0.09354 0.022048,-0.02204 -0.027889,-0.0796 0,-0.09355 0.2124035,-0.106201 0.6125413,0.05734 0.8418991,0 0.2953229,-0.07383 0.6617324,-0.09585 0.9354431,-0.187086 0.041834,-0.01394 0.050764,-0.08285 0.093545,-0.09355 0.1467361,-0.03668 0.3209854,0.03669 0.4677216,0 0.3744255,-0.0936 0.7423916,-0.111058 1.122532,-0.187086 0.2489608,-0.04979 0.80416457,-0.280633 1.02898769,-0.280633 0.72038881,0 1.92584651,-0.3467 2.61924131,0 0.055779,0.02789 0.1429915,-0.0441 0.1870887,0 0.020297,0.02029 0.075306,0.177969 0.093544,0.187086 0.055779,0.02789 0.1313096,-0.02789 0.1870888,0 0.027889,0.01394 -0.022048,0.0715 0,0.09355 0.05715,0.05715 0.4203287,0.0923 0.4677217,0.187086 0.027889,0.05578 -0.02789,0.13131 0,0.18709 0.016121,0.03224 0.3417575,0.15467 0.3741771,0.187089 0.1479066,0.147905 0.1870888,0.374177 0.280633,0.561266 z"
       style="fill:none;stroke:#000000;stroke-width:0.264583px;stroke-linecap:butt;stroke-linejoin:miter;stroke-opacity:1" />
  </g>
</svg>
