<?xml version="1.0" encoding="UTF-8" standalone="no"?>
<svg
   xmlns:dc="http://purl.org/dc/elements/1.1/"
   xmlns:cc="http://creativecommons.org/ns#"
   xmlns:rdf="http://www.w3.org/1999/02/22-rdf-syntax-ns#"
   xmlns:svg="http://www.w3.org/2000/svg"
   xmlns="http://www.w3.org/2000/svg"
   xmlns:sodipodi="http://sodipodi.sourceforge.net/DTD/sodipodi-0.dtd"
   xmlns:inkscape="http://www.inkscape.org/namespaces/inkscape"
   sodipodi:docname="nhonho.svg"
   inkscape:version="1.0 (4035a4fb49, 2020-05-01)"
   id="svg8"
   version="1.1"
   viewBox="0 0 210 297"
   height="297mm"
   width="210mm">
  <defs
     id="defs2" />
  <sodipodi:namedview
     inkscape:window-maximized="1"
     inkscape:window-y="-8"
     inkscape:window-x="1912"
     inkscape:window-height="1017"
     inkscape:window-width="1920"
     showborder="false"
     showgrid="false"
     inkscape:document-rotation="0"
     inkscape:current-layer="layer1"
     inkscape:document-units="px"
     inkscape:cy="-71.395082"
     inkscape:cx="78.560606"
     inkscape:zoom="1.4142136"
     inkscape:pageshadow="2"
     inkscape:pageopacity="0.0"
     borderopacity="1.0"
     bordercolor="#666666"
     pagecolor="#ffffff"
     id="base" />
  <metadata
     id="metadata5">
    <rdf:RDF>
      <cc:Work
         rdf:about="">
        <dc:format>image/svg+xml</dc:format>
        <dc:type
           rdf:resource="http://purl.org/dc/dcmitype/StillImage" />
        <dc:title></dc:title>
      </cc:Work>
    </rdf:RDF>
  </metadata>
  <g
     id="layer1"
     inkscape:groupmode="layer"
     inkscape:label="Layer 1">
    <path
       id="path917"
       d="m 49.765584,39.662798 c -0.372292,-0.376031 0.374169,-1.870898 0,-2.245064 -0.04409,-0.0441 -0.142991,0.0441 -0.187086,0 -0.08649,-0.08648 0.05648,-0.448307 0,-0.561266 -0.09864,-0.197283 -0.275538,-0.176897 -0.37418,-0.374179 -0.05669,-0.113387 -0.108688,-0.482867 -0.187086,-0.561265 -0.0441,-0.0441 -0.142992,0.0441 -0.18709,0 -0.374176,-0.374177 0.374176,-1.870888 0,-2.245064 -0.0441,-0.0441 -0.142991,0.0441 -0.187089,0 -0.02985,-0.02985 -0.187087,-0.559448 -0.187087,-0.561266 0,-0.484738 -0.233778,-0.888423 -0.374179,-1.309621 -0.01259,-0.03776 0.06225,-0.686107 0,-0.748353 -0.0441,-0.0441 -0.159197,0.05578 -0.187087,0 -0.124727,-0.249452 0.124724,-0.685993 0,-0.935445 -0.0928,-0.185605 -0.309581,-0.367475 -0.374179,-0.561266 -0.08752,-0.262573 0.123192,-0.68906 0,-0.935442 -0.429755,-0.859515 -0.349721,-1.634885 -0.748353,-2.432154 -0.210722,-0.421442 0.228894,-3.512879 0,-3.741773 -0.311817,-0.311815 -0.18709,0.685992 -0.18709,-0.374177 0,-0.159979 0.01595,-2.416209 0,-2.432153 -0.18583,-0.185829 -1.320929,0.01131 -1.49671,0.187089 -0.256144,0.256144 -0.678228,0.865317 -0.935443,1.122532 -0.209507,0.209508 -0.904785,0.452392 -1.122532,0.561266 -0.778618,0.389309 0.200004,-0.01292 -0.187089,0.374177 -0.03132,0.03132 -1.290775,1.11625 -1.309619,1.122532 -0.118327,0.03944 -0.255852,-0.03944 -0.374179,0 -0.583962,0.194654 0.06236,0.124726 -0.187087,0.374177 -0.245906,0.245905 -0.805587,0.589882 -1.122534,0.748355 -0.552241,0.276121 -1.383244,0.610349 -1.870885,0.935443 -0.403651,0.269101 -0.712941,0.662382 -1.122532,0.935444 -0.503811,0.335874 -0.782388,0.969477 -1.122531,1.30962 -0.19308,0.19308 -0.543714,0.271857 -0.748356,0.374177 -0.456872,0.228436 -0.600175,0.600175 -0.935445,0.935445 -0.383029,0.383032 -1.102886,0.54162 -1.496708,0.935442 -0.122113,0.122113 -0.289322,0.578644 -0.374176,0.748355 -0.06236,0.124725 -0.311814,0.06236 -0.374179,0.18709 -0.05578,0.111556 0.05578,0.262617 0,0.374176 -0.02789,0.05578 -0.142992,-0.0441 -0.187087,0 -0.543267,0.543264 -0.56278,0.624637 -1.309622,1.122532 -0.867978,-0.160091 -0.215183,0.40227 -0.374176,0.561266 -0.444889,0.444889 -1.337596,0.865209 -1.870887,1.309621 -0.271013,0.225843 -0.454827,0.552667 -0.748356,0.748353 -0.279431,0.186288 -0.650655,0.196186 -0.935443,0.374179 -0.224366,0.140229 -0.320398,0.451782 -0.561266,0.561266 -0.468163,0.212802 -1.008842,0.211556 -1.496709,0.374177 -0.32845,0.109484 -0.606994,0.451783 -0.935444,0.561265 -0.248648,0.08288 -0.697898,-0.118771 -0.935443,0 -0.795634,0.397817 -2.232049,0.18709 -3.180507,0.18709 -0.971708,0 -1.863734,-0.02999 -2.80633,-0.18709 -0.378541,-0.06309 -0.940646,0.122992 -1.309621,0 -0.312823,-0.104275 -0.633313,-0.223112 -0.935443,-0.374176 -0.336679,-0.168341 -0.940536,0.09227 -1.309621,0 -0.135284,-0.03382 -0.238893,-0.153268 -0.374177,-0.187089 -0.242004,-0.0605 -0.511705,0.07888 -0.748355,0 -0.346533,-0.115512 -0.775999,-0.258665 -1.122532,-0.374177 -0.236651,-0.07888 -0.506351,0.0605 -0.7483548,0 C 9.7804151,35.513025 9.6662477,35.42212 9.5415221,35.359758 9.2920705,35.297395 9.0467975,35.214941 8.7931674,35.172668 8.1056783,35.058088 7.6956678,35.206548 6.9222807,34.985581 6.8374796,34.961345 6.8207532,34.819883 6.735192,34.798492 c -0.3025045,-0.07563 -0.6396302,0.0986 -0.9354434,0 C 5.4712988,34.68901 5.192755,34.34671 4.8643053,34.237226 c -0.1183251,-0.03944 -0.2558521,0.03944 -0.3741772,0 C 4.2685123,34.163354 4.1392363,33.781148 3.9288619,33.67596 3.708696,33.565877 2.9424775,33.392549 2.8063301,33.301783 2.6903026,33.22443 2.7178457,33.026209 2.6192413,32.927604 2.4797937,32.788158 2.197423,32.879964 2.0579753,32.740518 c -0.044097,-0.0441 0.055779,-0.1592 0,-0.18709 -0.1115581,-0.05578 -0.2859828,0.08819 -0.3741773,0 -0.088194,-0.08819 0.088195,-0.285983 0,-0.374176 C 1.4463272,31.94178 1.0170222,32.006574 0.74835466,31.805073 0.60545503,31.697898 0.21237111,31.127509 0,31.05672 c -0.11832526,-0.03944 -0.27039922,0.06918 -0.37417734,0 -0.11602747,-0.07735 -0.10973702,-0.258151 -0.18708865,-0.374179 -0.28654083,-0.429811 -0.1068647,0.08022 -0.56126601,-0.374177 -0.468012,-0.468013 -1.0469617,-1.645401 -1.4967093,-2.245063 -0.4902708,-0.653696 0.034195,-0.0845 -0.1870888,-0.748356 -0.098604,-0.295812 -0.4218183,-0.469458 -0.5612659,-0.748355 -0.1368039,-0.273607 -0.056209,-0.673682 -0.1870887,-0.935443 -0.1230474,-0.246094 -0.2898399,-0.495342 -0.3741772,-0.748354 -0.1991963,-0.597589 -0.4824608,-3.662968 -0.5612662,-3.741774 -0.044097,-0.0441 -0.1429914,0.0441 -0.1870887,0 -0.088194,-0.08819 0.055779,-0.262619 0,-0.374177 -0.039442,-0.07888 -0.1476468,-0.108205 -0.1870885,-0.187089 -0.055779,-0.111558 0.039442,-0.255852 0,-0.374177 -0.2119206,-0.635762 -0.4689464,-1.124981 -0.7483546,-1.683798 -0.055779,-0.111558 0.088194,-0.285983 0,-0.374177 -0.3007064,-0.300707 -0.6130695,0.42598 -0.7483549,0.561266 -0.2250141,0.225014 -0.6326243,0.784034 -0.9354431,0.935443 -0.055779,0.02789 -0.1591992,-0.05578 -0.1870887,0 -0.055779,0.111558 0.055779,0.262619 0,0.374177 -0.02789,0.05578 -0.1429914,-0.0441 -0.1870887,0 -0.2451735,0.245174 -0.6215838,1.116397 -0.7483547,1.49671 -0.039442,0.118325 0.055779,0.262619 0,0.374177 -0.078884,0.157767 -0.2952937,0.21641 -0.3741774,0.374177 -0.09978,0.199562 0.099781,0.548794 0,0.748355 -0.1590522,0.318105 -0.7136479,2.210357 -0.7483547,2.245064 -0.044097,0.0441 -0.1429914,-0.0441 -0.1870887,0 -0.086484,0.08648 0.05648,0.448307 0,0.561266 -0.131944,0.263888 -0.3492472,0.910514 -0.5612662,1.122533 -0.0441,0.0441 -0.142991,-0.0441 -0.187088,0 -0.06935,0.06935 -0.129297,0.63277 -0.187089,0.748353 -0.282222,0.564446 -0.09196,-0.190267 -0.374177,0.374179 -0.05578,0.111556 0.08819,0.285983 0,0.374176 -0.0441,0.0441 -0.142992,-0.0441 -0.187089,0 -0.121834,0.121835 -0.134003,0.589098 -0.187089,0.748356 -0.194654,0.583961 -0.124725,-0.06236 -0.374177,0.187086 -0.216762,0.216763 -0.30272,0.863987 -0.561266,1.122535 -0.387093,0.387091 0.01513,-0.591532 -0.374177,0.187087 -0.08498,0.169965 -0.344133,2.02793 -0.374178,2.057977 -0.0441,0.04409 -0.159199,-0.05578 -0.187088,0 -0.05578,0.111556 0.05578,0.262617 0,0.374176 -0.02789,0.05578 -0.159199,-0.05578 -0.187089,0 -0.05578,0.111559 0.03944,0.255852 0,0.374176 -0.05699,0.170966 -0.44545,1.006719 -0.561266,1.122532 -0.0441,0.0441 -0.142992,-0.04409 -0.187089,0 -0.06874,0.06874 -0.09025,0.603099 -0.187088,0.748356 -0.301795,0.452691 0.01647,0.528322 -0.187089,0.935445 -0.305356,0.610711 -0.100461,-0.907778 -0.374177,0.187086 -0.05263,0.210511 -0.140478,1.26301 -0.187089,1.309622 -0.0441,0.0441 -0.142991,-0.0441 -0.187089,0 -0.124726,0.124724 0.124726,0.623628 0,0.748355 -0.249451,0.249452 -0.187088,-0.311814 -0.187088,0.187087 0,0.125749 0.05521,0.450855 0,0.561266 -0.02435,0.04871 -0.333341,0.227925 -0.187089,0.374179 0.159895,0.159896 1.448651,0 1.683798,0 1.464397,0 3.932483,0 6.3610147,0 3.1181444,0 6.2362889,0 9.3544333,0 0.8800691,0 3.5968826,0.235384 4.3030393,0 1.7120579,-0.570688 4.1639267,-0.18709 5.9868377,-0.18709 0.970602,0 7.458601,-0.199561 7.857724,0 0.776285,0.388144 1.985127,-0.129968 2.619241,0.18709 1.224699,0.612349 3.70672,0.374176 5.238482,0.374176 3.482369,0 6.82082,-0.187089 10.289878,-0.187089 2.111277,0 7.306617,0.370792 8.980255,-0.187087 0.520507,-0.173503 1.004215,0.05916 1.496711,-0.18709 0.112958,-0.05648 0.474781,0.08649 0.561266,0 0.04409,-0.0441 -0.0605,-0.202213 0,-0.187089 0.270568,0.06764 0.581017,0.597294 0.748352,0.374179 0.227606,-0.303472 -0.187086,-0.743193 -0.187086,-1.122532 0,-0.06236 0.142991,0.0441 0.187086,0 0.105699,-0.105698 0.05498,-1.386752 0,-1.496711 -0.195196,-0.390392 -0.292748,-0.532667 -0.561266,-0.935442 -0.137366,-0.206052 0.07993,-0.695656 0,-0.935445 -0.04409,-0.132292 -0.153267,-0.238892 -0.187086,-0.374176 -0.08541,-0.341651 0.111191,-0.788956 0,-1.122532 -0.224626,-0.673875 -0.42739,-1.416042 -0.748356,-2.057974 -0.118771,-0.237546 0.08288,-0.686795 0,-0.935445 -0.246279,-0.738841 -0.174778,-1.634554 -0.374176,-2.432153 -0.04074,-0.162957 -0.333439,-0.585396 -0.374179,-0.748353 -0.10809,-0.432369 0.0149,-0.71855 -0.187087,-1.122533 -0.251508,-0.503011 0.37655,-1.868513 0,-2.245064 -0.0441,-0.0441 -0.142992,0.0441 -0.18709,0 -0.283903,-0.283904 0.181856,-1.507174 0,-1.870887 -0.196043,-0.392088 -0.237527,-0.899665 -0.374176,-1.30962 -0.102502,-0.3075 0.145269,-0.83199 0,-1.122532 -0.2525,-0.504998 -0.01553,-0.982036 -0.18709,-1.49671 -0.36074,-1.082219 -0.104002,-1.891803 -0.561265,-2.80633 -0.147498,-0.294996 0,-0.979597 0,-1.30962 0,-0.748355 0.06236,0.311814 -0.18709,-0.187089 -0.215556,-0.431112 0,-1.583808 0,-2.057975 0,-0.528734 0.165724,-1.373712 0,-1.870887 -0.182973,-0.5489152 -0.01243,-1.1598167 -0.18709,-1.683798 -0.111585,-0.3347612 -0.2776,-0.6457186 -0.374176,-0.9354434 -0.214521,-0.6435624 0.06556,-1.9268596 0,-2.0579752 -0.02789,-0.055779 -0.1592,0.055779 -0.187089,0 -0.10804,-0.2160831 0,-0.8610735 0,-1.1225321 0,-0.1774208 -0.11298,-1.0095507 0,-1.122532 0.147608,-0.1476071 1.406136,1.1737572 1.49671,1.3096208 0.08967,0.1345086 1.124869,1.0301554 1.309622,1.1225318 0.111556,0.055779 0.285983,-0.088194 0.374176,0 0.407019,0.4070202 0.823291,1.1599997 1.496708,1.4967095 0.0664,0.0332 0.544,0.1525535 0.561266,0.1870885 0.05578,0.1115581 -0.05578,0.2626193 0,0.3741774 0.0882,0.176389 0.39718,0.077697 0.561266,0.1870888 0.312198,0.2081307 0.334166,0.5412591 0.748356,0.7483546 0.811397,0.4056983 1.418463,1.1531293 1.683797,1.6837983 0.152517,0.305029 0.589021,0.401931 0.748356,0.561266 0.0441,0.0441 -0.0441,0.142991 0,0.187088 0.08819,0.0882 0.318397,-0.111558 0.374176,0 0.05578,0.111558 -0.05578,0.26262 0,0.374178 0.05578,0.111558 0.285983,-0.0882 0.374179,0 0.225568,0.225568 0.496753,0.683843 0.748353,0.935443 0.105712,0.105711 0.608989,0.23481 0.748355,0.374177 0.0441,0.0441 -0.0441,0.142992 0,0.187089 0.489255,0.489255 0.927119,0.740028 1.496711,1.309621 0.730158,0.730157 -0.04331,0.100475 0.187087,0.561266 0.110652,0.221302 0.623112,0.436022 0.748356,0.561266 0.24552,0.24552 0.820721,1.295503 1.122531,1.496709 0.103778,0.06919 0.262621,-0.05578 0.374177,0 0.05578,0.02789 -0.0441,0.142991 0,0.187089 0.07274,0.07274 0.473226,0.121057 0.561266,0.187088 0.140073,0.105055 0.968319,0.781229 1.122532,0.935444 0.745053,0.745052 0.508785,0.651004 1.49671,1.30962 0.347898,0.231932 0.127379,0.42294 0.561266,0.748355 0.741484,0.556113 1.837984,0.918992 2.61924,1.309621 0.321802,0.1609 0.953741,0.06846 1.309622,0.187088 0.08367,0.02789 0.101528,0.165699 0.187089,0.187089 0.664671,0.166168 1.44684,0.255698 2.057974,0.561266 0.315931,0.157965 1.12309,0 1.496711,0 0.823087,0 1.980099,0.462499 2.80633,0.187089 0.451519,-0.150507 0.683164,-0.385519 1.122532,-0.561266 0.253134,-0.385526 0.633772,-0.08653 0.935442,-0.187089 0.28739,-0.0958 0.144968,-0.408459 0.374179,-0.561266 0.103777,-0.06919 0.270399,0.06919 0.374176,0 0.18709,-0.124726 0.18709,-0.43654 0.374177,-0.561266 0.840546,-0.560364 1.284835,-1.397567 1.49671,-2.245064 0.04538,-0.181503 -0.08367,-0.393929 0,-0.561266 0.229939,-0.459877 0.409451,-0.854172 0.561266,-1.309621 0.05578,-0.167337 0.295294,-0.21641 0.374177,-0.374177 0.07861,-0.157227 0.07836,-0.639624 0.187089,-0.748355 0.0441,-0.0441 0.1592,0.05578 0.18709,0 0.217508,-0.435018 0.0716,-1.034741 0.187087,-1.496709 0.02138,-0.08556 0.124727,-0.124726 0.187089,-0.187089 0.06236,-0.187088 0.144309,-0.368753 0.18709,-0.561266 0.15249,-0.686207 0.216529,-1.240301 0.374176,-1.870886 C 81.557362,10.717245 81.49869,6.2170788 81.196481,5.6126599 81.117598,5.4548931 80.901187,5.3962498 80.822304,5.2384827 80.665409,4.9246948 80.748372,4.416195 80.448128,4.1159506 80.325475,3.993299 79.980593,3.835505 79.886862,3.7417734 c -0.09355,-0.093545 -0.09355,-0.2806332 -0.18709,-0.3741774 -0.08819,-0.088194 -0.285982,0.088194 -0.374176,0 -0.0441,-0.044097 0.04409,-0.1429914 0,-0.1870887 C 79.102745,2.9576575 78.755811,2.8020716 78.390151,2.6192413 77.611533,2.2299322 78.590155,2.6321572 78.203062,2.245064 78.063695,2.1056964 77.56042,1.9765982 77.454709,1.8708867 77.285701,1.7018788 76.232834,0.32450577 75.957998,0.18708867 75.481994,-0.05091358 74.734104,-0.95108002 74.46129,-1.4967093 c -0.17054,-0.3410801 -0.06274,-1.123649 -0.18709,-1.4967095 -0.132043,-0.396132 -0.397385,-0.5844736 -0.561266,-0.7483546 -0.08648,-0.086484 0.05648,-0.4483069 0,-0.5612659 -0.285268,-0.5705383 -0.148317,0.3421747 -0.374176,-0.561266 -0.134858,-0.5394343 -0.127746,-1.3780214 -0.374179,-1.8708867 -0.175684,-0.3513677 -0.406609,-0.2519542 -0.561266,-0.5612659 -0.198279,-0.3965609 -0.23231,-1.0711119 -0.374176,-1.4967095 -0.356482,-1.0694413 -0.03572,1.1310098 -0.374177,-0.5612659 -0.03669,-0.1834555 0.05916,-0.3837781 0,-0.5612659 -0.01971,-0.059163 -0.1592,0.055779 -0.187089,0 -0.03426,-0.068525 0.0787,-0.6696508 0,-0.7483548 -0.0441,-0.0441 -0.142992,0.0441 -0.18709,0 -0.114117,-0.114117 -0.149722,-1.347248 -0.187087,-1.496709 -0.178636,-0.714541 -0.435938,-1.620229 -0.748355,-2.245064 -0.08929,-0.178574 -0.125754,-0.782109 -0.18709,-0.935444 -0.103579,-0.258947 -0.306535,-0.477786 -0.374176,-0.748354 -0.136964,-0.547859 0.02265,-1.159469 -0.18709,-1.683798 -0.06551,-0.163773 -0.295293,-0.216411 -0.374176,-0.374178 -0.08367,-0.167337 0.08367,-0.393929 0,-0.561266 -0.206833,-0.413663 -0.116115,-0.05806 -0.374176,-0.187088 -0.427826,-0.213913 -0.568553,-0.75564 -0.748356,-0.935444 -0.190725,-0.190724 -0.364717,0.206009 -0.561266,-0.187088 -0.212071,-0.424144 -0.44746,-0.44746 -0.748355,-0.748355 -0.382241,-0.382242 -0.800047,-1.361314 -1.122532,-1.683798 -0.08819,-0.08819 -0.285983,0.08819 -0.374176,0 -0.0441,-0.0441 0.04409,-0.142992 0,-0.187089 -0.01699,-0.01698 -1.221105,-0.329919 -1.309622,-0.374177 -0.157768,-0.07888 -0.21641,-0.295294 -0.374176,-0.374177 -0.256318,-0.128159 -0.677212,-0.05797 -0.935445,-0.187089 -0.217935,-0.108967 -0.343331,-0.26521 -0.561266,-0.374177 -0.111559,-0.05578 -0.26262,0.05578 -0.374176,0 -0.132811,-0.0664 -0.241367,-0.307772 -0.374179,-0.374178 -0.331105,-0.165552 -2.372913,-0.502028 -2.432151,-0.561266 -0.0441,-0.0441 0.0441,-0.142991 0,-0.187088 -0.22311,-0.223111 -2.959655,0 -3.180508,0 -0.374177,0 -0.787858,-0.167337 -1.122532,0 -0.03648,0.01824 -0.146495,0.333582 -0.18709,0.374177 -0.118671,0.118673 -0.592584,-0.07788 -0.748353,0 -0.279027,0.139512 -0.46296,0.418569 -0.748355,0.561266 -0.225499,0.112749 -0.582446,0.02118 -0.748355,0.187089 -0.0441,0.0441 0.0441,0.142991 0,0.187088 -0.208384,0.208385 -0.844807,0.422404 -1.122532,0.561266 -0.399706,0.199853 -0.198964,0.573141 -0.374177,0.748355 -0.0441,0.0441 -0.142991,-0.0441 -0.187089,0 -0.02715,0.02715 -0.18709,0.699455 -0.18709,0.748355 0,0.06498 -0.67302,0.86011 -0.748352,0.935443 -0.09355,0.09354 -0.467723,-0.09354 -0.561266,0 -0.0441,0.0441 0.04409,0.142991 0,0.187089 -0.108437,0.108436 -0.639919,0.265741 -0.748356,0.374177 -0.387093,0.387093 0.591529,-0.01513 -0.187089,0.374177 -0.111557,0.05578 -0.285983,-0.08819 -0.374177,0 -0.311896,0.311897 -0.351829,0.538917 -0.561266,0.748355 -0.0441,0.0441 -0.142991,-0.0441 -0.187089,0 -0.108392,0.108392 -0.540867,1.14293 -0.374177,1.309621 0.122651,0.122651 0.654622,0.09336 0.748356,0.187088 0.0441,0.0441 -0.05578,0.159199 0,0.187089 0.345771,0.172887 2.498439,0.153945 2.806329,0 0.05578,-0.02789 -0.0441,-0.142992 0,-0.187089 0.08819,-0.08819 0.285983,0.08819 0.374177,0 0.0441,-0.0441 -0.0441,-0.142991 0,-0.187088 0.279913,-0.279913 1.119984,-0.559992 1.496711,-0.748355 0.490786,-0.245393 1.879536,0 2.43215,0 0.92383,0 3.578797,-0.241414 4.303041,0 0.579323,0.193108 0.487251,0.300162 0.748355,0.561266 0.165978,0.165978 0.700852,0.217784 0.935442,0.374177 0.264369,0.176247 0.422643,0.609731 0.561266,0.748355 0.155909,0.155907 0.592447,0.03118 0.748356,0.187089 0.798131,0.798132 -3.687419,0.187088 -3.928862,0.187088 -1.491385,0 -8.652618,-0.327638 -9.541523,0.561266 -0.0441,0.0441 0.0441,0.142992 0,0.187089 -0.0441,0.0441 -0.142991,-0.0441 -0.187089,0 -0.366432,0.366432 -0.793211,1.025155 -1.122532,1.683798 -0.41924,0.838482 2.146469,0.935443 2.619243,0.935443 1.537268,0 3.154074,-0.138467 4.677216,0 0.668351,0.06076 1.217565,0.452379 1.870885,0.561266 0.185632,0.03094 1.49248,0.09143 1.6838,0.187089 0.246095,0.123047 0.495343,0.28984 0.748353,0.374177 0.177488,0.05916 0.39393,-0.08367 0.561266,0 0.217935,0.108968 0.343331,0.26521 0.561266,0.374178 0.311846,0.155922 1.238197,0.115664 1.496711,0.374177 0.723368,0.723369 -2.533039,0.561266 -2.619243,0.561266 -0.980128,0 -1.425731,-0.359982 -2.432153,-0.561266 -0.568473,-0.113695 -1.327124,-0.0058 -1.870885,-0.187089 -0.05916,-0.01972 0.0441,-0.142991 0,-0.187088 -0.132291,-0.132292 -0.383778,0.05916 -0.561266,0 -0.7812,-0.2604 -1.503534,-0.307266 -2.245066,0.187088 -0.370631,-0.01867 -0.08848,0.275573 -0.187087,0.374178 -0.0441,0.0441 -0.142991,-0.0441 -0.187089,0 -0.08819,0.08819 0,0.249451 0,0.374177 0,0.992825 0.625631,0.6665385 1.309621,1.1225319 1.18201,0.7880078 1.487633,0.2464263 2.432153,0.561266 2.323619,0.7745396 3.320569,1.2625927 4.864304,2.80633 0.578575,0.5785747 1.324411,1.3392034 1.683798,2.0579755 0.05578,0.1115581 -0.08819,0.2859828 0,0.3741772 0.249451,0.2494515 0.179525,-0.396875 0.374179,0.1870887 0.05916,0.177488 -0.08367,0.3939288 0,0.5612659 0.41453,0.8290603 0.711829,1.6107513 1.122531,2.43215281 0.05578,0.11155812 -0.08819,0.28598288 0,0.37417732 0.0441,0.0440972 0.142992,-0.0440972 0.18709,0 0.210907,0.21090734 0.282027,0.65899471 0.374176,0.93544333 0.01114,0.0334058 0.706806,1.08098214 0.748356,1.12253204 0.04409,0.044097 0.142991,-0.044097 0.187087,0 0.0882,0.088194 -0.03944,0.255852 0,0.3741773 0.169566,0.508696 0.408048,1.0370578 0.561266,1.4967094 0.116816,0.3504452 0.201205,2.4039206 0,2.8063298 -0.02789,0.055779 -0.159198,-0.055779 -0.187087,0 -0.05578,0.1115582 0.03944,0.2558521 0,0.3741775 -0.0889,0.2666897 -0.269402,0.2694006 -0.374179,0.3741772 -0.08819,0.088195 0.05578,0.2626193 0,0.3741774 -0.166061,0.3321217 -0.395206,0.6033217 -0.561266,0.9354434 -0.05578,0.1115581 0.0882,0.2859828 0,0.3741774 -0.0441,0.044097 -0.142992,-0.044097 -0.187087,0 -0.08648,0.086484 0.05648,0.4483066 0,0.561266 -0.13775,0.2754992 -0.248227,0.2482267 -0.374179,0.3741771 -0.006,0.00604 -0.511969,1.1617298 -0.561266,1.3096208 -0.05989,0.179669 0.08978,0.568795 0,0.748355 -0.508765,1.017528 -0.18709,3.947004 -0.18709,5.238482 0,0.146493 -0.09335,0.842091 0,0.935444 0.0441,0.0441 0.142994,-0.0441 0.18709,0 0.0441,0.0441 -0.06236,0.187088 0,0.187088 0.06236,0 0,-0.249451 0,-0.187088 0,0.101311 0.149339,1.047031 0.187089,1.122532 0.08118,0.162367 0.717662,0.904751 0.748356,0.935443 0.08819,0.08819 0.285983,-0.08819 0.374176,0 0.0441,0.0441 -0.0441,0.142992 0,0.187089 0.08819,0.08819 0.285983,-0.0882 0.374177,0 0.125952,0.12595 0.09868,0.236427 0.374179,0.374177 0.270729,0.135365 0.645482,0.114599 0.935442,0.187089 0.69823,0.174557 1.424186,0.537092 2.057974,0.748354 0.168381,0.05613 0.392888,-0.05613 0.561269,0 1.122502,0.374168 2.160484,0.595436 3.180506,0.935444 0.392885,0.130962 0.916733,-0.130962 1.309621,0 0.38672,0.128907 0.442817,0.187088 0.935442,0.187088 0.245253,0 1.347338,0.149373 1.496711,0 0.0441,-0.0441 -0.0441,-0.142991 0,-0.187088 0.09373,-0.09373 0.625703,-0.06444 0.748353,-0.187089 0.164621,-0.16462 0.438626,-0.625715 0.561266,-0.748355 0.0441,-0.0441 0.1592,0.05578 0.187089,0 0.05578,-0.111558 -0.08819,-0.285983 0,-0.374177 0.08819,-0.08819 0.26262,0.05578 0.374177,0 0.184298,-0.09215 0.08169,-0.350458 0.187089,-0.561266 0.106085,-0.212172 0.635193,-0.448105 0.748356,-0.561266 0.317783,-0.317783 0.208732,-0.769999 0.561266,-1.122532 0.04409,-0.0441 0.159199,0.05578 0.187086,0 0.03418,-0.06836 0.332658,-1.600758 0.374179,-1.683798 0.149411,-0.298823 0.224767,-0.07535 0.374177,-0.374177 0.168614,-0.337226 0.203962,-1.717546 0.374179,-2.057976 0.319953,-0.639906 0.452594,-1.279369 0.748353,-1.870886 0.1119,-0.223798 -0.05889,-0.699883 0,-0.935444 0.38331,-1.533241 0.561266,-1.851849 0.561266,-3.5546843 0,-0.6323857 0.494429,-2.5658297 0.187089,-3.1805073 C 81.057881,4.7741919 80.224999,3.7057348 79.886862,3.367596 79.744688,3.2254237 79.108101,2.9630121 78.951417,2.8063301 c -0.0441,-0.044097 0.0441,-0.1429914 0,-0.1870888 -0.220485,-0.2204861 -0.608907,-0.2823707 -0.748355,-0.561266 -0.02789,-0.055779 0.05578,-0.1591991 0,-0.1870886 -0.111557,-0.055779 -0.262618,0.055779 -0.374177,0 -0.05578,-0.02789 0.02789,-0.1313096 0,-0.1870887 C 77.511655,1.0493396 76.573178,0.42809085 76.145087,0 c -0.06236,-0.06236289 -0.124724,-0.49890312 -0.187089,-0.56126599 -0.11494,-0.11494185 -0.435975,-0.12359928 -0.561266,-0.37417734 -0.862973,-1.72594487 -2.019901,-2.87919427 -2.61924,-4.67721657 -0.05578,-0.1673373 -0.295294,-0.2164104 -0.374179,-0.3741774 -0.201755,-0.403511 0.01466,-0.7190211 -0.187087,-1.1225321 -0.198199,-0.396399 -0.457801,-0.6051992 -0.561266,-1.1225318 -0.05015,-0.2507346 -0.349459,-2.2203458 -0.374179,-2.2450638 -0.04409,-0.0441 -0.142991,0.0441 -0.187087,0 -0.124727,-0.124726 0.124725,-0.623629 0,-0.748355 -0.0441,-0.0441 -0.142991,0.0441 -0.187089,0 -0.05344,-0.05344 -0.254315,-1.256984 -0.374177,-1.496709 -0.114771,-0.22954 0.18029,-0.942241 0,-1.122532 -0.0441,-0.0441 -0.159199,0.05578 -0.187089,0 -0.170469,-0.340939 0.121197,-0.94603 0,-1.309621 -0.03806,-0.114173 -0.336119,-0.447093 -0.374177,-0.561266 -0.205628,-0.616886 -0.07971,-1.469034 -0.374179,-2.057975 -0.02789,-0.05578 -0.159197,0.05578 -0.187086,0 -0.02569,-0.05139 -0.340075,-1.088429 -0.37418,-1.122532 -0.111193,-0.111194 -0.220035,-0.110018 -0.374176,-0.187089 -0.377518,-0.188759 -1.107408,-1.294495 -1.309621,-1.496709 -0.08819,-0.08819 -0.285983,0.08819 -0.374177,0 -0.131085,-0.131086 -0.672774,-0.897654 -0.748355,-0.935444 -0.111559,-0.05578 -0.285983,0.08819 -0.374176,0 -0.0882,-0.08819 0.05578,-0.262619 0,-0.374177 -0.0882,-0.176389 -0.39718,-0.0777 -0.561266,-0.187089 -0.221094,-0.147395 -0.261874,-0.448962 -0.374179,-0.561266 -0.08819,-0.08819 -0.285983,0.08819 -0.374177,0 -0.02199,-0.02198 -0.180954,-0.372132 -0.187089,-0.374177 -0.177488,-0.05916 -0.393928,0.08367 -0.561266,0 -0.124725,-0.06236 -0.07106,-0.296826 -0.187087,-0.374177 -0.155668,-0.103778 -0.428974,0.132291 -0.561266,0 -0.0441,-0.0441 0.04409,-0.142992 0,-0.187089 -0.118674,-0.118673 -0.592587,0.07788 -0.748355,0 -0.321715,-0.160857 -0.613731,-0.21332 -0.935445,-0.374177 -0.278895,-0.139448 -0.632939,0.07563 -0.935443,0 -0.270568,-0.06764 -0.477787,-0.306536 -0.748355,-0.374178 -0.242004,-0.0605 -0.502296,0.04101 -0.748353,0 -1.802154,-0.300359 -1.955207,-0.374177 -3.741774,-0.374177 -0.718926,0 -2.202559,-0.04251 -2.61924,0.374177 -0.159015,0.159014 -0.407961,0.782137 -0.561266,0.935444 -0.09355,0.09354 -0.280633,0.09354 -0.374179,0.187088 -0.08819,0.08819 0.08819,0.285983 0,0.374178 -0.0441,0.0441 -0.142992,-0.0441 -0.18709,0 -0.08819,0.08819 0.0882,0.285983 0,0.374177 -0.06236,0.06236 -0.275283,0.187089 -0.187087,0.187089 0.06236,0 0,-0.249452 0,-0.187089 0,0.124726 0.05578,0.262619 0,0.374177 -0.02789,0.05578 -0.187089,-0.06236 -0.187089,0 0,0.06236 0.124727,0 0.187089,0 0.374177,0 0.748356,0 1.122532,0 0.685991,0 1.371984,0 2.057974,0 2.057977,0 4.115951,0 6.173928,0 0.342998,0 0.380653,0.300637 0.748353,0.374178 0.583356,0.11667 1.181441,0.122998 1.6838,0.374177 0.410504,0.205252 -0.03633,0.168925 0.374176,0.374177 0.157226,0.07861 0.639623,0.07836 0.748356,0.187089 0.04409,0.0441 -0.0441,0.142991 0,0.187089 0.192622,0.192622 0.748353,0.400784 0.748353,0.748354 0,0.06236 0.06236,0.187089 0,0.187089 -0.496742,0 -1.814561,-1.540297 -2.245064,-1.683798 -0.177488,-0.05916 -0.428974,0.132292 -0.561266,0 -0.0441,-0.0441 0.0441,-0.142991 0,-0.187089 -0.124725,-0.124725 -0.623628,0.124726 -0.748355,0 -0.0441,-0.0441 0.0441,-0.142991 0,-0.187088 -2.65e-4,-2.91e-4 -0.690912,-0.06482 -0.935443,-0.187089 -0.299468,-0.149735 -0.801616,0.106972 -1.122532,0 -0.414935,-0.138312 -0.767902,-0.196863 -1.122531,-0.374177 -0.249452,-0.124726 -0.685993,0.124726 -0.935443,0 -0.915622,-0.457811 -2.304602,-0.561266 -3.367598,-0.561266 -0.220175,0 -2.944807,-0.04861 -2.993419,0 -0.08819,0.08819 0.0882,0.285983 0,0.374177 -0.04409,0.0441 -0.187087,-0.06236 -0.187087,0 0,0.176389 0.216411,-0.295294 0.374177,-0.374177 0.464896,-0.232449 1.155652,-0.748355 1.683797,-0.748355 0.185444,0 0.832253,-0.0839 0.935445,-0.187089 0.0441,-0.0441 -0.0441,-0.142991 0,-0.187088 0.09354,-0.09355 0.46772,0.09354 0.561266,0 0.0441,-0.0441 -0.0441,-0.142992 0,-0.187089 0.192389,-0.192389 2.325791,-0.561266 2.61924,-0.561266 0.136255,0 1.009256,0.113276 1.122532,0 0.273167,-0.273165 -0.381831,-0.875632 -1.122532,-1.122532 -0.118324,-0.03944 -0.285983,0.08819 -0.374176,0 -0.0441,-0.0441 0.0441,-0.142991 0,-0.187089 -0.188661,-0.188661 -1.247082,-0.06227 -1.496711,-0.187088 -0.157766,-0.07888 -0.216411,-0.295294 -0.374176,-0.374177 -0.05992,-0.02996 -2.307858,-0.280763 -2.61924,-0.374179 -0.321673,-0.0965 -0.616845,-0.267975 -0.935445,-0.374176 -3.700995,-1.233665 -7.278241,-1.927178 -11.038232,-3.180509 -0.266689,-0.0889 -0.269401,-0.269399 -0.374176,-0.374176 -0.132292,-0.132292 -0.405598,0.103777 -0.561266,0 -0.197038,-0.131358 -0.275518,-0.462606 -0.374179,-0.561266 -0.574249,-0.574249 -0.155559,0.10931 -0.748353,-0.18709 -0.157768,-0.07888 -0.21641,-0.295293 -0.374179,-0.374176 -0.111556,-0.05578 -0.255852,0.03944 -0.374176,0 -0.167339,-0.05578 -0.216411,-0.295294 -0.374177,-0.374177 -0.260241,-0.130122 -0.665879,-0.239395 -0.935444,-0.374179 -0.619062,-0.30953 -1.259208,-0.731549 -1.870888,-0.935442 -0.280633,-0.09354 -0.654809,0.09354 -0.935442,0 -0.304469,-0.101489 -0.830302,-0.438346 -1.122532,0 -0.252944,0.379418 -0.995505,1.930948 -1.122532,2.057974 -0.09354,0.09355 -0.280633,0.09355 -0.374176,0.18709 -0.171223,0.171222 -0.05238,0.73338 -0.18709,0.935442 -0.07735,0.116028 -0.296825,0.07106 -0.374176,0.18709 -0.06919,0.103777 0.03944,0.255852 0,0.374176 -0.138348,0.415041 -0.480946,1.095595 -0.748355,1.496711 -0.633934,0.950902 -1.150814,1.740358 -1.683798,2.80633 -0.09814,0.196273 -0.04487,0.793226 -0.18709,0.935443 -0.0441,0.0441 -0.142991,-0.0441 -0.187089,0 -0.08648,0.08648 0.05648,0.448307 0,0.561266 -0.142695,0.285395 -0.421754,0.46933 -0.561266,0.748355 -0.05578,0.111558 0.05578,0.262619 0,0.374177 -0.495246,0.990493 1.496711,0.254635 1.496711,1.309621 0,0.124725 0.08819,0.285983 0,0.374177 -0.0441,0.0441 -0.1592,-0.05578 -0.18709,0 -0.08367,0.167337 0.132292,0.428974 0,0.561266 -0.09861,0.0986 -0.296825,0.07106 -0.374176,0.187089 -0.17639,0.264583 -0.06899,0.640197 -0.18709,0.935443 -0.630089,1.575226 0.138004,-0.138003 -0.374176,0.374177 -0.41067,0.410669 -1.016187,3.848119 -0.561267,4.30304 0.414304,0.414304 4.353119,0.714102 5.238484,0.935443 0.97147,0.242868 -0.199726,0.187089 0.748353,0.187089 0.119425,0 -0.722181,-0.213263 -0.935443,0 -0.0441,0.0441 0.0441,0.142991 0,0.187088 -0.09354,0.09354 -0.467722,-0.09354 -0.561266,0 -0.132045,0.132046 -0.818933,0.88951 -0.935442,1.122532 -0.08482,0.16965 1.021731,0.647554 1.122532,0.748355 0.120687,0.120689 0.09598,0.79878 0.187087,0.935443 0.07735,0.116028 0.275574,0.08848 0.374179,0.187089 0.232214,0.232215 0.04842,0.609684 0.187087,0.7483548 0.196498,0.1964965 1.177769,-0.3302268 1.309621,-0.3741778 0.864373,-0.288124 1.447504,-0.723752 2.245064,-1.122532 0.550092,-0.275045 2.032751,-0.04047 2.619242,-0.187088 0.547219,-0.136806 1.140598,-0.05129 1.683798,-0.187089 0.633174,-0.158294 1.003853,-0.374177 1.683798,-0.374177 0.497062,0 0.560604,1.310943 0.374176,1.683798 -0.428114,0.8562309 0.07754,-0.793895 -0.374176,0.5612658 -0.07882,0.236461 -0.119232,1.445333 0,1.683798 7.93e-4,0.00185 0.850794,0.054347 1.122532,0 0.329313,-0.065863 0.612531,-0.2819168 0.935442,-0.3741775 1.779198,-0.5083421 -0.274061,0.065878 1.496711,-0.1870887 0.740174,-0.1057392 1.613998,-0.61991 2.245063,-0.9354434 0.378468,-0.1892339 2.897227,-0.3741772 3.367596,-0.3741772 0.249452,0 0.498903,0 0.748355,0 0.06236,0 0.187087,0.06236 0.187087,0 0,-0.187089 -0.374176,0 -0.561266,0 -0.561266,0 -1.122532,0 -1.683798,0 -2.025869,0 -3.333252,1.1225319 -5.425569,1.1225319 -0.320612,0 -1.870887,0.2028983 -1.870887,-0.1870885 0,-0.3969409 -0.04594,-2.3369334 -0.18709,-2.6192414 -0.04636,-0.09273 -1.882129,0.349057 -2.057974,0.374177 -1.268206,0.181172 -2.682973,-0.06209 -3.928861,0.187089 -0.153112,0.03062 -0.415902,0.301495 -0.561269,0.374177 -0.32889,0.164446 -1.184352,0.124455 -1.683798,0.374178 -0.329284,0.164642 -1.143399,0 -1.496708,0 -0.01442,0 -0.913828,0.04323 -0.935442,0 -0.114528,-0.229052 0.0812,-0.691853 0,-0.935444 -0.02789,-0.08367 -0.1592,-0.10342 -0.18709,-0.187088 -0.01259,-0.03776 0.06225,-0.686109 0,-0.748355 -0.0441,-0.0441 -0.142991,0.0441 -0.187089,0 -0.08648,-0.08648 0.05648,-0.448307 0,-0.561266 -0.07606,-0.152124 -0.296778,-0.154799 -0.187087,-0.374177 0.08797,-0.17595 2.022832,-0.697706 1.309619,-0.935444 -0.154657,-0.05155 -0.736733,0.09936 -0.935443,0 -0.321924,-0.160962 -0.612661,-0.212785 -0.935442,-0.374177 -0.372499,-0.186249 -1.404165,0.279634 -1.6838,0 -0.0441,-0.0441 0.0441,-0.142991 0,-0.187089 -0.532924,-0.532923 -2.619241,-0.136372 -2.619241,-1.122532 0,-0.390486 0.384519,-0.20777 0.561266,-0.561266 0.153515,-0.307029 0.205264,-0.784704 0.374177,-1.122532 0.08978,-0.17956 -0.05989,-0.568685 0,-0.748354 0.0621,-0.18631 0.312076,-0.374957 0.374179,-0.561266 0.05916,-0.177488 -0.08367,-0.393929 0,-0.561266 0.187674,-0.375353 0.501137,-2.372024 0.561266,-2.432153 0.0441,-0.0441 0.142991,0.0441 0.187087,0 0.0882,-0.08819 -0.08819,-0.285983 0,-0.374177 0.0441,-0.0441 0.142991,0.0441 0.187089,0 0.335037,-0.335037 -0.623575,-0.685884 -0.748355,-0.935444 -0.142285,-0.284574 -0.105381,-1.554742 0,-1.870886 0.0986,-0.295814 0.445463,-0.458843 0.561266,-0.748355 0.06949,-0.173707 -0.103778,-0.405599 0,-0.561266 0.748035,-1.122054 1.861788,-2.039774 2.432153,-3.180507 0.137866,-0.27573 0.561686,-0.3746 0.748355,-0.561266 0.0784,-0.0784 0.130395,-0.447879 0.18709,-0.561266 0.230246,-0.460494 0.743566,-0.743569 0.935442,-0.935445 0.09354,-0.09354 -0.09354,-0.46772 0,-0.561266 0.09354,-0.09354 0.280633,-0.09354 0.374177,-0.187087 0.136345,-0.136345 0.0026,-0.750913 0.187089,-0.935444 0.219983,-0.219983 3.133638,0.509275 3.367596,0.561265 0.1129,0.02508 1.288335,0.165804 1.309621,0.18709 0.0441,0.0441 -0.05578,0.1592 0,0.187089 0.592794,0.296397 0.174104,-0.387162 0.748355,0.187087 0.0986,0.0986 0.07553,0.29051 0.187087,0.374179 0.403717,0.302787 1.212173,0.372616 1.683798,0.561266 0.208772,0.08351 0.347953,0.303073 0.561266,0.374177 0.383455,0.127817 0.726453,0.05506 1.122534,0.187089 0.213313,0.0711 0.352494,0.290669 0.561266,0.374177 0.192678,0.07707 2.162445,0.507325 2.432151,0.561265 0.183456,0.03669 0.387559,-0.06948 0.561266,0 0.163774,0.06551 0.21641,0.295294 0.374179,0.37418 1.227637,0.613817 2.811306,0.796369 4.115951,1.122531 0.270568,0.06764 0.483769,0.285983 0.748352,0.374177 0.216461,0.07215 0.547315,-0.100521 0.748356,0 0.36036,0.180178 1.057343,0.374176 1.496711,0.374176 0.249449,0 0.748352,0.249452 0.748352,0 0,-0.06236 -0.124724,0 -0.187087,0 -0.374179,0 -0.748355,0 -1.122531,0 -0.811406,0 -1.496666,-0.561253 -2.245067,-0.748353 -0.558165,-0.139541 -0.776083,-0.57051 -1.309618,-0.748355 -0.416431,-0.138811 -1.286383,-0.450292 -1.683798,-0.748356 -0.111559,-0.08367 -0.06236,-0.311814 -0.18709,-0.374176 -0.167338,-0.08367 -0.387559,0.06948 -0.561265,0 -0.163775,-0.06551 -0.222925,-0.283427 -0.37418,-0.374179 -0.679426,-0.407657 -2.775116,-1.091316 -3.180505,-1.496708 -0.0441,-0.0441 0.05578,-0.1592 0,-0.18709 -0.256316,-0.128156 -0.677209,-0.05797 -0.935443,-0.187087 -0.157768,-0.07888 -0.21641,-0.295293 -0.374179,-0.374179 -0.386014,-0.193005 -0.91264,-0.24185 -1.309621,-0.374176 -0.07471,-0.0249 -0.299471,-0.349276 -0.374177,-0.374176 -0.39497,-0.13166 -0.755231,-0.190529 -1.122531,-0.374179 -0.157766,-0.07888 -0.206841,-0.318397 -0.374177,-0.374177 -1.196758,-0.39892 -2.351645,-1.015494 -3.554685,-1.496711 -0.333615,-0.133445 -1.528818,-0.296685 -1.683797,-0.374176 -0.481796,-0.240898 -0.641925,-0.320961 -1.122532,-0.561266 -0.111559,-0.05578 -0.26262,0.05578 -0.374179,0 -0.295958,-0.147979 -1.947699,-0.484452 -2.245064,-0.187089 -0.226883,0.226885 -0.725046,2.034667 -0.748355,2.057976 -0.0441,0.0441 -0.159197,-0.05578 -0.187087,0 -0.111559,0.223115 0.111556,0.525238 0,0.748356 -0.02789,0.05578 -0.142992,-0.0441 -0.18709,0 -0.118673,0.118671 0.07788,0.592584 0,0.748353 -0.230817,0.461634 -0.397362,0.279831 -0.561266,0.935444 -0.0944,0.377579 -0.01328,0.962031 -0.187089,1.309619 -0.14796,0.295923 -0.226216,0.07826 -0.374177,0.374179 -0.07483,0.14967 0.07483,0.411594 0,0.561266 -0.02789,0.05578 -0.142991,-0.0441 -0.187089,0 -0.08648,0.08648 0.05648,0.448307 0,0.561266 -0.139512,0.279024 -0.418568,0.46296 -0.561265,0.748355 -0.148454,0.296908 -0.125162,0.873514 -0.374178,1.122532 -0.249451,0.249452 -0.179522,-0.396875 -0.374177,0.187087 -0.05309,0.159258 -0.06525,0.62652 -0.187089,0.748356 -0.0441,0.0441 -0.159199,-0.05578 -0.187088,0 -0.05578,0.111558 0.05578,0.26262 0,0.374177 -0.0213,0.04259 -0.495763,0.177668 -0.561266,0.374177 -0.05916,0.177488 0.08367,0.393929 0,0.561266 -0.06236,0.124726 -0.311815,0.06236 -0.374178,0.187089 -0.07746,0.154924 -0.327713,0.98314 -0.374177,1.122532 0.06993,0.407575 -0.311814,0.06236 -0.374177,0.187089 -0.05578,0.111558 0.05578,0.262619 0,0.374177 -0.02789,0.05578 -0.142992,-0.0441 -0.187089,0 -0.360247,0.360247 -0.727191,1.080204 -0.935443,1.496709 -0.128011,0.256023 -0.712253,0.640048 -0.748355,0.748355 -0.03944,0.118325 0.03944,0.255852 0,0.374177 -0.1053,0.3159 -0.809678,0.809678 -0.935443,0.935444 -0.0441,0.0441 0,0.124725 0,0.187088 -0.06236,0.06236 -0.113707,0.138168 -0.187089,0.187089 -0.170903,0.113935 -0.454025,0.159696 -0.561266,0.374177 -0.05669,0.113387 -0.10869,0.482868 -0.187089,0.561266 -0.08819,0.0882 -0.285983,-0.08819 -0.374177,0 -0.0441,0.0441 0.0441,0.142992 0,0.187089 -0.11773,0.11773 -0.568251,0.254108 -0.748355,0.374177 -0.331703,0.221136 -0.96382,0.445999 -1.30962,0.561266 -0.177488,0.05916 -0.393929,-0.08367 -0.561266,0 -0.55785,0.278925 -1.117595,0.55962 -1.683798,0.748355 -0.83054,0.276847 -2.288673,0 -3.180508,0 -0.124725,0 -0.285983,0.08819 -0.374177,0 -0.387093,-0.387093 0.59153,0.01513 -0.187089,-0.374177 -0.197902,-0.09895 -0.625508,-0.128485 -0.748354,-0.374178 -0.193513,-0.387025 -0.122393,0.0647 -0.5612662,-0.374177 -0.158995,-0.158995 -0.1942955,-0.426354 -0.3741775,-0.561266 -0.099781,-0.07484 -0.2703991,0.06919 -0.3741772,0 -0.1160277,-0.07735 -0.088484,-0.275573 -0.1870887,-0.374177 -0.3704852,-0.370486 -0.9608277,-0.586651 -1.3096208,-0.935444 -0.2280129,-0.228013 -0.2257361,-0.580589 -0.5612659,-0.748354 -0.055779,-0.02789 -0.1591993,0.05578 -0.1870887,0 -0.055779,-0.111558 0.030251,-0.253176 0,-0.374178 -0.062363,-0.124725 -0.1247257,-0.249451 -0.1870888,-0.374177 -0.062363,0 -0.1524957,0.05189 -0.1870884,0 -0.247523,-0.371284 -0.3009736,-0.919182 -0.5612662,-1.309621 -0.1897994,-0.284699 -0.5897057,-0.589706 -0.7483546,-0.748354 -0.1084363,-0.108437 -0.2657409,-0.639919 -0.3741772,-0.748355 -0.1532713,-0.153271 -0.5902436,-0.324099 -0.7483549,-0.561266 -0.5600248,-0.840037 -1.2007808,-1.918545 -1.4967092,-2.806331 -0.078883,-0.236648 0.078883,-0.511704 0,-0.748353 -0.071105,-0.213315 -0.3030727,-0.347953 -0.3741774,-0.561266 -0.072264,-0.216794 0.054415,-0.530698 0,-0.748355 -0.096493,-0.385971 -0.2631473,-0.789443 -0.3741773,-1.122532 -0.1576751,-0.473025 0.2217213,-1.240356 0,-1.683798 -0.3781538,-0.756308 -0.2798758,-1.775071 -0.561266,-2.619242 -0.17567931,-0.527037 0.058334,-1.192954 -0.18708867,-1.683798 -0.3893091,-0.778618 0.0129156,0.200004 -0.37417734,-0.187089 -0.12472577,-0.124725 0.1247258,-0.623629 0,-0.748353 -0.0440972,-0.0441 -0.14299144,0.04409 -0.18708865,0 -0.001937,-0.0019 0.001937,-0.372243 0,-0.374179 C 0.28063301,-38.072544 0.09354433,-38.072544 0,-38.166087 c -0.04409722,-0.0441 0.05577906,-0.1592 0,-0.18709 -0.11155813,-0.05578 -0.26261921,0.05578 -0.37417734,0 -0.0557791,-0.02789 0.0440972,-0.142991 0,-0.187089 -0.024185,-0.02418 -1.06094226,0 -1.68379796,0 -0.5544406,0 -2.5304415,-0.231487 -2.9934187,0 -0.1344385,0.06722 -0.888379,0.545579 -0.9354433,0.561266 -0.4615082,0.153836 -1.0342171,0.220014 -1.4967093,0.374179 -0.1247259,0.06236 -0.2494516,0.124724 -0.3741775,0.187087 0,0.06236 0.055779,0.159199 0,0.187089 -0.1115581,0.05578 -0.255852,-0.03944 -0.3741771,0 -0.3284088,0.109469 -0.6226861,0.404887 -0.9354434,0.561266 -0.3391974,0.169598 -1.7972414,0.487619 -1.8708864,0.561266 -0.0441,0.0441 0.0441,0.142991 0,0.187089 -0.0882,0.08819 -0.285983,0.08819 -0.374178,0 -0.07514,-0.07514 -1.051239,-2.04458 -1.30962,-2.432153 -0.137593,-0.206388 -0.450756,-0.340246 -0.561266,-0.561266 -0.102321,-0.204642 -0.181099,-0.555275 -0.374178,-0.748355 -0.187512,-0.187513 -2.330401,0.237966 -2.432152,0.18709 -0.670848,-0.335423 -0.866333,-1.24051 -1.309621,-1.683798 -0.0441,-0.0441 -0.142992,0.04409 -0.187089,0 -0.378891,-0.378891 -0.685236,-1.059416 -0.935443,-1.309622 -0.0441,-0.0441 -0.142991,0.0441 -0.187089,0 -0.269075,-0.269076 -0.208531,-0.67089 -0.561266,-0.935442 -0.157767,-0.118327 -0.397178,-0.0777 -0.561266,-0.187089 -0.05189,-0.03459 0.0441,-0.142992 0,-0.18709 -0.241061,-0.241059 -1.246625,-0.99654 -1.30962,-1.122532 -0.02789,-0.05578 0.0441,-0.142991 0,-0.187087 -0.108437,-0.108436 -0.639919,-0.265742 -0.748355,-0.374179 -0.10705,-0.107047 -0.108835,-0.472818 -0.374177,-0.561266 -0.118326,-0.03944 -0.255852,0.03944 -0.374178,0 -0.265342,-0.08845 -0.267127,-0.454215 -0.374177,-0.561265 -0.141937,-0.141936 -1.304184,-0.379614 -1.496709,-0.18709 -0.0441,0.0441 0.0441,0.142991 0,0.18709 -0.166775,0.166774 -0.549662,0.08774 -0.748355,0.187089 -0.130277,0.06514 -0.662843,0.764421 -0.748355,0.935442 -0.362134,0.724268 -1.398925,1.02475 -1.870886,1.496711 -0.257207,0.257204 -0.415931,0.669505 -0.748356,0.935443 -0.243485,0.194788 -0.488907,0.388302 -0.748352,0.561265 -0.16409,0.109392 -0.42182,0.04764 -0.561269,0.18709 -0.0986,0.0986 -0.07106,0.296825 -0.187087,0.374176 -0.155667,0.103778 -0.428974,-0.132291 -0.561266,0 -0.122494,0.122495 -0.11635,0.432353 -0.374179,0.561266 -0.05578,0.02789 -0.142991,-0.0441 -0.187087,0 -0.09373,0.09373 -0.06444,0.625703 -0.187089,0.748356 -0.0441,0.0441 -0.1592,-0.05578 -0.18709,0 -0.05578,0.111559 0.05578,0.262617 0,0.374176 -0.02789,0.05578 -0.131307,-0.02789 -0.187087,0 -0.353589,0.176795 -1.019299,0.83221 -1.309621,1.122532 -0.0441,0.0441 0.05189,0.152498 0,0.187089 -0.164087,0.109392 -0.397179,0.0777 -0.561266,0.18709 -0.116028,0.07735 -0.08848,0.275571 -0.187089,0.374176 0.01868,0.370634 -0.275572,0.08849 -0.374177,0.18709 -0.0441,0.04409 0,0.124724 0,0.187087 -0.06236,0.124727 -0.08848,0.275574 -0.187089,0.374179 -0.0441,0.04409 -0.142992,-0.0441 -0.187087,0 -0.450522,0.450519 -0.476242,1.32666 -0.748356,1.870884 -0.148095,0.296193 -0.563835,0.471578 -0.748355,0.748356 -0.528492,0.792736 -0.855575,1.042664 -1.496708,1.683798 -0.0441,0.0441 0.04409,0.142991 0,0.187089 -0.0441,0.0441 -0.142992,-0.0441 -0.18709,0 -0.108437,0.108437 -0.265742,0.639919 -0.374176,0.748355 -0.177205,0.177205 -0.690549,0.50346 -0.935445,0.748353 -0.11494,0.114943 -0.123598,0.435978 -0.374176,0.561266 -0.32203,0.161015 -1.106104,-0.0041 -1.870888,0.18709 -0.08556,0.02138 -0.10342,0.159199 -0.187089,0.187089 -0.506982,0.168995 -1.018178,0.134911 -1.496708,0.374177 -0.199562,0.09978 -0.548794,-0.09978 -0.748356,0 -0.255442,0.127722 -1.476944,0.354412 -1.496708,0.374176 -0.122494,0.122494 -0.116351,0.432353 -0.374176,0.561269 -0.111559,0.05578 -0.285983,-0.0882 -0.37418,0 -0.0441,0.04409 0.0441,0.142991 0,0.187086 -0.143615,0.143616 -0.58897,0.107397 -0.748355,0.18709 -0.124725,0.06236 -0.07106,0.296825 -0.187087,0.374176 -0.120748,0.0805 -0.667329,0.293153 -0.748355,0.374179 -0.08819,0.08819 0.08819,0.285983 0,0.374177 -0.0441,0.0441 -0.142992,-0.0441 -0.18709,0 -0.09065,0.09065 -0.978728,1.281006 -1.122532,1.496709 -0.219204,0.328809 -0.13354,0.881895 -0.374176,1.122532 -0.0441,0.0441 -0.1592,-0.05578 -0.18709,0 -0.05578,0.111558 0.03944,0.255852 0,0.374177 -0.134511,0.403537 -0.371549,0.930189 -0.561265,1.309621 -0.249021,0.498045 0.177715,1.337739 0,1.870887 -0.05578,0.167337 -0.295294,0.21641 -0.374177,0.374177 -0.22416,0.448319 0.418396,4.061518 0.561266,4.490128 0.03944,0.118325 0.285983,-0.08819 0.374176,0 0.0441,0.0441 -0.04409,0.142991 0,0.187089 0.207571,0.207571 0.759802,0.572711 0.935445,0.748354 0.0441,0.0441 0,0.124726 0,0.187089 0.06236,0.06236 0.113705,0.138167 0.187087,0.187089 0.116028,0.07735 0.296826,0.07106 0.374179,0.187088 0.05333,0.08 0.236429,0.797697 0.374177,0.935444 0.0441,0.0441 0.142991,-0.0441 0.187089,0 0.08649,0.08648 -0.05648,0.448307 0,0.561266 0.177488,0.354975 0.315013,0.06876 0.374177,0.187088 0.05578,0.111558 -0.05578,0.26262 0,0.374178 0.02789,0.05578 0.142991,-0.0441 0.187089,0 0.08819,0.08819 -0.05578,0.262619 0,0.374177 0.100558,0.201114 0.290669,0.352496 0.374177,0.561266 0.135236,0.338089 0.0857,1.528097 0,1.870887 -0.04716,0.18866 -0.467681,1.964389 -0.561266,2.057975 -0.0441,0.044097 -0.142992,-0.044097 -0.18709,0 -0.136869,0.1368714 0.06146,0.7510537 0,0.9354434 -0.215818,0.6474579 -0.534823,1.2302982 -0.748353,1.8708867 -0.03944,0.1183251 0.08819,0.2859828 0,0.3741772 -0.0441,0.044097 -0.142991,-0.044097 -0.187089,0 -0.151458,0.1514583 0,1.2587555 0,1.4967093 0,2.307427 0,4.61485383 0,6.9222807 0,0.2784072 -0.02609,3.3415197 0,3.3675959 0.0441,0.044097 0.142991,-0.044097 0.187089,0 0.08648,0.086484 -0.05648,0.4483069 0,0.5612662 0.174416,0.3488328 0.439492,0.75721 0.561266,1.1225318 0.05916,0.1774881 -0.08367,0.3939289 0,0.5612662 0.193056,0.3861136 0.612775,0.7157963 0.748353,1.1225318 0.175787,0.5273558 0.644565,1.9541848 0.935445,2.2450638 0.0986,0.09861 0.275571,0.08849 0.374176,0.187089 0.0882,0.08819 -0.05578,0.262619 0,0.374177 0.161425,0.32285 1.34089,1.02925 1.496711,1.49671 0.176678,0.530035 0.382008,1.032904 0.935443,1.30962 0.250578,0.125289 0.259236,0.446324 0.374176,0.561266 0.0882,0.08819 0.285983,-0.08819 0.374179,0 0.04409,0.0441 -0.0441,0.142992 0,0.187089 0.253346,0.253347 2.572602,0.08189 2.993419,0.187089 0.796139,0.199035 2.083618,0.361355 2.80633,0 0.05578,-0.02789 -0.0441,-0.142992 0,-0.187089 0.08819,-0.08819 0.262617,0.05578 0.374176,0 0.210375,-0.105187 0.339651,-0.487394 0.561266,-0.561266 0.376153,-0.125384 0.89327,-0.102743 1.122532,-0.561266 0.02789,-0.05578 -0.0441,-0.142991 0,-0.187089 0.730157,-0.730157 0.100475,0.04331 0.561266,-0.187088 0.778618,-0.389309 -0.200004,0.01292 0.187089,-0.374178 0.108437,-0.108436 0.639919,-0.265741 0.748356,-0.374177 0.0441,-0.0441 -0.0441,-0.142992 0,-0.187089 0.243982,-0.243984 2.119331,-0.248444 2.806329,-0.935443 0.136345,-0.136345 0.189648,-0.563825 0.374176,-0.748355 0.360344,-0.360343 1.0076,-0.82051 1.309622,-1.122532 0.06236,-0.06236 0.124724,-0.498903 0.187089,-0.561266 0.108435,-0.108436 0.639916,-0.265741 0.748353,-0.374177 0.0986,-0.0986 0.08848,-0.2755728 0.18709,-0.3741772 0.516818,-0.5168178 1.518982,-0.9799897 1.870886,-1.683798 0.02789,-0.055779 -0.0441,-0.1429917 0,-0.1870887 0.172063,-0.1720628 0.760836,-0.3991404 0.935444,-0.7483547 0.08476,-0.169519 0.582954,-0.7700433 0.748354,-0.9354433 0.584585,-0.5845853 1.828419,-1.2246856 2.245064,-2.0579755 0.05578,-0.1115581 -0.05578,-0.262619 0,-0.3741772 0.0018,-0.00364 0.559447,-0.3705381 0.561266,-0.3741774 0.05578,-0.1115581 -0.03025,-0.2531756 0,-0.3741772 0.107551,-0.4302047 0.560275,-0.746372 0.748355,-1.1225321 0.462024,-0.9240476 0.861319,-1.77205356 1.496709,-2.61924136 0.256006,-0.34134044 0.698858,-0.58056534 0.935444,-0.93544334 0.03459,-0.051889 -0.0441,-0.1429914 0,-0.1870887 0.0441,-0.044097 0.142991,0.044097 0.187088,0 0.04059,-0.040595 0.150613,-0.3559391 0.187089,-0.3741773 0.919102,-0.459551 1.268416,0.894239 2.057975,1.68379801 0.0441,0.0440972 0.152496,-0.0518891 0.187089,0 0.286117,0.42917478 0.278036,0.80898628 0.748355,1.12253198 0.541682,0.36112182 0.970259,0.72769481 1.496709,1.12253201 0.183034,0.1372758 0.559023,0.092423 0.748355,0.1870887 0.05578,0.027889 -0.02789,0.1313096 0,0.1870886 0.158012,0.3160247 0.496189,0.1220123 0.748354,0.3741774 0.0441,0.044097 -0.0441,0.1429914 0,0.1870886 0.376452,0.3764521 1.304226,0.7429593 1.6837982,1.1225321 0.2331096,0.2331093 0.4305967,0.9829472 0.5612662,1.3096206 0.20354,0.5088501 0.5891247,0.8319312 0.7483546,1.3096208 0.056127,0.1683798 -0.056127,0.3928861 0,0.5612659 0.2626344,0.7879032 0.229579,1.2075128 0.5612659,1.8708867 0.1247259,0.2494516 -0.1247256,0.6859918 0,0.9354434 0.1350585,0.2701168 0.2391191,0.4782382 0.3741775,0.7483542 0.074835,0.149671 -0.074836,0.411595 0,0.561266 0.3587337,0.717468 0.5612659,1.028955 0.5612659,1.870887 0,1.559072 0,3.118144 0,4.677217 0,0.59638 0.022561,1.474148 0,1.496709 -0.062363,0.06236 -0.098894,-0.187089 -0.1870887,-0.187089 -0.062363,0 0,0.249452 0,0.187089 0,-1.071743 0.3250586,-1.772649 0.7483546,-2.619241 0.08168,-0.163359 0.2646212,-5.708732 0.1870887,-6.173926 C -6.197212,10.150168 -6.7890992,8.4316736 -6.9222807,8.2319012 -6.9036038,7.8612679 -7.1978535,8.1434172 -7.2964579,8.0448128 -7.5455731,7.7956975 -7.638635,7.0638254 -7.8577241,6.735192 -7.9200869,6.6728292 -7.9824497,6.6104663 -8.0448128,6.5481032 c -0.062363,0 -0.1429914,0.044097 -0.1870884,0 C -8.3713491,6.4086557 -8.3006649,6.1446044 -8.41899,5.9868373 -8.7138726,5.5936604 -9.0734003,5.2858548 -9.3544333,4.8643053 -9.5164528,4.6212759 -9.7627873,3.8946854 -9.9156992,3.7417734 -10.137411,3.5200621 -10.52713,3.317431 -10.664054,3.1805073 -10.77249,3.072071 -10.929795,2.540589 -11.038231,2.4321527 c -0.0882,-0.088195 -0.285983,0.088194 -0.374178,0 -0.09354,-0.093544 -0.09354,-0.280633 -0.187088,-0.3741774 -0.139986,-0.1399858 -0.571466,-0.098644 -0.748355,-0.1870886 -0.05578,-0.02789 0.0441,-0.1429915 0,-0.1870887 -0.384414,-0.3844138 -1.156793,-0.4084386 -1.496709,-0.74835467 -0.0441,-0.0440972 0,-0.12472577 0,-0.18708867 -0.06236,-0.0623629 -0.113707,-0.13816719 -0.187089,-0.18708867 -0.164088,-0.10939174 -0.421818,-0.047641 -0.561266,-0.18708865 -0.0441,-0.0440972 0.0441,-0.14299145 0,-0.18708867 -0.08819,-0.08819445 -0.285983,0.0881944 -0.374177,0 -0.0441,-0.0440972 0.0441,-0.14299145 0,-0.18708867 -0.267555,-0.26755489 -0.869108,-0.55828615 -1.122532,-0.74835466 -0.504051,-0.37803774 -0.929238,-1.21297354 -1.49671,-1.49670934 -0.69533,-0.3476649 -0.579203,1.027701 -0.748354,1.30962067 -0.561266,0.93544333 -0.187089,0 -0.561266,0.56126599 -0.25797,0.3869545 -0.242973,0.72891617 -0.374178,1.122532 -0.05578,0.16733721 -0.276334,0.22741292 -0.374177,0.37417734 -0.278939,0.4184087 -0.414397,1.1627517 -0.748355,1.4967093 -0.0441,0.044097 -0.142991,-0.044097 -0.187088,0 -0.1313,0.1312998 -0.106276,0.6271356 -0.187089,0.7483547 -0.07735,0.1160274 -0.275573,0.088484 -0.374177,0.1870887 -0.0986,0.098604 -0.08848,0.2755728 -0.187089,0.3741772 -0.08819,0.088195 -0.249452,0 -0.374177,0 -0.555884,0 -1.329072,0.1354537 -1.870887,0 C -24.091199,3.7993552 -24.567686,3.5684743 -25.069881,3.367596 -26.236221,2.9010602 -27.349656,2.6018854 -28.437477,2.0579753 -28.629329,1.962049 -28.993981,1.966813 -29.185833,1.8708867 -29.605835,1.6608854 -30.073359,1.333579 -30.495454,1.122532 -30.705827,1.0173448 -30.835102,0.63513792 -31.05672,0.56126599 -31.477767,0.42091686 -31.9908,0.25035901 -32.366339,0 c -0.351528,-0.23435226 -0.367424,-0.55451089 -0.561265,-0.74835466 -0.136925,-0.13692367 -0.526646,-0.33955484 -0.748356,-0.56126604 -0.06236,-0.062363 -0.124727,-0.4989031 -0.187089,-0.561266 -0.09354,-0.093544 -0.280633,-0.093544 -0.374177,-0.1870886 -0.130982,-0.1309826 -0.277818,-0.7427237 -0.374176,-0.9354435 0.649877,-1.4664105 -0.442942,-0.3246154 -0.561266,-0.5612659 -0.05578,-0.1115581 0.03944,-0.2558521 0,-0.3741772 -0.086,-0.2579912 -0.438248,-0.8764926 -0.561269,-1.1225321 -0.409715,-0.8194333 -1.023543,-1.7610132 -1.309618,-2.6192413 -0.219702,-0.6591012 -0.05576,-3.6302587 0.187087,-4.1159507 0.153746,-0.307491 0.697113,-0.294734 0.935444,-0.374177 0.521738,-0.173913 1.560164,-0.998899 1.870888,-1.309621 0.124896,-0.124898 0.272013,-1.207458 0.374176,-1.309621 0.232214,-0.232214 0.422595,-0.235506 0.561266,-0.374177 0.06236,-0.06236 0.124725,-0.498903 0.18709,-0.561266 0.0441,-0.0441 0.142991,0.0441 0.187086,0 0.220266,-0.220265 -1.480267,-1.879107 -1.870884,-1.683798 -0.05578,0.02789 0.04409,0.142991 0,0.187089 -0.0986,0.0986 -0.275574,0.08848 -0.374179,0.187088 -0.619088,0.619089 -0.374177,3.457918 -0.374177,4.490128 0,0.320304 -0.109661,-0.5935 -0.374179,-1.122532 -0.03249,-0.06498 0.149405,-2.394467 0.18709,-2.432152 0.0441,-0.0441 0.142991,0.0441 0.187089,0 0.08819,-0.08819 -0.0882,-0.285983 0,-0.374178 0.09354,-0.09354 0.280633,-0.09354 0.374177,-0.187088 0.0441,-0.0441 -0.0441,-0.142992 0,-0.187089 0.09355,-0.09354 0.280633,-0.09354 0.374179,-0.187089 0.04409,-0.0441 -0.0441,-0.142991 0,-0.187088 0.05418,-0.05418 1.255442,-0.05418 1.309619,0 0.393165,0.393164 0.559569,1.500104 0.187089,2.245064 -0.05578,0.111558 0.08819,0.285983 0,0.374177 -0.08819,0.08819 -0.285983,-0.08819 -0.374176,0 -0.09866,0.09866 -0.177142,0.429908 -0.374179,0.561266 -0.103778,0.06919 -0.262618,-0.05578 -0.374177,0 -0.05578,0.02789 0.0441,0.142992 0,0.187089 -0.0986,0.0986 -0.258151,0.109737 -0.374176,0.187088 -0.431813,0.287875 -0.900959,0.782839 -0.935445,0.748355 -0.04952,-0.04952 0,-0.48423 0,-0.561266 0,-0.69323 -0.217194,-1.780572 0,-2.432153 0.02789,-0.08367 0.147648,-0.108205 0.187089,-0.187088 0.05578,-0.111558 -0.05578,-0.26262 0,-0.374178 0.130122,-0.260246 0.61073,-0.79782 0.748356,-0.935443 0.355296,-0.355297 1.126821,0.378467 1.309619,0.561266 0.348911,0.34891 0.741531,0.734708 0.935444,1.122532 0.125289,0.250578 0.446323,0.259235 0.561266,0.374177 0.0441,0.0441 0,0.124726 0,0.187089 0.124725,0.124726 0.222925,0.283426 0.374177,0.374177 0.641217,0.384731 1.171371,0.655638 1.870887,0.935444 0.378947,0.151579 0.0634,0.499422 0.561266,0.748354 0.750128,0.375064 0.0038,-0.618614 0.748355,0.374178 0.381834,0.509113 1.64623,1.511587 2.245063,1.870886 0.385887,0.231533 0.754469,0.285219 1.122532,0.561266 0.211667,0.15875 0.31026,0.4775978 0.561266,0.5612662 0.118326,0.039442 0.2704,-0.069185 0.374178,0 0.187088,0.1247259 0.187088,0.4365403 0.374177,0.5612662 0.484726,0.3231504 1.275314,0.5269598 1.683798,0.9354434 0.454401,0.4544012 -0.05563,0.274725 0.374177,0.5612659 0.09422,0.4121869 0.384877,0.098894 0.561266,0.1870887 0.250578,0.1252889 0.259236,0.446324 0.374178,0.5612659 0.03029,0.030292 0.549927,0.1644113 0.561266,0.1870887 0.05578,0.1115581 -0.05578,0.2626191 0,0.3741772 0.0799,0.1597935 0.37389,0.093401 0.561266,0.1870887 0.02515,0.012578 0.434189,0.6212782 0.561266,0.7483547 0.387093,0.3870931 -0.01513,-0.5915295 0.374177,0.1870887 0.02789,0.055779 -0.0441,0.1429914 0,0.1870887 0.08819,0.088194 0.285983,-0.088194 0.374177,0 0.03792,0.037923 0.284004,0.6514394 0.561266,0.3741772 0.125274,-0.1252733 1.095251,-1.4285052 1.122532,-1.4967093 0.201078,-0.5026935 0.222393,-1.0448776 0.561266,-1.4967092 0.279556,-0.3727416 0.448052,-0.2954991 0.561266,-0.7483547 0.103979,-0.4159162 0.05498,-0.726192 0.187089,-1.1225321 0.05578,-0.167337 0.295294,-0.2164103 0.374177,-0.3741771 0.538318,-1.0766358 1.007546,-2.1661288 1.683798,-3.1805078 0.171613,-0.257419 -0.0026,-0.558619 0.187089,-0.748354 0.06495,-0.06495 1.177691,1.012214 1.122532,1.122532 -0.268287,0.536573 -1.498473,1.120768 -0.748355,1.870886 0.01943,0.01943 2.25546,0.256382 2.432153,0.374178 0.1467644,0.09784 0.2104044,0.308668 0.3741772,0.374177 0.2064107,0.08256 1.0836651,0.2259558 1.1225321,0.1870888 0.4436131,-0.4436128 0.2000472,-1.3484968 0.3741775,-1.8708868 0.071105,-0.213314 0.3196425,-0.343127 0.3741771,-0.561266 0.1587537,-0.635015 0.1584066,-1.410662 0.3741775,-2.057975 0.2468343,-0.740504 0.5659104,-1.328199 0.7483546,-2.057976 -0.1127635,-0.338619 0.3030728,-0.347952 0.3741772,-0.561266 0.4824616,-1.447385 0.8101095,-2.991594 1.3096208,-4.490128 0.1309622,-0.392886 0.4303041,-0.729645 0.5612659,-1.122532 0.068184,-0.204552 0.052634,-0.800988 0.1870888,-0.935443 0.044097,-0.0441 0.1870887,0.06236 0.1870887,0 0,-0.249451 -0.5022972,0.04101 -0.7483547,0 -0.5531839,-0.0922 -1.5856965,-0.433502 -2.0579754,-0.748355 -0.1059892,-0.07066 0,-1.214062 0,-1.30962 0,-0.768251 -0.027085,-2.966334 0.3741775,-3.367596 0.044097,-0.0441 0.1429914,0.0441 0.1870884,0 0.2649604,-0.264962 0,-2.061535 0,-2.432153 0,-0.124725 0.088195,-0.285983 0,-0.374177 -0.2284785,-0.228478 -1.8937322,-0.946867 -2.2450639,-1.122531 -0.1129591,-0.05648 -0.4747815,0.08648 -0.5612659,0 -0.044097,-0.0441 0.044097,-0.142992 0,-0.18709 -0.1593353,-0.159335 -0.5958403,-0.256238 -0.7483546,-0.561266 -0.05648,-0.112958 0.086484,-0.474781 0,-0.561266 -0.1040368,-0.104037 -0.4316278,-0.30199 -0.5612658,-0.561266 -0.05669,-0.113387 -0.108691,-0.482867 -0.187089,-0.561266 -0.232215,-0.232214 -0.422596,-0.235508 -0.561266,-0.374179 -0.08819,-0.08819 0.08819,-0.285982 0,-0.374176 -0.06236,-0.06236 -0.249452,-0.124725 -0.187089,-0.18709 0.118673,-0.11867 0.592587,0.07789 0.748355,0 1.2630209,-0.63151 0.9529044,-0.06818 2.4321528,-0.561265 0.4411334,-0.147043 0.6870057,-0.416089 1.1225318,-0.561266 0.1183253,-0.03944 0.2859831,0.0882 0.3741774,0 0.044097,-0.0441 -0.044097,-0.142992 0,-0.187087 0.1850536,-0.185055 4.6979341,-0.935445 5.4255713,-0.935445 0.2979221,0 1.68128289,-0.189603 1.87088669,0 0.80782301,0.807823 0.37417734,3.700399 0.37417734,4.864306 0,1.912956 0.11120087,3.8124 0.56126597,5.612659 0.09289,0.37156 -0.2319069,1.638981 0,1.870888 0.044097,0.0441 0.1429915,-0.0441 0.1870887,0 0.1037952,0.103795 0.1061235,0.960601 0.1870887,1.122532 0.078883,0.157767 0.3183982,0.20684 0.3741773,0.374177 0.2130052,0.639016 0.4456633,1.078415 0.7483548,1.683798 0.027889,0.05578 0,0.124726 0,0.187089 0,0.124725 -0.055779,0.262619 0,0.374177 0.027889,0.05578 0.1429914,-0.0441 0.1870885,0 0.08184,0.08184 0.1034486,1.0587 0.1870887,1.309621 0.055779,0.167337 0.3183982,0.20684 0.3741774,0.374177 0.1110184,0.333055 0.07607,0.789477 0.1870885,1.122532 0.1020254,0.306076 0.4097695,0.63245 0.5612662,0.935443 0.1803119,0.360625 0.0067,0.948849 0.1870887,1.309621 0.4109215,0.821843 0.6453672,1.749013 0.9354431,2.619241 0.1299848,0.389954 0.055389,0.91452 0.1870887,1.309621 0.055779,0.167337 0.2952938,0.21641 0.3741775,0.374177 0.1115581,0.223116 -0.060501,0.506351 0,0.748355 0.021392,0.08556 0.1656982,0.101527 0.1870887,0.187089 0.045375,0.181502 -0.059163,0.383778 0,0.561266 0.019722,0.05916 0.1429914,-0.0441 0.1870884,0 0.086484,0.08648 -0.05648,0.448307 0,0.561266 0.078884,0.157767 0.2952941,0.21641 0.3741775,0.374177 0.1778987,0.355797 0.06938,0.7694071 0.1870887,1.1225319 0.108929,0.3267869 0.4698696,0.4741657 0.5612659,0.7483547 0.2549975,0.7649927 0.8734065,1.9959386 1.4967093,2.6192413 0.3080094,0.3080094 0.6966929,0.4579422 0.9354434,0.9354434 0.256907,0.5138134 0.990836,0.8314436 1.309621,1.3096208 0.154062,0.2310942 0.365958,0.9272238 0.561266,1.1225318 0.387093,0.3870932 -0.01513,-0.5915295 0.374177,0.1870888 0.284007,0.5680127 -0.205835,0.9729364 -0.374177,1.3096206 -0.05578,0.1115582 0.08819,0.2859829 0,0.37417737 -0.09355,0.0935443 -0.280633,0.0935443 -0.374178,0.18708867 -0.132291,0.13229166 0.103779,0.40559881 0,0.56126599 C 11.522146,-0.0710612 11.323924,-0.09860439 11.22532,0 c -0.217312,0.21731202 -0.224134,0.82244535 -0.374177,1.122532 -0.132771,0.2655415 0.0238,3.9526591 0.187088,4.1159507 0.198202,0.1982015 0.835758,0.1870887 1.122532,0.1870887 0.249452,0 0.571966,0.1763887 0.748355,0 0.592015,-0.5920155 -0.2267,-2.1658418 0.187089,-2.9934187 0.15745,-0.3149015 0.187088,-0.3636288 0.187088,-0.7483547 0,-0.1141694 0.0729,-0.6754578 0,-0.74835467 -0.09354,-0.0935443 -0.467721,0.0935444 -0.561266,0 -0.122493,-0.12249319 -0.116349,-0.43235226 -0.374177,-0.56126599 -0.05578,-0.0278895 -0.142992,0.0440972 -0.187089,0 -0.06368,-0.0636776 -0.04652,-1.0294945 0,-1.122532 0.07888,-0.15776702 0.295294,-0.21641033 0.374178,-0.37417734 0.07743,-0.1548566 0.187088,-1.1113263 0.187088,-1.3096207 0,-0.065619 -0.07157,-0.8638685 0,-0.9354433 0.153452,-0.1534512 0.326242,-0.1391526 0.561266,-0.3741774 0.277697,-0.2776961 0.190295,-0.3757806 0.561266,-0.5612659 0.111559,-0.055779 0.285983,0.088194 0.374178,0 0.02166,-0.021659 0.741039,-0.9317858 0.748354,-0.9354434 0.111559,-0.055779 0.255852,0.039442 0.374178,0 0.583963,-0.1946545 -0.06236,-0.1247256 0.187088,-0.3741772 0.205654,-0.2056543 1.032964,-0.04876 1.309621,-0.1870887 0.05578,-0.027889 -0.05578,-0.1591993 0,-0.1870887 0.111558,-0.055779 0.255852,0.039442 0.374177,0 0.294206,-0.098069 0.636779,-0.4617112 0.935444,-0.5612659 1.28992,-0.4299736 1.945691,-1.0975454 2.80633,-2.2450642 0.140316,-0.1870887 0.467721,-0.3741772 0.561266,-0.5612659 0.121324,-0.2426478 0.164374,-0.9127287 0.374177,-1.1225317 0.0986,-0.09861 0.296826,-0.07106 0.374177,-0.187089 0.158924,-0.238385 0.04959,-0.847536 0.187089,-1.122532 0.13775,-0.275499 0.248227,-0.248227 0.374177,-0.374177 0.06236,-0.06236 0.124726,-0.498903 0.187089,-0.561266 0.0441,-0.0441 0.142991,0.0441 0.187089,0 0.08819,-0.0882 -0.03944,-0.255852 0,-0.374178 0.165423,-0.49627 0.429296,-0.78174 0.561266,-1.30962 0.319981,-1.279926 0.32412,-2.893304 0.935443,-4.115951 0.26193,-0.523861 -0.138819,-1.502698 0,-2.057975 0.08887,-0.35546 0.07446,-1.645629 0.187089,-1.870887 0.236977,-0.473956 0.04009,-0.534542 0.187088,-1.122532 0.02139,-0.08556 0.147647,-0.108205 0.187089,-0.187089 0.221442,-0.442884 0.03991,-1.055166 0.187089,-1.496709 0.02789,-0.08367 0.169792,-0.100607 0.187088,-0.187089 0.102134,-0.51067 0.06262,-0.998813 0.187089,-1.49671 0.22586,-0.903441 0.08891,0.0093 0.374177,-0.561266 0.193162,-0.386323 0.245214,-0.922729 0.374177,-1.309619 0.13734,-0.412017 0.556876,-0.926663 0.748355,-1.309621 0.05578,-0.111559 -0.08819,-0.285983 0,-0.374179 0.09354,-0.09354 0.280633,-0.09354 0.374177,-0.187087 0.0882,-0.0882 -0.05578,-0.26262 0,-0.374179 0.202483,-0.404966 0.542081,-0.70998 0.748355,-1.122532 0.137943,-0.275886 -0.01595,-1.106574 0.18709,-1.309618 0.0441,-0.0441 0.142991,0.04409 0.187087,0 0.118673,-0.118674 -0.07788,-0.592588 0,-0.748356 0.4064,-0.8128 -0.03222,0.438624 0.374179,-0.374176 0.05648,-0.112961 -0.08648,-0.474782 0,-0.561266 0.0441,-0.0441 0.142991,0.04409 0.187086,0 0.0882,-0.0882 -0.03944,-0.255852 0,-0.374179 0.116346,-0.349031 0.23303,-0.466053 0.37418,-0.748356 0.05648,-0.112958 -0.08648,-0.474781 0,-0.561265 0.0986,-0.0986 0.296825,-0.07106 0.374176,-0.187087 0.141973,-0.212958 0.248745,-1.058757 0.374179,-1.309622 0.389308,-0.778618 -0.01291,0.200004 0.374176,-0.187089 0.8133,-0.8133 -0.8133,0.439123 0,-0.374177 0.113163,-0.113162 0.642268,-0.349093 0.748356,-0.561265 0.426233,-0.852469 1.225182,-1.514925 1.683797,-2.432154 0.14327,-0.286541 0.333394,-0.146306 0.561266,-0.374176 0.114605,-0.114607 0.159272,-0.489633 0.374177,-0.561266 0.118324,-0.03944 0.26262,0.05578 0.374176,0 0.06771,-0.03386 0.674201,-0.974225 0.748356,-1.122532 0.05578,-0.111559 -0.03944,-0.255852 0,-0.374179 0.209354,-0.628057 0.557175,-1.29735 0.748355,-1.870884 0.113525,-0.34058 -0.04868,-0.96887 0,-1.309622 0.100999,-0.706993 0.207642,-1.39184 0.374176,-2.057977 0.102717,-0.41086 -0.102713,-0.898757 0,-1.309618 0.27032,-1.081273 0.623999,-2.18344 1.122532,-3.180509 0.302586,-0.605168 0.205198,-1.523873 0.561266,-2.057974 0.09784,-0.146764 0.276336,-0.227415 0.374179,-0.374179 0.154178,-0.231267 0.120814,-0.670354 0.187087,-0.935442 0.190312,-0.761246 0.781812,-1.476899 0.935445,-2.245064 0.03669,-0.183457 -0.05916,-0.383778 0,-0.561266 0.01971,-0.05916 0.1592,0.05578 0.187087,0 0.27849,-0.556977 0.0288,-0.834742 0.187089,-1.309621 1.157455,-3.472363 0.407602,-7.042526 -1.122531,-10.102789 -0.136983,-0.273966 -0.09299,-0.653135 -0.18709,-0.935442 -0.128754,-0.386268 -0.403627,-0.433078 -0.561266,-0.748356 -0.05578,-0.111559 0.03944,-0.255852 0,-0.374176 -0.0876,-0.262792 -0.789284,-1.212183 -0.935442,-1.309622 -1.387951,-0.9253 -3.956373,-0.935442 -5.612659,-0.935442 -0.250055,0 -1.046644,0.131487 -1.309622,0 -0.600847,-0.300424 -0.67732,-0.461219 -1.309621,-0.935445 -0.09458,-0.07093 -0.6976,-0.136332 -0.748355,-0.187087 -0.155906,-0.155908 -0.218268,-0.40536 -0.374177,-0.561266 -0.272386,-0.272388 -1.206195,-0.270756 -1.496709,-0.561266 -0.0441,-0.0441 0.05578,-0.159199 0,-0.187089 -0.176389,-0.08819 -0.374177,-0.124727 -0.561266,-0.18709 -0.179669,-0.05989 -0.568795,0.08978 -0.748355,0 -1.628369,-0.814183 -4.749077,-0.374176 -6.735192,-0.374176 -0.546994,0 -0.979502,-0.01468 -1.496709,-0.187089 -0.319098,-0.106366 -6.059932,0.273817 -6.361015,0.374179 -0.08367,0.02789 -0.10342,0.159197 -0.187088,0.187086 -0.2958135,0.09861 -0.6329392,-0.07563 -0.9354437,0 -0.085561,0.02138 -0.108205,0.147649 -0.1870887,0.18709 -0.1115581,0.05578 -0.2859828,-0.08819 -0.3741772,0 -0.044097,0.0441 0.055779,0.1592 0,0.187089 -0.1673373,0.08367 -0.4289745,-0.132291 -0.5612662,0 -0.044097,0.0441 0.044097,0.142992 0,0.187087 -0.088194,0.0882 -0.262619,-0.05578 -0.3741771,0 -0.3394713,0.169736 -1.0284746,0.46721 -1.3096209,0.748356 -0.2970307,0.297032 -0.5109257,0.723185 -0.9354433,0.935442 -0.1115581,0.05578 -0.2859828,-0.08819 -0.3741772,0 -0.1256072,0.125608 -0.452251,0.600303 -0.7483546,0.748355 -0.1115582,0.05578 -0.2859829,-0.08819 -0.3741775,0 -0.1247256,0.124725 -0.062363,0.436542 -0.1870887,0.561266 -0.098604,0.0986 -0.2755728,0.08848 -0.3741772,0.18709 -0.3067881,0.306787 -0.3801078,0.947303 -0.5612659,1.309619 -0.157639,0.31528 -0.4325105,0.362087 -0.5612661,0.748355 -0.039442,0.118327 0.088194,0.285983 0,0.374179 -0.044097,0.0441 -0.1591992,-0.05578 -0.1870887,0 -0.3150477,0.630095 -0.6306808,3.15935 -0.3741773,3.928861 0.354927,1.064782 1.4967093,0.486903 1.4967093,2.245064 0,0.166018 0.084773,0.765897 0,0.935442 -0.1441056,0.288214 -0.2193518,0.951577 -0.5612659,1.122532 -0.3248187,0.162409 -1.4446451,-0.800417 -1.87088677,-0.374176 -0.0937317,0.09373 -0.064437,0.625702 -0.18708867,0.748355 -0.0440972,0.0441 -0.15919913,-0.05578 -0.18708867,0 -0.3305168,0.661033 0.1458773,1.766221 -0.18708865,2.432153 -0.1980638,0.396127 8.0963e-4,0.933826 -0.18708867,1.309619 C -0.01088129,-59.659522 0.1139141,-59.575675 0,-59.120018 c 0.33879033,0.782733 -0.29529383,0.216411 -0.37417734,0.374176 -0.11452582,0.229053 0.081197,0.691854 0,0.935443 -0.39992869,1.199787 -0.30089896,2.472684 -0.93544336,3.741774 -0.2339659,0.467932 0.043034,1.223553 -0.1870886,1.683798 -0.1089673,0.217935 -0.2652101,0.343331 -0.3741774,0.561266 -0.2247431,0.449487 0.1605354,1.202192 0,1.683798 -0.4942905,1.482873 -0.2779651,5.430908 0.3741774,6.735193 0.074835,0.14967 -0.074836,0.411594 0,0.561266 0.1617234,0.323445 0.4662221,0.742355 0.56126597,1.122532 0.0397764,0.159104 0.36388103,2.224471 0.37417734,2.245064 0.0278895,0.05578 0.12472577,0 0.18708865,0 0.0623629,0.124724 0.15326765,0.238892 0.18708867,0.374176 0.13189698,0.52759 -0.0442374,1.639562 0.37417734,2.057977 0.0440972,0.04409 0.14299144,-0.0441 0.18708867,0 0.0440972,0.04409 -0.0557791,0.159197 0,0.187087 0.11155813,0.05578 0.2626192,-0.05578 0.37417732,0 0.023136,0.01156 0.35396174,0.551158 0.37417734,0.561265 0.1115581,0.05578 0.2558521,-0.03944 0.3741773,0 0.2967758,0.09893 0.38554,0.57263 0.561266,0.748356 0.4896159,0.489617 1.4571426,1.109342 2.0579753,1.309621 0.9618792,0.320628 6.3205534,0.664925 7.4835464,0.374177 0.351099,-0.08777 0.645401,-0.229156 0.935444,-0.374177 0.06201,-0.031 1.932471,-0.296029 2.245064,-0.374176 0.956232,-0.239059 2.072363,-1.12613 2.80633,-1.309622 0.880872,-0.220218 0.626335,-0.406712 1.30962,-0.748355 0.249126,-0.124563 0.658522,-0.117859 0.935444,-0.187089 0.714271,-0.178568 1.395756,-0.978512 2.057975,-1.309619 0.4339,-0.216951 0.743926,-0.247976 1.122532,-0.374179 0.167337,-0.05578 0.227413,-0.276334 0.374177,-0.374177 0.187089,-0.124727 0.360152,-0.273621 0.561266,-0.374176 0.111558,-0.05578 0.285983,0.08819 0.374178,0 0.0441,-0.0441 -0.0441,-0.142991 0,-0.187089 0.229236,-0.229238 0.815132,-0.374177 1.122532,-0.374177 0.496993,0 0.57425,-0.470969 0.935443,-0.561266 0.890956,-0.222739 0.511205,0.02503 1.30962,-0.374179 0.347689,-0.173844 0.937646,0.123992 1.309621,0 0.272143,-0.09071 0.476213,-0.283461 0.748356,-0.374176 0.394054,-0.131353 0.943535,-0.004 1.309621,-0.18709 0.778616,-0.389308 -0.200007,0.01291 0.187087,-0.374176 0.123301,-0.123301 0.250878,0.123301 0.374179,0 0.387093,-0.387093 -0.591532,0.01513 0.187087,-0.374179 0.32027,-0.160134 2.310201,-1.814071 2.432153,-2.057974 0.191852,-0.383707 0.690478,-1.316347 0.935442,-1.683798 0.09785,-0.146764 0.3184,-0.206841 0.374179,-0.374176 0.361654,-1.084961 0.455372,-4.140653 0,-5.051396 -0.124478,-0.248955 -0.492948,-0.237538 -0.561266,-0.374177 -0.05578,-0.111559 0.05578,-0.26262 0,-0.374179 -0.0882,-0.176387 -0.42182,-0.04764 -0.561266,-0.187087 -0.114607,-0.114606 -0.159271,-0.489632 -0.374179,-0.561265 -0.118324,-0.03944 -0.255852,0.03944 -0.374176,0 -0.23213,-0.07738 -0.280384,-0.467474 -0.374177,-0.561266 -0.139369,-0.13937 -0.642643,-0.268468 -0.748355,-0.374179 -0.0441,-0.0441 0.05578,-0.159198 0,-0.187087 -0.111559,-0.05578 -0.255852,0.03944 -0.374176,0 -0.308057,-0.102688 -0.647415,-0.417251 -0.935445,-0.561266 -0.278485,-0.139245 -0.498875,-0.582036 -0.748353,-0.748356 -0.109739,-0.07316 -0.41805,-0.302567 -0.561266,-0.374176 -0.111559,-0.05578 -0.285985,0.08819 -0.374179,0 -0.114604,-0.114607 -0.159271,-0.489633 -0.374176,-0.561266 -0.118327,-0.03944 -0.262621,0.05578 -0.374179,0 -0.05578,-0.02789 0.02789,-0.13131 0,-0.187089 -0.101111,-0.202221 -0.71659,-0.617043 -0.935443,-0.748356 -0.677738,-0.406641 -1.394256,-0.790673 -2.057975,-1.122532 -0.278895,-0.139448 -0.34078,-0.527867 -0.561266,-0.748355 -0.121001,-0.120999 -0.821009,-0.297887 -0.935443,-0.374176 -0.116028,-0.07735 -0.07106,-0.296826 -0.187089,-0.374177 -0.227285,-0.151524 -0.779003,-0.404826 -0.935443,-0.561266 -0.0441,-0.0441 0.0441,-0.142991 0,-0.187089 -0.77439,-0.774391 0.02604,0.400214 -0.748355,-0.374177 -0.116452,-0.116453 -0.454617,-0.677256 -0.561266,-0.748355 -0.164088,-0.109392 -0.384877,-0.09889 -0.561266,-0.18709 -0.224506,-0.112252 -0.33676,-0.449011 -0.561266,-0.561266 -0.284366,-0.142181 -0.867781,-0.119425 -1.122532,-0.374176 -0.0441,-0.0441 0.05578,-0.1592 0,-0.187089 -0.374177,-0.18709 -0.280633,0.09354 -0.561266,0 -0.559233,-0.18641 -1.095453,-0.227092 -1.683798,-0.374177 -0.565343,-0.141335 -1.316096,0.184931 -1.870887,0 -0.264583,-0.0882 -0.474875,-0.319482 -0.748354,-0.374179 -1.788361,-0.357672 -3.64922,0.108971 -5.4255717,-0.187087 -0.7597637,-0.126627 -1.4553964,-0.187089 -2.2450639,-0.187089 -0.2893422,0 -0.885081,0.118726 -1.1225321,0 -1.009452,-0.504727 -2.0054231,-0.935443 -3.1805072,-0.935443 -0.2113113,0 -1.1607465,-0.148875 -1.3096208,0 -0.1870886,0.187087 0,0.748353 -0.1870886,0.935443 -0.044097,0.0441 -0.1429915,-0.0441 -0.1870887,0 -0.13863663,0.138636 -0.25192148,1.561541 -0.37417734,1.683797 -0.0440972,0.0441 -0.15919913,-0.05578 -0.18708867,0 -0.2664043,0.53281 0.0993656,1.485067 -0.18708865,2.057977 -0.0278895,0.05578 -0.14299145,-0.0441 -0.18708867,0 C 0.08937499,-60.144837 0.06398378,-58.937791 0,-58.745842 c -0.05577906,0.167339 -0.31839828,0.206841 -0.37417734,0.374177 -0.15339867,0.460198 -0.18708865,0.996503 -0.18708865,1.496711 0,0.31115 -0.41327985,1.083429 -0.18708867,1.309621 0.18572215,0.185722 1.61726145,0 1.87088666,0 0.9610444,0 2.4018352,0.217405 2.8063299,-0.18709 0.3158381,-0.315838 0.5450128,-0.919188 0.9354434,-1.309621 0.098604,-0.0986 0.275573,-0.08848 0.3741774,-0.187089 0.034473,-0.03447 0.1526154,-0.526791 0.1870887,-0.561266 0.044097,-0.0441 0.1429914,0.0441 0.1870885,0 0.1559073,-0.155906 0.031182,-0.592447 0.1870887,-0.748353 0.3870931,-0.387093 -0.015131,0.591529 0.3741775,-0.18709 0.055779,-0.111558 -0.055779,-0.26262 0,-0.374176 0.068467,-0.136935 0.9394258,-0.756322 1.1225318,-1.122532 0.052064,-0.104129 0.4252841,-0.748355 0.5612662,-0.748355 0.032727,0 0.5612659,1.38512 0.5612659,1.496708 0,0.591883 0.1937252,0.955355 0.3741774,1.496711 0.066479,0.199435 -0.1118544,0.580572 0,0.748353 0.077352,0.116027 0.2755728,0.08848 0.3741772,0.187089 0.2586154,0.258617 0.2202601,1.001787 0.3741775,1.309621 0.3937558,0.787512 -0.5464284,-0.853297 0.3741771,0.374177 0.1250478,0.166732 0.2823928,0.564785 0.3741778,0.748355 0.05578,0.111559 -0.0882,0.285983 0,0.374177 0.0441,0.0441 0.187088,0.06236 0.187088,0 0,-0.06236 -0.249451,0 -0.187088,0 0.984668,0 5.834335,-0.26334 6.361014,0 0.270117,0.135059 0.478238,0.23912 0.748355,0.374179 0.149671,0.07483 0.411595,-0.07484 0.561266,0 0.05578,0.02789 -0.0441,0.142991 0,0.187087 0.132292,0.132291 0.405599,-0.103778 0.561266,0 0.116027,0.07735 0.07106,0.296825 0.187089,0.374179 0.288131,0.192087 2.564637,0.475509 2.993418,0.561266 0.645304,0.129061 1.499664,-0.003 1.870887,-0.374179 0.387093,-0.387094 -0.59153,0.01513 0.187089,-0.374177 0.305937,-0.152969 3.253075,0.223375 3.554684,0.374177 0.238477,0.119239 0.501047,0.478832 0.748356,0.561265 0.177488,0.05916 0.428974,-0.132291 0.561266,0 0.0441,0.0441 -0.0441,0.142992 0,0.18709 0.176387,0.17639 0.503745,-0.04892 0.748352,0 0.447567,0.08951 0.935953,0.374433 1.309622,0.561266 0.236204,0.118102 0.94293,-0.179605 1.122532,0 0.0441,0.0441 -0.0441,0.142991 0,0.187089 0.170217,0.170217 2.881442,0.07511 2.993419,0.18709 0.08819,0.08819 -0.05578,0.262617 0,0.374176 0.363569,0.727139 1.546405,2.894029 1.122532,3.741772 -0.313254,0.62651 -0.717953,1.46631 -1.122532,1.870887 -0.294979,0.294979 -0.835499,0.461323 -1.122532,0.748356 -0.323654,0.323654 -0.185568,0.560506 -0.561266,0.748355 -0.469659,0.234829 -1.146567,1.228093 -1.309621,1.309619 -0.111557,0.05578 -0.262618,-0.05578 -0.374177,0 -1.018003,0.509003 -0.739582,1.122532 -2.245063,1.122532 -0.264954,0 -1.013302,0.14061 -1.122532,-0.187087 -0.220869,-0.662601 -0.472596,-4.194874 -0.18709,-5.051396 0.181438,-0.544317 0.586923,-1.01241 0.748356,-1.496708 0.148198,-0.444595 -0.221472,-0.339797 0.187087,-0.748356 0.0441,-0.04409 0.142991,0.0441 0.187089,0 0.441158,-0.441155 0.772189,-1.146365 1.122532,-1.496708 0.0882,-0.08819 0.26262,0.05578 0.374179,0 0.962962,-0.481481 1.083585,-0.561266 2.245064,-0.561266 0.29792,0 1.681281,-0.189603 1.870884,0 0.458139,0.45814 -1.013865,0 -1.683798,0 -0.132574,0 -4.080102,-0.33833 -4.11595,-0.374176 -0.09354,-0.09355 -0.09354,-0.280636 -0.187087,-0.374179 -0.332111,-0.332108 -0.768287,-0.295582 -1.122532,-0.561266 -0.141113,-0.105833 -0.216411,-0.295294 -0.374179,-0.374176 -0.374177,-0.18709 -0.280633,0.09354 -0.561266,0 -0.370021,-0.123341 -0.624579,-0.218747 -0.935443,-0.374179 -0.01,-0.005 -3.56109,-0.247314 -3.741773,-0.187087 -0.349032,0.116342 -0.466054,0.233026 -0.748355,0.374176 -0.112959,0.05648 -0.474781,-0.08648 -0.561266,0 -0.0441,0.0441 0.0441,0.142991 0,0.18709 -0.04952,0.04952 -0.484229,0 -0.561266,0 -0.697695,0 -3.391188,0.268835 -3.928862,0 -0.07888,-0.03944 -0.108205,-0.147649 -0.187088,-0.18709 -0.460246,-0.230121 -1.215866,0.04688 -1.683798,-0.187089 -0.591236,-0.295617 -1.127976,-0.470443 -1.683798,-0.748353 -0.260932,-0.130466 -0.674511,-0.05662 -0.935444,-0.18709 -0.169259,-0.08463 -0.53263,-0.589902 -0.748354,-0.374176 -0.318674,0.318672 1.485179,0.187087 1.683798,0.187087 0.55733,0 1.027329,0.443923 1.496709,0.561266 1.294802,0.323701 2.55096,0.374179 3.928862,0.374179 0.123127,0 1.037782,0 0.561266,0 -1.470426,0 -2.99318,0.06244 -4.303039,-0.374179 -0.1524,-0.0508 -0.595955,0.0508 -0.748355,0 -0.08367,-0.02789 -0.101528,-0.165698 -0.187089,-0.187087 -0.488297,-0.122076 -1.014643,-0.02641 -1.496709,-0.18709 -0.163169,-0.05439 -0.901201,-0.714113 -0.935443,-0.748355 -0.08648,-0.08648 0.05648,-0.448305 0,-0.561266 -0.389309,-0.778619 0.01292,0.200006 -0.374178,-0.187087 -0.242016,-0.242017 -0.488935,-0.676026 -0.7483542,-0.935445 -0.1084366,-0.108437 -0.6399184,-0.265739 -0.7483547,-0.374176 -0.1961512,-0.196152 -0.03291,-1.188353 -0.1870887,-1.496711 -0.1040976,-0.208196 -0.5572879,-1.492729 -0.5612662,-1.496708 -0.044097,-0.0441 -0.1429914,0.0441 -0.1870884,0 -0.1363451,-0.136345 -0.00257,-0.750914 -0.1870887,-0.935443 -0.531386,-0.531386 -1.3837301,1.270749 -1.4967093,1.496709 -0.078884,0.157768 -0.2763345,0.227412 -0.3741775,0.374176 -0.2095394,0.314309 -0.2956001,0.856866 -0.5612659,1.122532 -0.3870931,0.387093 0.015132,-0.591529 -0.3741774,0.187089 -0.2563016,0.512604 -0.4010454,0.601567 -0.7483547,1.122532 -0.4167303,0.625097 -0.7230935,2.59398 -1.3096205,3.180509 -0.044097,0.0441 -0.1429917,-0.0441 -0.1870887,0 -0.2401187,0.240117 -0.1340588,0.882412 -0.3741774,1.122531 -0.044097,0.0441 -0.1591992,-0.05578 -0.1870887,0 -0.083669,0.167336 0.1322917,0.428975 0,0.561266 -0.044097,0.0441 -0.1870887,-0.06236 -0.1870887,0 0,0.134737 3.0041108,-0.147531 3.7417733,0 0.614924,0.122984 1.4837029,0.144468 2.0579755,0.374177 0.057902,0.02315 -0.044097,0.142991 0,0.187089 0.044097,0.0441 0.1870887,0.06236 0.1870887,0 0,-0.06236 -0.2494516,0 -0.1870887,0 0.495873,0 0.5423349,0.243142 0.9354433,0.374177 1.5408746,0.513625 -0.8858813,-0.630029 0.7483547,0.187089 0.1456994,0.07285 0.9561099,0.5406 1.1225319,0.374177 0.195772,-0.195771 0.07387,-0.782868 0.187089,-1.122532 0.598679,-1.796037 0.07812,-3.211365 -0.748355,-4.864304 -0.09354,-0.187089 0.187089,-0.374179 0,-0.561266 -0.08819,-0.0882 -0.2626191,0.05578 -0.3741772,0 -0.1115581,-0.05578 0.088194,-0.285983 0,-0.374179 -0.7483547,-0.748355 0.3118142,0.810718 -0.1870887,-0.187089 -0.218139,-0.436277 -0.7644485,-0.422458 -0.9354434,-0.935443 -0.039442,-0.118324 0.055779,-0.26262 0,-0.374176 -0.049562,-0.286213 -0.4429408,-0.324617 -0.5612659,-0.561266 -0.092579,-0.185158 -0.1988796,-1.122532 -0.5612662,-1.122532 -0.018264,0 0.024135,0.863034 0,0.935443 -0.1752817,0.525846 -0.3583196,0.919585 -0.7483546,1.309621 -0.1474235,0.147423 -0.4752875,0.288197 -0.5612659,0.374176 -1.2453366,1.245338 0.2737016,-0.129918 -0.1870888,0.561266 -0.2214366,0.332155 -0.7551639,0.574884 -0.9354433,0.935445 -0.1301647,0.260329 -0.1451986,0.519375 -0.3741772,0.748353 -0.098604,0.0986 -0.088484,0.275574 -0.1870887,0.374179 -0.044097,0.04409 -0.1870888,-0.06236 -0.1870888,0 0,0.0716 0.8488606,-0.08658 0.9354434,0 0.044097,0.04409 -0.044097,0.142991 0,0.187087 0.088194,0.0882 0.2859828,-0.08819 0.3741772,0 0.044097,0.0441 -0.044097,0.142991 0,0.187089 0.3271229,0.327123 1.0272686,0.653093 1.3096208,0.935443 0.4871707,0.487172 0.9060106,1.201361 1.4967093,1.49671 0.9298942,0.464947 1.2698785,0.695365 1.870887,1.496709 0.40011,0.533482 0.748354,0.914344 0.748354,0.748355 0,-0.06236 -0.135199,0.03459 -0.187088,0 -0.220147,-0.146764 -0.374178,-0.374176 -0.561266,-0.561266 -0.4635654,-0.463566 -1.0335509,-1.467048 -1.6837983,-1.683798 -0.1183254,-0.03944 -0.2626193,0.05578 -0.3741775,0 -0.1247256,-0.06236 -0.062363,-0.311814 -0.1870884,-0.374179 -0.4309848,-0.215489 -0.8661022,-0.228626 -1.3096208,-0.561265 -0.141111,-0.105834 -0.2164104,-0.295294 -0.3741772,-0.374177 -0.592795,-0.296397 -0.1741046,0.387162 -0.7483549,-0.187089 -0.063297,-0.0633 -1.0542447,-1.377908 -1.3096206,-1.122532 -0.1084363,0.108437 -0.2657408,0.639918 -0.3741774,0.748355 -0.1658183,0.16582 -1.2381251,0.979541 -1.3096206,1.122532 -0.096488,0.192977 -0.1100759,0.429215 -0.3741773,0.561266 -0.055779,0.02789 -0.1429914,-0.0441 -0.1870887,0 -0.062363,0.06236 0.1247258,0.124727 0.1870887,0.187089 0.3870931,0.387094 -0.5915296,-0.01513 0.1870887,0.374177 0.1155842,0.05779 0.679007,0.117742 0.7483546,0.187089 0.044097,0.0441 -0.044097,0.142992 0,0.18709 0.4331782,0.433176 1.7514863,-0.425892 1.3096208,-1.309621 -0.1068885,-0.213778 -0.9729782,-0.336643 -1.1225321,-0.18709 -0.037582,0.03758 -0.5933533,1.309621 -0.3741772,1.309621 0.062363,0 0,-0.249451 0,-0.187089 0,0.553839 0.3064923,0.340336 0.7483546,0.561266 0.2058207,0.102909 2.4268475,-0.181782 2.4321527,-0.187087 0.4562197,-0.456221 -0.099211,-0.605205 0.5612659,-0.935445 0.2335437,-0.116771 1.4467726,-0.07901 1.683798,0 0.486221,0.162073 0.4393231,1.244476 0.1870887,1.496711 -0.093353,0.09335 -0.7889513,0 -0.9354434,0 -0.142481,0 -0.828404,0.107037 -0.9354433,0 -0.069973,-0.06998 -0.4518761,-1.231924 -0.1870888,-1.496711 0.1093732,-0.109374 1.5357705,-0.04934 1.683798,0 0.3768334,0.125611 0.3886476,0.388646 0.5612662,0.561266 0.088194,0.08819 0.2859828,-0.08819 0.3741772,0 0.1488287,0.148828 0.2397538,0.801021 0.3741775,0.935445 0.044097,0.04409 0.1429914,-0.0441 0.1870887,0 0.044097,0.04409 -0.044097,0.142991 0,0.187087 0.2075709,0.207571 0.7598002,0.572711 0.9354432,0.748355 0.06236,0.06236 0.124726,0.498904 0.187089,0.561266 0.13867,0.138671 0.329051,0.141962 0.561266,0.374176 0.06236,0.06236 0.124725,0.498904 0.187088,0.561266 0.104506,0.104508 1.401218,1.118637 1.49671,1.309622 0.246287,0.492574 0.354141,0.541229 0.748354,0.935445 0.06236,0.06236 0.124726,0.498901 0.187089,0.561266 0.0441,0.04409 0.142992,-0.0441 0.187089,0 0.150822,0.15082 0.216713,1.279993 0.187088,1.309618 -0.07627,0.07627 -2.130843,0.60262 -2.245064,0.374179 -0.05578,-0.111559 0.05578,-0.26262 0,-0.374179 -0.02789,-0.05578 -0.159199,0.05578 -0.187088,0 -0.05578,-0.111556 0.03944,-0.255852 0,-0.374176 -0.108598,-0.325792 -1.472117,-1.699985 -1.870887,-1.870887 -0.100798,-0.0432 -1.1478107,-0.25282 -1.3096206,-0.374177 -0.1115581,-0.08367 -0.088484,-0.275574 -0.1870887,-0.374179 -0.232215,-0.232214 -0.6096841,-0.04842 -0.7483546,-0.187087 -0.044097,-0.0441 0.044097,-0.142991 0,-0.187089 -0.2117866,-0.211786 -0.9022718,-0.341006 -1.1225321,-0.561266 -0.044097,-0.0441 0.044097,-0.142992 0,-0.18709 -0.088194,-0.08819 -0.2859829,0.0882 -0.3741772,0 -0.044097,-0.0441 0.044097,-0.142991 0,-0.187087 -0.1581391,-0.158138 -1.1110053,0.03972 -1.3096208,0 -0.8221361,-0.164428 -1.3947786,-0.374179 -2.2450639,-0.374179 -0.663691,0 -1.97766284,0.02646 -2.24506411,0.561266 -0.14967093,0.299342 0.14967095,0.82319 0,1.122532 -0.91117168,1.822344 1.30569341,2.019774 2.43215281,2.245066 0.3213661,0.06427 0.4904653,0.288214 0.7483546,0.374177 0.6738305,0.22461 1.3805572,0.33546 2.0579752,0.561266 0.2366505,0.07888 0.5037474,-0.04892 0.7483546,0 1.1476083,0.22952 2.3476389,0.187089 3.5546848,0.187089 0.728288,0 1.559508,0.06149 1.683798,-0.187089 0.05578,-0.111559 0.05578,-0.26262 0,-0.374177 -0.180456,-0.360912 -0.316651,-0.06478 -0.561266,-0.187089 -0.778618,-0.389311 0.200004,0.01291 -0.187089,-0.374177 -0.139447,-0.139448 -0.397178,-0.0777 -0.561266,-0.187089 -0.255687,-0.170458 -0.267908,-0.348729 -0.374177,-0.561266 -0.1358607,-0.271722 -0.5877634,-0.213588 -0.7483547,-0.374176 -0.093544,-0.09355 -0.093544,-0.280636 -0.1870887,-0.374179 -0.1763887,-0.17639 -0.5117042,-0.07888 -0.7483546,0 -0.4630219,0.154342 -0.3741772,1.026244 -0.3741772,0.935445 0,-0.124728 0.1247256,-0.37418 0,-0.37418 -0.1972088,0 -0.3842975,0.561266 -0.1870887,0.561266 0.1870887,0 0,-0.374176 0,-0.561266 0,-0.284554 0.1324655,-1.309621 -0.3741775,-1.309621 -0.389309,0 -0.075279,0.262369 -0.1870887,0.374179 -0.062363,0.06236 -0.4989031,0.124725 -0.5612659,0.187087 -0.00257,0.0026 -0.300564,0.748355 -0.1870888,0.748355 0.062363,0 0,-0.124724 0,-0.187086 0,-0.249452 0,-0.498904 0,-0.748356 0,-0.562544 8.467e-4,-0.933728 -0.1870884,-1.309621 -0.055779,-0.111559 -0.2859831,0.08819 -0.3741775,0 -0.1259506,-0.12595 -0.098678,-0.236427 -0.3741774,-0.374177 -1.1909944,-0.595497 -0.6768812,1.238147 -0.9354431,1.496709 -0.044097,0.0441 -0.1429917,-0.0441 -0.1870887,0 -0.088195,0.08819 0.055779,0.26262 0,0.374176 -0.062363,0.124727 -0.3265363,0.374179 -0.1870888,0.374179 0.062363,0 0,-0.124727 0,-0.187089 0,-0.602229 -0.044097,0.319381 0.1870888,-0.374177 0.2721417,-0.816425 -0.1362089,-1.496711 -0.9354434,-1.496711 -0.1247259,0 -0.2859828,-0.08819 -0.3741774,0 -0.093544,0.09355 0.093545,0.467723 0,0.561266 -0.1949633,0.194964 -0.561266,0.380236 -0.561266,0.374179 0,-0.0882 0.1870888,-0.275283 0.1870888,-0.187089 0,0.687723 -0.5058268,0.692914 -0.7483548,0.935442 -0.2429364,0.242938 1.3451511,0.561269 1.6837981,0.561269 0.5188186,0 -0.2986468,-0.02789 0.5612659,0.187086 0.467091,0.116774 1.2559851,-0.213905 1.683798,0 0.9661496,0.483077 1.2706914,0.11175 2.0579755,0.37418 0.8258492,0.275283 -0.6797241,0.187086 0.5612659,0.187086 0.2379538,0 1.3452509,-0.151458 1.4967093,0 0.0441,0.0441 -0.0441,0.142992 0,0.18709 0.124726,0.124724 0.623629,-0.124727 0.748355,0 0.155907,0.155906 0.03118,0.592447 0.187088,0.748355 0.10727,0.10727 2.342075,0.325671 2.619242,0.187087 0.124726,-0.06236 0.275573,-0.08848 0.374177,-0.187087 0.0621,-0.0621 0.0621,-1.43461 0,-1.496711 -0.06236,-0.06236 -0.498903,-0.124724 -0.561266,-0.187086 -0.387093,-0.387094 0.59153,0.01513 -0.187089,-0.374179 -0.373699,-0.186849 -1.08932,-0.681932 -1.30962,-1.122532 -0.184976,-0.369951 -0.616861,-0.915138 -0.748355,-1.309622 -0.03944,-0.118324 0.08819,-0.285982 0,-0.374176 -0.0441,-0.0441 -0.159199,0.05578 -0.187089,0 -0.03426,-0.06852 0.0787,-0.66965 0,-0.748355 -0.0441,-0.0441 -0.142991,0.0441 -0.187088,0 -0.179259,-0.179258 0.1447,-2.933494 0,-3.367596 -0.266366,-0.799097 -0.786629,-1.199081 -1.1225322,-1.870887 -0.1047634,-0.209526 -0.088195,-0.550566 -0.1870887,-0.748353 -0.02789,-0.05578 -0.1429915,0.0441 -0.1870888,0 -0.1247256,-0.124727 0.1247259,-0.623631 0,-0.748355 -0.093544,-0.09354 -0.2806329,-0.09354 -0.3741772,-0.18709 -0.1171535,-0.117152 -0.108699,-0.965753 -0.1870887,-1.122532 -0.02789,-0.05578 -0.1429914,0.0441 -0.1870887,0 -0.00949,-0.0095 -0.3741775,-2.225426 -0.3741775,-2.432153 0,-0.06236 0.062363,-0.187087 0,-0.187087 -0.1719318,0 0.1870888,1.650611 0.1870888,1.683798 0,1.38612 0.8581517,2.729037 1.870887,3.741772 0.0441,0.0441 0.142991,-0.0441 0.187088,0 0.09097,0.09097 0.327439,0.537898 0.374178,0.561266 0.938529,0.469265 3.033633,-0.166981 3.741773,0.187089 0.217934,0.108966 0.343332,0.265211 0.561266,0.374177 0.584062,0.292031 2.369194,-0.125024 2.993419,0.187089 0.370422,0.185211 0.650603,0.256196 1.122532,0.374177 0.219409,0.05485 0.795062,-0.14038 0.935443,0 0.0441,0.0441 -0.0441,0.142991 0,0.187089 0.155907,0.155909 0.779536,-0.155908 0.935443,0 0.0441,0.0441 -0.05578,0.1592 0,0.18709 0.251772,0.125886 0.844322,-0.05564 1.122532,0 1.579013,0.315801 3.172105,0.433739 4.677218,0.935442 0.45167,0.150558 1.213657,0 1.683798,0 2.103408,0 3.036527,0.02156 4.864303,0.935445 0.123955,0.06198 1.277258,0.341812 1.309622,0.374176 0.08819,0.08819 -0.05578,0.26262 0,0.374177 0.08331,0.166613 0.194426,0.658479 0.374176,0.748355 0.05578,0.02789 0.142994,-0.0441 0.18709,0 0.180379,0.180377 0,1.600862 0,1.870887 0,1.280584 -0.08687,2.792976 -0.561266,3.741772 -0.118102,0.236204 0.179604,0.94293 0,1.122532 -0.387094,0.387093 0.01513,-0.591529 -0.374177,0.18709 -0.171765,0.343527 -0.544724,1.11426 -0.935445,1.309621 -0.739798,0.369898 -2.027221,1.248116 -2.43215,2.057974 -0.05578,0.111559 0.08819,0.285983 0,0.374179 -0.154125,0.154122 -0.374179,-0.01008 -0.374179,0.374176 0,0.191535 -0.430453,0.879166 -0.187087,1.122532 0.293399,0.293399 0.976363,0.602187 1.309619,0.935443 0.0986,0.0986 0.08848,0.275574 0.187089,0.374179 0.03356,0.03356 0.654622,0.342931 0.748356,0.374176 0.177487,0.05916 0.428974,-0.132292 0.561265,0 0.0441,0.0441 -0.0441,0.142991 0,0.187089 0.08819,0.08819 0.255853,-0.03944 0.374177,0 0.384122,0.12804 0.542261,0.462971 0.935442,0.561266 0.367131,0.09178 0.982202,0.02339 1.309622,0.18709 0.05578,0.02789 0,0.124725 0,0.187087 0.124727,0.06236 0.241887,0.142991 0.374179,0.187089 0.236648,0.07888 0.503745,-0.04892 0.748352,0 0.610873,0.122174 1.160333,0.486622 1.683798,0.748356 0.41569,0.207843 1.032036,0.219284 1.496711,0.374176 0.224507,0.07484 0.336759,0.486431 0.561266,0.561266 0.910484,0.303496 1.867104,0.622369 2.806329,0.935442 0.385916,0.128641 0.728509,0.462762 1.122532,0.561266 0.856232,0.214059 -0.194527,-0.377896 0.935442,0.18709 0.157769,0.07888 0.216411,0.295293 0.37418,0.374176 0.398631,0.199316 1.093721,0.172686 1.496708,0.374179 0.157768,0.07888 0.227414,0.276334 0.374179,0.374177 0.08571,0.05714 1.350695,0.415253 1.496708,0.561265 0.0986,0.0986 0.06236,0.311815 0.18709,0.37418 0.167335,0.08367 0.379761,-0.04538 0.561265,0 0.654151,0.163536 1.90204,1.504497 2.61924,1.683797 0.181505,0.04537 0.379765,-0.04538 0.561266,0 0.234162,0.05854 0.515933,0.483791 0.748356,0.561266 0.118324,0.03944 0.26262,-0.05578 0.374176,0 0.05578,0.02789 -0.05578,0.159197 0,0.187087 0.06853,0.03426 0.669653,-0.0787 0.748356,0 0.0441,0.0441 -0.05578,0.1592 0,0.18709 0.27546,0.137731 0.828902,0.08921 1.122531,0.187089 0.638543,0.212847 1.182452,0.950423 1.870888,1.122531 0.644186,0.161047 1.460873,0.390094 2.057974,0.748355 0.573532,0.344119 1.087485,0.764743 1.683798,1.122532 0.287977,0.172785 0.656013,0.18789 0.935444,0.374177 0.05189,0.03459 -0.05578,0.1592 0,0.187089 0.223116,0.111558 0.997805,0 0.748356,0 -0.124727,0 -0.374179,-0.124726 -0.374179,0 0,0.358406 0.616572,0.09923 0.748355,0.187089 0.701768,0.467844 1.854483,0.919039 2.432153,1.496709 0.201475,0.201475 0.218848,0.863648 0.374177,1.122532 0.15599,0.259983 0.669859,0.621459 0.748355,0.935443 0.122534,0.490137 0.397264,1.893973 0.748356,2.245064 0.0441,0.0441 0.131307,-0.02789 0.187087,0 0.413662,0.206832 0.05806,0.116116 0.187089,0.374178 0.131688,0.263375 0.583332,0.528325 0.748356,0.748354 0.303516,0.404689 0.421333,0.900847 0.748352,1.309621 0.22038,0.275473 0.573329,0.442058 0.748356,0.748355 0.291891,0.510811 0.572434,1.34312 0.748355,1.870886 0.05916,0.177488 -0.132292,0.428975 0,0.561266 0.0441,0.0441 0.159197,-0.05578 0.187087,0 0.233685,0.46737 0,1.7291481 0,2.2450644 0,0.4226774 -0.02789,-0.083669 0.18709,0.5612659 0.09354,0.280633 -0.09354,0.6548104 0,0.9354434 0.02789,0.083669 0.165697,0.1015275 0.187089,0.1870887 0.02434,0.097341 -0.08566,0.7641238 0,0.9354434 0.16606,0.3321214 0.395206,0.6033216 0.561266,0.9354433 0.159142,0.3182853 -0.181507,0.3797607 0.187087,0.7483546 0.09861,0.098604 0.275574,0.088484 0.374179,0.1870885 0.129625,0.1296255 0.05746,0.8058182 0.187089,0.9354434 0.0441,0.044097 0.152496,-0.051889 0.187087,0 0.109392,0.1640877 0.0777,0.3971784 0.18709,0.5612661 0.05296,0.079443 0.29768,0.1446869 0.374176,0.3741772 0.06173,0.185173 0.04087,0.6021382 0.18709,0.7483548 0.114604,0.1146056 0.48963,0.1592717 0.561266,0.3741773 0.148198,0.4445962 -0.22147,0.3397957 0.187089,0.74835467 0.454401,0.45440131 0.274725,-0.0556339 0.561266,0.37417734 0.166568,0.24985456 0.350896,0.72507458 0.561266,0.93544333 0.04409,0.0440972 0.142991,-0.0440972 0.187087,0 0.0882,0.0881944 -0.08819,0.28598289 0,0.37417732 0.06629,0.0662881 1.723855,0.97550054 1.870887,1.12253204 0.123624,0.1236229 0.791631,1.0506255 0.935445,1.1225321 0.386247,0.1931231 0.607023,0.4199342 0.935442,0.7483546 0.108437,0.1084363 0.26574,0.6399184 0.374177,0.7483547 0.387093,0.3870931 -0.01513,-0.5915298 0.374179,0.1870887 0.224443,0.448891 0.267597,1.3379878 0.374176,1.8708864 0.07735,0.3867584 0.296826,0.735774 0.374177,1.1225321 0.278492,1.392459 -1.33e-4,4.3033027 -0.561266,5.4255717 -0.07484,0.149671 0.07484,0.411595 0,0.561266 -0.256853,0.513708 -0.117322,-0.139531 -0.374177,0.374177 -0.1393,0.278602 -0.162414,0.91077 -0.374176,1.122532 -0.0986,0.0986 -0.275574,0.08848 -0.374179,0.187089 -0.240118,0.240118 -0.134059,0.882413 -0.374177,1.122532 -0.0986,0.0986 -0.275574,0.08848 -0.374176,0.187088 -0.36426,0.364258 -0.563602,1.499046 -0.935445,1.870887 -0.186423,0.186423 -0.337148,0.168575 -0.748355,0.374177 -0.366353,0.183178 -0.841092,1.121994 -1.122532,1.309621 -0.965941,0.643961 -1.911559,1.537383 -2.80633,2.432153 -0.09861,0.0986 -0.08848,0.275573 -0.187087,0.374177 -0.227872,0.227871 -0.417996,0.08764 -0.561268,0.374177 -0.02789,0.05578 0.0441,0.142992 0,0.187089 -0.08819,0.08819 -0.249449,0 -0.374177,0 -1.058063,0 -2.526395,0.257072 -3.554685,0 -0.336766,-0.08419 -0.650242,-0.279111 -0.935442,-0.374177 -0.118327,-0.03944 -0.26262,0.05578 -0.374179,0 -0.157766,-0.07888 -0.233066,-0.268344 -0.374176,-0.374178 -0.705771,-0.529328 -1.58514,-0.861451 -2.432153,-1.496709 -0.345869,-0.259402 -0.781913,-0.203869 -1.122532,-0.374177 -0.513062,-0.256531 -0.965166,-0.778079 -1.309622,-1.122532 -0.139446,-0.139448 -0.421817,-0.04764 -0.561265,-0.187089 -0.0441,-0.0441 0.0441,-0.142991 0,-0.187089 -0.08819,-0.08819 -0.285983,0.08819 -0.374177,0 -0.139449,-0.139447 -0.02299,-0.451874 -0.187089,-0.561266 -0.164087,-0.109391 -0.403498,-0.06876 -0.561266,-0.187088 -0.223115,-0.167337 -0.151062,-0.581018 -0.374177,-0.748355 -0.157765,-0.118325 -0.4035,-0.06876 -0.561266,-0.187089 -0.252396,-0.189297 -0.69333,-0.88042 -0.935442,-1.122532 -0.792268,-0.792268 -1.789239,-1.467782 -2.432153,-2.432152 -0.260488,-0.390731 -0.902068,-0.604745 -1.122532,-0.935444 -0.06919,-0.103778 0.03944,-0.255852 0,-0.374177 -0.08845,-0.265342 -0.454218,-0.267128 -0.561266,-0.374177 -0.20438,-0.20438 -0.407252,-0.78143 -0.561266,-0.935444 -0.0986,-0.0986 -0.275574,-0.08848 -0.374179,-0.187088 -0.523597,-0.523598 -0.868852,-1.283197 -1.309618,-1.8708869 -0.366694,-0.4889252 -0.942928,-0.8206957 -1.309622,-1.3096209 -0.03742,-0.04989 0.0441,-0.1429914 0,-0.1870884 -0.139448,-0.1394479 -0.42182,-0.047641 -0.561266,-0.1870887 -0.05064,-0.050639 -1.115406,-1.3072452 -1.122531,-1.3096209 -0.118327,-0.039442 -0.262621,0.055779 -0.37418,0 -0.124724,-0.062363 -0.07106,-0.2968257 -0.187086,-0.3741771 -0.878933,-0.5859547 -1.504604,-1.3772449 -2.245064,-1.8708868 -0.05189,-0.034593 -0.142991,0.044097 -0.18709,0 -0.0441,-0.044097 0.0441,-0.1429914 0,-0.1870887 -0.124727,-0.1247256 -0.623628,0.1247259 -0.748355,0 -0.08315,-0.08315 0.145513,-0.3533896 -0.18709,-0.1870887 -0.418663,0.2093322 -0.558217,4.8734432 -0.374176,5.4255714 0.127725,0.3831725 0.276749,0.7328147 0.374176,1.1225317 0.142704,0.570806 -0.02442,1.049296 0.18709,1.683798 0.587648,1.762944 0.727691,3.679786 1.309621,5.425572 0.137256,0.411769 0.04188,0.874 0.18709,1.30962 0.276455,0.829367 0,4.79611 0,5.986838 0,1.158078 -0.239247,5.643276 0,6.361014 0.09201,0.276042 0.295719,0.512984 0.374176,0.748355 0.148066,0.444196 -0.02815,1.066234 0.18709,1.496708 0.03944,0.07889 0.165698,0.101529 0.187087,0.18709 0.13041,0.521639 -0.05517,1.57345 0.187089,2.057977 0.07888,0.157765 0.295294,0.216408 0.374177,0.374176 0.05578,0.111559 -0.08819,0.285983 0,0.374176 0.0441,0.0441 0.142991,-0.04409 0.187089,0 0.148672,0.148672 0.225541,1.910633 0.374176,2.245064 0.147688,0.332296 0.37418,0.623631 0.561266,0.935445 z"
       style="fill:none;stroke:#000000;stroke-width:0.264583px;stroke-linecap:butt;stroke-linejoin:miter;stroke-opacity:1" />
  </g>
</svg>
