<?xml version="1.0" encoding="UTF-8" standalone="no"?>
<svg
   xmlns:dc="http://purl.org/dc/elements/1.1/"
   xmlns:cc="http://creativecommons.org/ns#"
   xmlns:rdf="http://www.w3.org/1999/02/22-rdf-syntax-ns#"
   xmlns:svg="http://www.w3.org/2000/svg"
   xmlns="http://www.w3.org/2000/svg"
   xmlns:sodipodi="http://sodipodi.sourceforge.net/DTD/sodipodi-0.dtd"
   xmlns:inkscape="http://www.inkscape.org/namespaces/inkscape"
   sodipodi:docname="terra.svg"
   inkscape:version="1.0 (4035a4fb49, 2020-05-01)"
   id="svg8"
   version="1.1"
   viewBox="0 0 210 297"
   height="297mm"
   width="210mm">
  <defs
     id="defs2" />
  <sodipodi:namedview
     inkscape:window-maximized="1"
     inkscape:window-y="-8"
     inkscape:window-x="1912"
     inkscape:window-height="1017"
     inkscape:window-width="1920"
     showborder="false"
     showgrid="false"
     inkscape:document-rotation="0"
     inkscape:current-layer="layer1"
     inkscape:document-units="px"
     inkscape:cy="-178.94036"
     inkscape:cx="99.729184"
     inkscape:zoom="2.8284271"
     inkscape:pageshadow="2"
     inkscape:pageopacity="0.0"
     borderopacity="1.0"
     bordercolor="#666666"
     pagecolor="#ffffff"
     id="base" />
  <metadata
     id="metadata5">
    <rdf:RDF>
      <cc:Work
         rdf:about="">
        <dc:format>image/svg+xml</dc:format>
        <dc:type
           rdf:resource="http://purl.org/dc/dcmitype/StillImage" />
        <dc:title></dc:title>
      </cc:Work>
    </rdf:RDF>
  </metadata>
  <g
     id="layer1"
     inkscape:groupmode="layer"
     inkscape:label="Layer 1">
    <path
       id="path901"
       d="m 19.176588,-77.454709 c -1.616524,0.145489 -3.331503,-0.34545 -4.583672,0.280633 -0.07788,0.03894 -0.314841,-0.05934 -0.374177,0 -0.02205,0.02204 0.02205,0.0715 0,0.09355 -0.09354,0.09354 -0.467722,-0.09355 -0.561266,0 -0.02205,0.02204 0.02205,0.0715 0,0.09354 -0.0515,0.0515 -0.852745,0.09897 -1.028988,0.187089 -0.210649,0.105323 -1.560771,-0.02948 -1.683798,0.09354 -0.02205,0.02204 0.02205,0.07149 0,0.09354 -0.01154,0.01154 -0.941885,0.258858 -1.0289878,0.280633 -0.060501,0.01513 -0.1313095,-0.02789 -0.1870884,0 -0.1377498,0.06888 -0.1241134,0.124113 -0.1870887,0.18709 -0.043242,0.04324 -0.2241535,-0.02824 -0.280633,0 -0.039442,0.01971 -0.054103,0.07382 -0.093545,0.09354 -0.055779,0.02789 -0.1429914,-0.04409 -0.1870885,0 -0.022048,0.02204 0.022048,0.0715 0,0.09355 -0.046772,0.04677 -0.2338609,-0.04677 -0.2806332,0 -0.022048,0.02204 0.02789,0.0796 0,0.09354 -0.083668,0.04183 -0.2144871,-0.06615 -0.2806329,0 -0.049302,0.0493 -0.044242,0.137787 -0.093544,0.187089 -0.046772,0.04677 -0.2338609,-0.04677 -0.2806329,0 -0.022048,0.02204 0.022048,0.0715 0,0.09354 -0.022048,0.02204 -0.062363,0 -0.093545,0 -0.031181,0 -0.071496,-0.02204 -0.093544,0 -0.022048,0.02204 0.022048,0.0715 0,0.09354 -0.2131711,0.213172 -0.1556145,0.07781 -0.3741775,0.187089 -0.02789,0.01394 0.022048,0.0715 0,0.09354 -0.043242,0.04324 -0.2241534,-0.02824 -0.2806329,0 -0.3152521,0.157628 -0.7133649,0.169595 -0.9354434,0.280633 -0.2925347,0.146269 -0.4504402,0.175569 -0.7483546,0.374179 -0.017426,0.01162 -0.3645977,0.08396 -0.3741775,0.09354 -0.022048,0.02204 0.022048,0.0715 0,0.09354 -0.044097,0.0441 -0.1313095,-0.02789 -0.1870884,0 -0.1537111,0.07686 -0.284525,0.234836 -0.4677217,0.280633 -0.1840064,0.046 -0.3836731,0.02695 -0.5612662,0.09355 -0.1790142,0.06713 -0.214416,0.214415 -0.280633,0.280633 -0.099422,0.09942 -0.4153955,0.183385 -0.5612659,0.280633 -0.1105461,0.0737 -0.130937,0.22448 -0.1870887,0.280633 -0.1726925,0.172691 -0.6092217,0.219059 -0.841899,0.374176 -0.1734744,0.115649 -0.2392279,0.239228 -0.3741773,0.374179 -0.031181,0.03118 -0.2494516,0.06236 -0.280633,0.09354 -0.046772,0.04677 -0.046772,0.140316 -0.093544,0.187089 -0.022048,0.02204 -0.062363,0 -0.093544,0 -0.062363,0.03118 -0.1484128,0.03553 -0.1870886,0.09354 -0.0345927,0.05189 0.027889,0.131311 0,0.18709 -0.0517333,0.103465 -0.31754998,0.0172 -0.37417738,0.187087 -0.019721,0.05916 0.019721,0.127926 0,0.187089 -0.0358176,0.107453 -0.22333015,0.129786 -0.28063298,0.18709 -0.11393545,0.113935 -0.0438183,0.208997 -0.18708867,0.280633 -0.08819445,0.04409 -0.20174949,0.03438 -0.280633,0.09354 -0.1130328,0.08477 -0.12762566,0.297675 -0.28063301,0.374177 -0.5990836,0.299542 -2.07599136,1.719831 -2.33860826,2.245063 -0.1177591,0.235519 -0.848428,0.661342 -1.0289878,0.841902 -0.096539,0.09654 -0.1359279,0.271854 -0.1870885,0.374176 -0.031182,0.06236 -0.1559073,0.03118 -0.1870887,0.09354 -0.02789,0.05578 0.027889,0.13131 0,0.187089 -0.00579,0.01159 -0.2415723,0.108966 -0.280633,0.18709 -0.02789,0.05578 0.044097,0.142991 0,0.187087 -0.046896,0.0469 -0.241945,0.07102 -0.2806332,0.187089 -0.019722,0.05916 0.02789,0.13131 0,0.18709 -0.00857,0.01714 -0.1571524,0.09728 -0.1870885,0.187086 -0.019722,0.05916 0.027889,0.131311 0,0.18709 0.1285087,0.473721 -0.2182701,0.09354 -0.2806329,0.18709 -0.054696,0.08204 -0.034382,0.201747 -0.093544,0.280632 -0.1709031,0.22787 -0.1729682,-0.02824 -0.280633,0.187087 -0.028347,0.05669 -0.054345,0.241435 -0.093544,0.280633 -0.030045,0.03005 -0.2700665,0.165958 -0.2806332,0.18709 -0.027889,0.05578 0.037418,0.137199 0,0.187089 -0.2631056,0.350806 -0.2224016,0.05297 -0.3741772,0.280633 -0.1096539,0.164481 -0.2359805,0.423069 -0.3741774,0.561266 -0.022048,0.02204 -0.071496,-0.02204 -0.093544,0 -0.044097,0.0441 0.044097,0.142992 0,0.187087 -0.022048,0.02204 -0.071496,-0.02204 -0.093545,0 -0.063147,0.06315 -0.228523,0.966203 -0.2806329,1.122535 -0.063249,0.189745 -0.3134379,0.379047 -0.3741772,0.561265 -0.045165,0.135494 -0.027287,0.335206 -0.093544,0.46772 -0.039442,0.07888 -0.1476468,0.108207 -0.1870885,0.18709 -0.1121018,0.224202 -0.1205828,0.361749 -0.1870887,0.561266 -0.022048,0.06615 -0.044242,0.137787 -0.093545,0.187089 -0.022048,0.02204 -0.083684,-0.02958 -0.093544,0 -0.029581,0.08874 0.022688,0.189881 0,0.280633 -0.021611,0.08644 -0.1586164,0.195215 -0.1870887,0.280633 -0.019722,0.05916 0.019722,0.127926 0,0.187087 -0.097327,0.291984 -0.062363,-0.03118 -0.1870888,0.09355 -0.044097,0.0441 0.02789,0.13131 0,0.187087 -0.046401,0.0928 -0.1547902,0.18374 -0.1870884,0.280633 -0.029582,0.08874 0.041834,0.196966 0,0.280633 -0.031181,0.06236 -0.1559073,0.03118 -0.1870887,0.09355 -0.02789,0.05578 0.019722,0.127926 0,0.187087 -0.02789,0.08367 -0.1476471,0.108206 -0.1870888,0.187089 -0.049673,0.09935 -0.010157,0.290791 -0.093544,0.374177 -0.022048,0.02204 -0.071496,-0.02204 -0.093545,0 -0.017439,0.01744 -0.085374,0.715674 -0.093544,0.748355 -0.036988,0.147953 -0.1156759,0.324898 -0.1870888,0.467723 -0.02824,0.05648 0.043242,0.237389 0,0.280633 -0.022048,0.02204 -0.071496,-0.02204 -0.093544,0 -0.1102717,0.11027 0,0.95414 0,1.122531 0,0.261565 0.100457,1.295795 0,1.496709 -0.080429,0.160858 -0.1066601,0.306866 -0.1870887,0.467722 -0.062363,0.124727 0.062363,0.342995 0,0.467723 -0.232024,0.464047 -0.205732,1.084918 -0.374177,1.590254 -0.184653,0.553955 0.115057,1.295601 0,1.870884 -0.118587,0.592934 -0.226591,4.051488 -0.09355,4.583674 0.0107,0.04278 0.0796,0.05171 0.09355,0.09354 0.03742,0.112255 -0.03742,0.261925 0,0.374179 0.16663,0.499888 0.3156393,0.946918 0.4677212,1.403165 0.028063,0.08419 -0.028063,0.196443 0,0.280633 -0.169395,0.391366 0.147647,0.108204 0.1870887,0.187087 0.101985,0.20397 -0.00956,0.542147 0.093545,0.748355 0.3215061,0.643012 0.3377396,1.423834 0.6548102,2.057977 0.041834,0.08367 -0.029581,0.191889 0,0.280633 0.011366,0.03409 0.5549349,1.022654 0.5612662,1.028986 0.095678,0.09568 0.199853,0.119073 0.2806329,0.280633 0.027889,0.05578 -0.02789,0.13131 0,0.187089 0.116753,0.233506 0.2648794,0.436213 0.3741772,0.65481 0.02789,0.05578 -0.02789,0.13131 0,0.187089 0.2690222,0.538044 0.666274,1.051915 0.9354434,1.590254 0.4495784,0.899158 0.8566446,1.612371 1.403165,2.432154 0.2062729,0.309409 0.4361106,0.700936 0.6548104,1.028985 0.065238,0.09786 0.1040614,0.384697 0.1870887,0.467723 0.049302,0.0493 0.1377863,0.04424 0.1870885,0.09354 0.098604,0.0986 0.1034201,0.26262 0.1870887,0.374179 0.1690378,0.225383 0.4055126,0.42118 0.5612662,0.65481 0.2109195,0.31638 0.4260292,0.630401 0.6548101,0.935445 0.083669,0.111556 0.088484,0.275571 0.1870888,0.374176 0.049302,0.0493 0.1377864,0.04424 0.1870886,0.09354 0.022048,0.02204 0,0.06236 0,0.09355 0.062363,0.09354 0.1075913,0.201134 0.1870887,0.280633 0.022049,0.02204 0.071496,-0.02204 0.093544,0 0.2502113,0.250212 0.2429514,0.523584 0.4677217,0.748353 0.098604,0.09861 0.2755729,0.08849 0.3741773,0.18709 0.2890569,0.289057 0.55878541,0.65233 0.84189902,0.935442 0.36929401,0.369295 0.94566361,0.571487 1.30962068,0.935444 0.1606171,0.160617 0.3317665,0.425311 0.4677217,0.561266 0.044097,0.0441 0.1351996,-0.03459 0.1870886,0 0.2742334,0.182823 0.5460032,0.319774 0.841899,0.467722 0.3421349,0.171067 1.0581916,0.984543 1.4031651,1.122532 0.1193689,0.04775 0.2548083,0.0458 0.3741772,0.09354 0.1129472,0.04518 0.1714389,0.226036 0.280633,0.280633 0.3584175,0.179209 0.7699605,0.38498 1.1225321,0.561266 0.3893092,0.194655 -0.1000022,-0.0065 0.093544,0.187089 0.044097,0.0441 0.1429917,-0.0441 0.1870887,0 0.022048,0.02205 -0.022048,0.0715 0,0.09354 0.044097,0.0441 0.1279261,-0.01972 0.1870887,0 0.402067,-0.195226 0.1034201,0.159199 0.1870888,0.187089 0.088744,0.02958 0.191889,-0.02958 0.2806329,0 0.2263997,0.07547 0.4113099,0.313302 0.6548104,0.374177 0.060501,0.01513 0.1279261,-0.01972 0.1870885,0 0.047826,0.01594 1.8218838,0.699352 1.8708867,0.748355 0.1856438,0.185644 -0.4430017,0.02957 0.1870887,0.187089 0.3766807,0.09417 0.7744747,0.164614 1.1225317,0.280633 0.13921,0.0464 0.554299,-0.100512 0.654811,0 0.02205,0.02205 -0.02789,0.0796 0,0.09354 0.234699,0.11735 0.621297,-0.01676 0.841899,0.09354 0.337381,0.168691 0.813847,0.293732 1.216076,0.374178 0.15288,0.03058 0.319815,-0.0493 0.467722,0 1.753206,0.584402 3.829641,0.467721 5.799748,0.467721 0.662281,0 2.38053,0.129837 2.899875,0 0.27582,-0.06895 0.697346,-0.01418 0.935443,-0.09354 0.113565,-0.03786 0.260435,-0.158653 0.374177,-0.187089 0.273634,-0.06841 0.571818,-0.0035 0.841899,-0.09354 0.04184,-0.01395 0.05076,-0.08285 0.09355,-0.09354 0.146736,-0.03668 0.320985,0.03668 0.467721,0 0.223418,-0.05586 0.436594,-0.207895 0.654811,-0.280633 0.140316,-0.04677 0.09354,0.09354 0.280633,0 0.02789,-0.01394 -0.02789,-0.0796 0,-0.09355 0.187088,-0.09354 0.140316,0.04677 0.280633,0 0.391368,0.169396 0.108205,-0.147647 0.187088,-0.187088 0.05578,-0.02789 0.127927,0.01972 0.18709,0 0.09315,-0.03105 0.187478,-0.156037 0.280633,-0.187089 0.08874,-0.02958 0.196964,0.04183 0.280633,0 0.117419,-0.05871 0.163213,-0.03484 0.280633,-0.09354 0.02789,-0.01395 -0.02958,-0.08368 0,-0.09355 0.31913,-0.106377 0.740682,-0.04294 1.028986,-0.187088 0.03944,-0.01972 0.06236,-0.06236 0.09355,-0.09354 0.124724,-0.06236 0.241884,-0.142991 0.374176,-0.187088 0.166529,-0.05551 0.39474,-0.03803 0.561266,-0.09354 0.203787,0.03496 0.03118,-0.155907 0.09354,-0.187088 0.09143,-0.04572 0.884111,-0.152867 0.935445,-0.187089 0.05801,-0.03868 0.03553,-0.148413 0.09354,-0.187089 0.103777,-0.06919 0.255852,0.03944 0.374179,0 0.451681,-0.15056 0.947563,-0.409398 1.403165,-0.561266 0.112252,-0.03742 0.168378,-0.243215 0.280633,-0.280633 0.05916,-0.01972 0.13131,0.02789 0.187086,0 0.02789,-0.01394 -0.02789,-0.0796 0,-0.09354 0.05578,-0.02789 0.127926,0.01972 0.18709,0 0.123653,-0.04122 0.254939,-0.221014 0.374176,-0.280633 0.111541,-0.05577 0.383429,-0.102795 0.467723,-0.187089 0.0493,-0.0493 0.04424,-0.137786 0.09354,-0.187088 0.224981,-0.22498 0.680956,-0.340477 0.935445,-0.467722 0.320056,-0.160029 0.549979,-0.460196 0.841899,-0.65481 0.245211,-0.163474 0.163473,-0.03496 0.467723,-0.187089 0.151309,-0.07565 0.139938,-0.280382 0.280632,-0.374177 0.329616,-0.219745 0.802344,-0.521712 1.028986,-0.748355 0.184537,-0.184536 0.270915,-0.551546 0.467723,-0.748354 0.02204,-0.02204 0.06236,0 0.09354,0 0.03118,-0.03118 0.06909,-0.05685 0.09355,-0.09355 0.223724,-0.335587 0.459489,-0.740122 0.748353,-1.028986 0.02204,-0.02204 0.0715,0.02204 0.09355,0 0.160256,-0.160258 0.372899,-0.465164 0.46772,-0.654812 0.07752,-0.155038 0.26816,-0.174614 0.374179,-0.280633 0.06972,-0.06972 0.02381,-0.210907 0.09354,-0.280633 0.0493,-0.0493 0.137787,-0.04424 0.18709,-0.09354 0.2272,-0.2272 -0.02782,-0.137364 0.187087,-0.280633 0.08204,-0.0547 0.21091,-0.02381 0.280635,-0.09354 0.365078,-0.36508 -0.02164,-0.05024 0.09354,-0.280636 0.163473,-0.326946 0.01291,0.174175 0.280633,-0.09354 0.0441,-0.0441 -0.01971,-0.127926 0,-0.18709 0.04447,-0.133395 0.197035,-0.07562 0.280633,-0.187087 0.173148,-0.230865 0.363021,-0.550111 0.561266,-0.748355 0.02204,-0.02204 0.07149,0.02204 0.09354,0 0.193868,-0.193868 0.848101,-1.131832 1.028988,-1.403165 0.04526,-0.06789 0.356429,-0.508021 0.374177,-0.561266 0.02958,-0.08874 -0.04183,-0.196964 0,-0.280633 0.06357,-0.127143 0.217064,-0.247036 0.280633,-0.374176 0.04967,-0.09935 0.01016,-0.290791 0.09355,-0.374179 0.02204,-0.02204 0.0715,0.02204 0.09354,0 0.04677,-0.04677 -0.04677,-0.23386 0,-0.280633 0.02204,-0.02204 0.0715,0.02204 0.09354,0 0.0392,-0.0392 0.0652,-0.223938 0.09355,-0.280633 0.06482,-0.129638 0.228613,-0.228613 0.280633,-0.280633 0.05422,-0.05422 0.132868,-0.319958 0.187087,-0.374177 0.02204,-0.02204 0.07149,0.02204 0.09355,0 0.06132,-0.06133 0.04668,-0.32731 0.09354,-0.374179 0.193548,-0.193545 -0.0076,0.295767 0.18709,-0.09354 0.02789,-0.05578 -0.0441,-0.142991 0,-0.18709 0.02204,-0.02204 0.0715,0.02204 0.09354,0 0.173604,-0.173601 0.261358,-0.616256 0.374177,-0.841898 0.08611,-0.172215 0.194526,-0.01487 0.280632,-0.187087 0.02789,-0.05578 -0.02789,-0.13131 0,-0.18709 0.04472,-0.08944 0.13855,-0.419182 0.18709,-0.467722 0.02204,-0.02204 0.0715,0.02204 0.09354,0 0.104307,-0.104304 0.02737,-0.428916 0.09355,-0.561266 0.172913,-0.345827 0.20443,-0.595948 0.374176,-0.935443 0.04989,-0.09978 -0.04989,-0.274396 0,-0.374176 0.06753,-0.135059 0.11956,-0.23912 0.187089,-0.374179 0.04489,-0.08978 -0.02995,-0.284342 0,-0.374176 0.189421,-0.568262 0.274014,-1.196221 0.467723,-1.777344 0.04424,-0.132728 -0.06205,-0.343636 0,-0.46772 0.05448,-0.108969 0.132604,-0.171667 0.187087,-0.280633 0.07484,-0.149672 -0.07484,-0.411596 0,-0.561266 0.01394,-0.02789 0.07149,0.02204 0.09355,0 0.0072,-0.0072 0.09354,-2.097397 0.09354,-2.432153 0,-1.153713 0,-2.307429 0,-3.461142 0,-0.772281 0.09201,-1.596368 -0.09354,-2.338607 -0.06643,-0.26571 0.03067,-0.780555 -0.09355,-1.028988 -0.01394,-0.02789 -0.0715,0.02204 -0.09354,0 -0.01826,-0.01826 -0.276894,-2.514478 -0.374176,-2.80633 -0.206484,-0.619445 -0.40023,-1.829442 -0.654812,-2.338609 -0.02824,-0.05648 0.04324,-0.23739 0,-0.280633 -0.193545,-0.193546 0.0076,0.295767 -0.18709,-0.09354 -0.02824,-0.05648 0.04324,-0.237389 0,-0.280633 -0.02204,-0.02204 -0.0715,0.02204 -0.09354,0 -0.07087,-0.07088 -0.257223,-0.444222 -0.280633,-0.561266 -0.05278,-0.263879 -0.07379,-0.822145 -0.280633,-1.028988 -0.02204,-0.02204 -0.0715,0.02204 -0.09354,0 -0.30072,-0.30072 0.514162,0 0,0 -0.182539,0 -0.05998,-0.213505 -0.09355,-0.280633 -0.08158,-0.163166 -0.204783,-0.278095 -0.280633,-0.46772 -0.08431,-0.210769 -0.09767,-0.446161 -0.187087,-0.654812 -0.04429,-0.103335 -0.142804,-0.177297 -0.18709,-0.280633 -0.101288,-0.236339 -0.0721,-0.518371 -0.187089,-0.748355 -0.03944,-0.07888 -0.147646,-0.108204 -0.187087,-0.187087 -0.0463,-0.0926 -0.0118,-0.385964 -0.09355,-0.467722 -0.06236,-0.06236 -0.218268,-0.03118 -0.280633,-0.09354 -0.04677,-0.04677 -0.04677,-0.140316 -0.09354,-0.187089 -0.0441,-0.0441 -0.142991,0.0441 -0.187089,0 -0.236808,-0.236808 -0.447911,-0.728544 -0.748353,-1.028989 -0.0795,-0.0795 -0.210402,-0.0993 -0.280633,-0.187087 -0.170489,-0.213111 -0.232145,-0.605181 -0.374179,-0.841898 -0.09838,-0.163965 -0.703397,-1.17112 -0.748353,-1.216078 -0.02204,-0.02204 -0.07149,0.02204 -0.09355,0 -0.04409,-0.0441 0.0441,-0.142992 0,-0.187087 -0.02204,-0.02204 -0.06565,0.01394 -0.09354,0 -0.187648,-0.09382 -0.244523,-0.338066 -0.374177,-0.467723 -0.141181,-0.141181 -0.326543,-0.232997 -0.467722,-0.374176 -0.589645,-0.589645 0.784786,0.4015 -0.374179,-0.467723 -0.02495,-0.01871 -0.0715,0.02204 -0.09354,0 -0.351319,-0.351321 -0.58271,-0.863346 -0.935442,-1.216078 -0.116107,-0.116107 -0.211299,-0.117752 -0.280633,-0.187086 -0.02204,-0.02204 0.02204,-0.0715 0,-0.09355 -0.04677,-0.04677 -0.233862,0.04677 -0.280633,0 -0.02204,-0.02204 0.02204,-0.0715 0,-0.09354 -0.0392,-0.0392 -0.22394,-0.0652 -0.280633,-0.09354 -0.07888,-0.03944 -0.10342,-0.1592 -0.187089,-0.18709 -0.05916,-0.01971 -0.13131,0.02789 -0.18709,0 -0.02789,-0.01394 0.02204,-0.0715 0,-0.09354 -0.0205,-0.0205 -0.229917,-0.153279 -0.280633,-0.18709 -0.116027,-0.07735 -0.275571,-0.08848 -0.374176,-0.187089 -0.07653,-0.07653 -0.229579,-0.272066 -0.280633,-0.374177 -0.03118,-0.06236 -0.155908,-0.03118 -0.18709,-0.09354 -0.02789,-0.05578 0.03459,-0.1352 0,-0.18709 -0.0075,-0.01122 -1.81353,-1.23417 -1.96443,-1.309621 -0.05578,-0.02789 -0.142992,0.0441 -0.18709,0 -0.02204,-0.02204 0.02204,-0.0715 0,-0.09354 -0.04466,-0.04467 -0.309232,-0.138383 -0.374176,-0.18709 -0.207875,-0.155906 -0.23386,-0.311814 -0.467723,-0.467722 -0.08204,-0.05469 -0.201747,-0.03438 -0.280633,-0.09354 -0.143512,-0.107635 -0.401703,-0.49525 -0.467719,-0.561266 -0.04677,-0.04677 -0.233863,0.04677 -0.280633,0 -0.02204,-0.02204 0.02204,-0.07149 0,-0.09354 -0.0067,-0.0067 -0.614805,-0.160417 -0.654812,-0.18709 -0.02596,-0.0173 0.02204,-0.07149 0,-0.09354 -0.0441,-0.0441 -0.142992,0.04409 -0.187087,0 -0.02204,-0.02204 0.02204,-0.0715 0,-0.09355 -0.07311,-0.07311 -0.281591,-0.06268 -0.374179,-0.09354 -0.04183,-0.01394 -0.06236,-0.06236 -0.09354,-0.09354 -0.06236,-0.03118 -0.119446,-0.07663 -0.187089,-0.09355 -0.09075,-0.0227 -0.214487,0.06615 -0.280633,0 -0.02204,-0.02204 0.02204,-0.0715 0,-0.09354 -0.03369,-0.03369 -0.489559,-0.05769 -0.561266,-0.09354 -0.08244,-0.04122 -0.422339,-0.141706 -0.467723,-0.18709 -0.06297,-0.06298 -0.04934,-0.118213 -0.187086,-0.187089 -0.05578,-0.02789 -0.142992,0.0441 -0.18709,0 -0.08736,-0.08736 -0.180345,-0.232175 -0.374176,-0.280633 -0.0605,-0.01513 -0.13131,0.02789 -0.18709,0 -0.02789,-0.01394 0.02596,-0.07625 0,-0.09354 -0.12102,-0.08068 -0.419997,-0.209999 -0.561266,-0.280632 -0.05648,-0.02824 -0.237389,0.04324 -0.280633,0 -0.02204,-0.02204 0.02204,-0.0715 0,-0.09354 -0.05238,-0.05238 -0.406786,0.02032 -0.467722,0 -0.309004,-0.103002 -0.689025,-0.167314 -1.028987,-0.280633 -0.07889,-0.0263 -0.206761,0.03694 -0.280633,0 -0.282054,-0.141028 -0.527077,-0.108384 -0.841899,-0.187089 -0.16931,0.05638 -0.173976,-0.151538 -0.280633,-0.18709 -0.253474,-0.08449 -0.579365,-0.02791 -0.841899,-0.09354 -0.245914,-0.06148 -0.501029,-0.231169 -0.748355,-0.280633 -0.293989,-0.0588 -0.582123,-0.100497 -0.841899,-0.18709 -0.318633,-0.106209 -0.824828,0.148852 -1.122532,0 -0.02789,-0.01394 0.02205,-0.0715 0,-0.09354 -0.04624,-0.04624 -0.635683,0 -0.65481,0 -0.07388,0 -0.841899,-0.139716 -0.841899,-0.09354 0,0.03118 0.124726,0 0.09354,0 -0.03281,0 -0.431934,0.03579 -0.467721,0 -0.02205,-0.02204 0.03025,-0.08598 0,-0.09355 -0.302505,-0.07563 -0.623629,0 -0.935444,0 -0.09354,0 -0.374177,0 -0.280633,0 0.06236,0 0.249452,0 0.187089,0 -0.709261,0 -0.06911,-0.02442 -0.280633,0.18709 -0.137437,0.137435 -0.09354,-0.08156 -0.09354,0.280633 0,0.103904 -0.06615,0.588663 0,0.654809 0.09183,0.09183 0.280633,0.223163 0.280633,0.18709 0,-0.03118 -0.09354,-0.03118 -0.09354,0 0,0.0441 0.07382,0.0541 0.09354,0.09354 0.05484,0.109691 -0.05551,0.111027 -0.09354,0.18709 -0.02789,0.05578 0.0441,0.142991 0,0.187089 -0.06133,0.06132 -0.233767,0.140221 -0.280633,0.187087 -0.03118,0.03118 -0.06236,0.249452 -0.09354,0.280633 -0.03118,0.03118 -0.249452,0.06236 -0.280633,0.09355 -0.04677,0.04677 -0.04677,0.140316 -0.09354,0.187087 -0.06378,0.06378 -1.034721,0.32454 -1.122532,0.280633 -0.02789,-0.01394 0.02205,-0.0715 0,-0.09354 -0.0441,-0.0441 -0.13131,0.02789 -0.187089,0 -0.16156,-0.08078 -0.184955,-0.184954 -0.280633,-0.280633 -0.0441,-0.0441 -0.142991,0.0441 -0.187089,0 -0.02205,-0.02204 0.02958,-0.08369 0,-0.09354 -0.141102,-0.04703 -1.565394,-0.0592 -1.683798,0 -0.441733,0.220866 0.570959,-0.0492 -0.374177,0.187087 -0.467686,0.116922 -1.089286,-0.110167 -1.309621,0 -0.235173,0.117589 -0.308945,0.308946 -0.467721,0.467722 -0.124726,0.124728 -0.530085,-0.03118 -0.654811,0.09354 -0.04533,0.04533 -0.139125,0.338206 -0.187088,0.374179 -0.308219,0.231164 -0.85767,0.202858 -1.122532,0.46772 -0.075801,0.0758 0.187088,0.192182 0.187088,0.187089 0,-0.03118 -0.09354,-0.03118 -0.09354,0 0,0.0441 0.0796,0.05171 0.09354,0.09354 0.01972,0.05916 -0.02789,0.13131 0,0.187089 0.01394,0.02789 0.0715,-0.02204 0.09355,0 0.07795,0.07795 -0.07795,0.389768 0,0.467723 0.04677,0.04677 0.140316,0.04677 0.187088,0.09354 0.140317,0.140316 -0.140316,0.701582 0,0.841899 0.07795,0.07795 0.389768,-0.07795 0.467722,0 0.02205,0.02204 -0.02205,0.0715 0,0.09355 0.05077,0.05077 0.669586,0.02625 0.748355,0 0.08252,-0.02751 0.691457,-0.475922 0.748354,-0.561266 0.0547,-0.08204 0.02382,-0.21091 0.09355,-0.280633 0.07795,-0.07795 0.202679,-0.109135 0.280633,-0.187089 0.193546,-0.193548 -0.295765,0.0076 0.09354,-0.18709 0.05669,-0.02835 0.241434,-0.05434 0.280633,-0.09354 0.02205,-0.02204 -0.02205,-0.0715 0,-0.09354 0.11891,-0.118912 1.0908,0.125275 1.216076,0 0.110168,-0.11017 0.113567,-0.474398 0.374178,-0.561268 0.411509,-0.137168 0.950029,-0.35959 1.216076,-0.09354 0.02205,0.02204 -0.02205,0.0715 0,0.09354 0.07665,0.07666 0.388215,0.201128 0.467722,0.280633 0.0441,0.0441 -0.0441,0.142994 0,0.187089 0.04677,0.04677 0.140316,0.04677 0.187088,0.09355 0.06233,0.06233 -0.06233,0.124757 0,0.187087 0.02205,0.02204 0.0796,-0.02789 0.09354,0 0.147943,0.295886 -0.05606,0.897964 -0.187089,1.028988 -0.02205,0.02204 -0.0715,-0.02204 -0.09354,0 -0.04842,0.04842 -0.04513,0.325761 -0.09354,0.374177 -0.03118,0.03118 -0.124725,0.06236 -0.09354,0.09355 0.0441,0.04409 0.142991,-0.0441 0.187089,0 0.02205,0.02204 -0.02205,0.0715 0,0.09354 0.06133,0.06132 0.233767,0.140224 0.280633,0.18709 0.04161,0.04161 0.02348,0.701389 0,0.748353 -0.03118,0.06236 -0.155908,0.03118 -0.187089,0.09355 -0.05577,0.11154 -0.102795,0.383426 -0.187089,0.46772 -0.193546,0.193548 0.0076,-0.295765 -0.187088,0.09355 -0.123746,0.247488 0.01349,0.267147 -0.187089,0.467719 -0.01884,0.01884 -0.940109,0.182425 -1.028988,0.09355 -0.193546,-0.193548 0.295765,0.0076 -0.09354,-0.18709 -0.05057,-0.02529 -0.583385,-0.129257 -0.65481,-0.09354 -0.142698,0.07135 -0.234665,0.210875 -0.374178,0.280633 -0.05578,0.02789 -0.142991,-0.0441 -0.187088,0 -0.02205,0.02204 0.01395,0.06565 0,0.09354 -0.08732,0.174649 -0.408275,0.297683 -0.561266,0.374176 -0.08367,0.04184 -0.191889,-0.02958 -0.280633,0 -0.144863,0.04829 -0.300341,0.131297 -0.467722,0.18709 -0.482814,0.160938 -1.858535,-0.193265 -2.245064,0 -0.1296385,0.06482 -0.2286149,0.228616 -0.280633,0.280633 -0.054218,0.05422 -0.319959,0.132871 -0.3741774,0.187089 -0.022048,0.02204 0.022048,0.0715 0,0.09354 -0.044097,0.0441 -0.1429915,-0.0441 -0.1870885,0 -0.044097,0.0441 0.055779,0.1592 0,0.187089 -0.055779,0.02789 -0.127926,-0.01971 -0.1870887,0 -0.1833298,0.06111 -0.2576235,0.257622 -0.3741775,0.374177 -0.1161073,0.116107 -0.304842,0.02421 -0.3741772,0.09355 -0.022048,0.02204 0.022048,0.07149 0,0.09354 -0.098372,0.09837 -1.2169087,-0.09313 -1.403165,0 -0.07398,0.03699 -0.4588984,0.277104 -0.4677217,0.280633 -0.086854,0.03474 -0.191889,-0.02958 -0.2806329,0 -0.029581,0.0099 0.022048,0.0715 0,0.09354 -0.048568,0.04857 -0.3492543,0.06862 -0.4677217,0.187089 -0.022048,0.02204 0.022048,0.0715 0,0.09354 -0.044097,0.0441 -0.1429914,-0.0441 -0.1870887,0 -0.00692,0.0069 -0.268033,0.367876 -0.280633,0.374179 -0.055779,0.02789 -0.1313095,-0.02789 -0.1870887,0 -0.02789,0.01394 0.022048,0.07149 0,0.09354 -0.069724,0.06972 -0.2109092,0.02381 -0.280633,0.09354 -0.1559486,0.155949 -0.175914,0.26946 -0.2806329,0.37418 -0.046866,0.04686 -0.2193073,0.125761 -0.280633,0.187086 -0.1031182,0.103119 -0.026536,0.614339 -0.093545,0.748356 -0.13174,0.26348 -0.3456932,0.504298 -0.4677217,0.748355 -0.178931,0.357862 0.3016936,1.173956 0.093545,1.590255 -0.020278,0.04056 -0.2624529,-0.226095 -0.2806332,-0.280636 -0.019719,-0.05916 0,-0.124725 0,-0.187087 -0.031181,-0.124727 -0.045796,-0.25481 -0.093544,-0.374179 -0.092504,-0.231259 -0.2615536,-0.523105 -0.3741772,-0.748353 -0.056281,-0.112561 -0.3523425,-0.236963 -0.3741775,-0.280633 -0.064079,-0.128159 -0.028986,-0.338606 -0.093544,-0.467722 -0.058093,-0.116187 -0.4271806,-0.520724 -0.4677217,-0.561266 -0.044097,-0.0441 -0.1313096,0.02789 -0.1870886,0 -0.1377497,-0.06887 -0.1241134,-0.124113 -0.1870887,-0.18709 -0.1942154,-0.194214 -0.75558988,-0.09354 -1.02898768,-0.09354 -0.24621381,0 -1.20389833,-0.01217 -1.21607631,0 -0.0220485,0.02204 0.0278895,0.0796 0,0.09354 -0.0557791,0.02789 -0.12792604,-0.01971 -0.18708867,0 -0.14601158,0.04867 -0.47570534,0.288618 -0.56126604,0.374179 -0.022049,0.02204 0.022048,0.0715 0,0.09354 -0.061326,0.06132 -0.3273115,0.04668 -0.3741773,0.09354 -0.022049,0.02204 0.022048,0.0715 0,0.09355 -0.061326,0.06133 -0.3273115,0.04668 -0.3741773,0.09354 -0.022049,0.02204 0.022048,0.0715 0,0.09354 -0.031182,0.03118 -0.2494516,0.06236 -0.280633,0.09355 -0.062363,0.06236 -0.031181,0.218268 -0.093544,0.280633 -0.085572,0.08557 -0.3341517,0.107037 -0.3741774,0.187087 -0.027889,0.05578 0.019722,0.127926 0,0.18709 -0.066011,0.198035 -0.1995569,0.11848 -0.2806329,0.280633 -0.049673,0.09934 -0.010157,0.29079 -0.093544,0.374176 -0.052018,0.05202 -0.2158137,0.150995 -0.2806329,0.280633 -0.096577,0.193154 0,0.718293 0,0.935445 0,0.169167 0.00786,0.662665 0.093544,0.748355 0.022048,0.02204 0.062363,0 0.093544,0 0.031182,0 0.071496,-0.02204 0.093545,0 0.026882,0.02688 0.3303297,0.445797 0.3741772,0.46772 0.055779,0.02789 0.1429914,-0.04409 0.1870888,0 0.022048,0.02204 -0.022048,0.0715 0,0.09355 0.1065797,0.10658 1.3901295,-0.106582 1.4967093,0 0.068173,0.06817 0.094824,0.281911 0.18708867,0.374177 0.12472577,0.124724 0.0935443,-0.155909 0.0935443,0.09354 0,0.0249 0.0154477,0.27291 0,0.280633 -0.0557791,0.02789 -0.13130961,-0.02789 -0.18708867,0 -0.027889,0.01394 0.02789,0.0796 0,0.09355 -0.055779,0.02789 -0.127926,-0.01971 -0.1870886,0 -0.1333449,0.04445 -0.1347003,0.1347 -0.1870887,0.187087 -0.044097,0.0441 -0.1429915,-0.04409 -0.1870887,0 -0.022048,0.02204 0.022049,0.0715 0,0.09355 -0.080295,0.0803 -0.3062469,0.05123 -0.3741773,0.187087 -0.1668868,0.333774 0.1680139,0.316955 0.280633,0.654812 0.019721,0.05916 -0.02789,0.13131 0,0.187087 0.013945,0.02789 0.071496,-0.02204 0.093544,0 0.044097,0.0441 -0.044097,0.142991 0,0.187089 0.022049,0.02204 0.071496,-0.02204 0.093544,0 0.05352,0.05352 0,0.370912 0,0.467723 0,0.265848 -0.00393,2.241137 0.093544,2.338607 0.1175991,0.117599 0.3579733,0.26443 0.46772164,0.374179 0.0574709,0.05747 0.0617996,0.217987 0.18708867,0.280633 0.28277412,0.141385 2.07203659,0.46069 2.43215269,0.280633 0.02789,-0.01394 -0.022048,-0.0715 0,-0.09355 0.031182,-0.03118 0.2494516,-0.06236 0.280633,-0.09354 0.046772,-0.04677 -0.046772,-0.23386 0,-0.280633 0.022048,-0.02204 0.071496,0.02204 0.093544,0 0.044097,-0.0441 -0.019721,-0.127926 0,-0.187089 0.1113042,-0.333912 0.594176,-0.487932 0.9354435,-0.374177 0.1000186,0.03334 0.7056302,0.331455 0.7483546,0.374177 0.022048,0.02204 -0.02789,0.0796 0,0.09355 0.055779,0.02789 0.1279261,-0.01971 0.1870885,0 0.291982,0.09733 -0.031181,0.06236 0.093545,0.187087 0.061326,0.06133 0.3273115,0.04668 0.3741772,0.09355 0.1512477,0.151246 0.4453622,0.647356 0.7483546,0.748353 0.3636579,0.121221 0.372631,0.186317 0.7483549,0.374179 0.057792,0.02889 0.3395035,0.05887 0.3741772,0.09354 0.022048,0.02204 -0.013943,0.06565 0,0.09354 0.086888,0.173775 0.2474545,0.123727 0.3741774,0.187089 0.027889,0.01394 -0.022048,0.0715 0,0.09354 0.079497,0.0795 0.1800757,0.13681 0.280633,0.187089 0.055779,0.02789 0.1265878,-0.01513 0.1870887,0 0.2855283,0.07138 0.4907629,0.338926 0.7483547,0.467723 0.3332829,0.166639 0.9491569,0.294346 1.2160763,0.561265 0.1267814,0.126781 0.253325,0.454068 0.4677217,0.561266 0.027889,0.01394 0.062363,0 0.093544,0 0.062363,0.03118 0.1290751,0.05487 0.1870887,0.09354 0.1652024,-0.02945 0.058465,0.152011 0.093544,0.187089 0.1290617,0.129061 0.4854187,0.22248 0.5612657,0.374177 0.01394,0.02789 -0.02205,0.07149 0,0.09355 0.02205,0.02204 0.0715,-0.02204 0.09355,0 0.02205,0.02204 -0.02205,0.07149 0,0.09354 0.03118,0.03118 0.249451,0.06236 0.280633,0.09354 0.06972,0.06972 0.03885,0.198591 0.09354,0.280633 0.09594,0.143914 0.278234,0.230264 0.374177,0.374179 0.164212,0.246316 0.381518,0.662149 0.561266,0.841898 0.0493,0.0493 0.137787,0.04424 0.187089,0.09354 0.01705,0.01704 0.174242,0.535572 0.187089,0.561266 0.01394,0.02789 0.06236,0 0.09354,0 0.03118,0.03118 0.07382,0.0541 0.09354,0.09354 0.07593,0.151853 0.08819,0.371499 0.280633,0.467723 0.02789,0.01394 0.0715,-0.02204 0.09355,0 0.177396,0.177398 0.0097,0.38387 0.187088,0.561266 0.113936,0.113935 0.208998,0.04382 0.280633,0.187089 0.04824,0.09649 0.05504,0.214606 0.187089,0.280633 0.152145,0.07607 0.315577,0.20456 0.467722,0.280633 0.06236,0.03118 0.03118,0.155906 0.09354,0.187087 0.05578,0.02789 0.13131,-0.02789 0.187089,0 0.222836,0.111419 0.720953,0.493945 0.935443,0.654812 0.57425,0.430686 -0.179033,-0.18306 0.374177,0.09354 0.02789,0.01394 -0.02205,0.0715 0,0.09355 0.0441,0.0441 0.1352,-0.03459 0.187089,0 0.170408,0.113605 0.211798,0.199443 0.374177,0.280633 0.05578,0.02789 0.142992,-0.0441 0.187089,0 0.0493,0.0493 0.04424,0.137785 0.09354,0.187087 0.120083,0.120084 0.291841,0.198298 0.374178,0.280633 0.07795,0.07795 0.01559,0.296225 0.09354,0.374179 0.193547,0.193546 -0.0076,-0.295767 0.187089,0.09354 0.09887,0.197741 -0.08392,1.767718 -0.187089,1.870887 -0.05747,0.05747 -0.217988,0.0618 -0.280633,0.187087 -0.07381,0.147616 -0.263178,0.450268 -0.374177,0.561266 -0.02205,0.02204 -0.0715,-0.02204 -0.09354,0 -0.0441,0.0441 0.0441,0.142991 0,0.187089 -0.0469,0.0469 -0.241944,0.07102 -0.280633,0.18709 -0.01972,0.05916 0.03459,0.135199 0,0.187087 -0.03867,0.05802 -0.148412,0.03553 -0.187088,0.09355 -0.03459,0.05189 0.03459,0.135199 0,0.187087 -0.0764,0.114607 -0.232735,0.0434 -0.280633,0.187089 -0.06589,0.197657 0.06206,0.343149 -0.187089,0.467723 -0.02789,0.01394 -0.0715,-0.02204 -0.09354,0 -0.121054,0.121054 -0.01764,0.59655 -0.09355,0.748355 -0.09696,0.193929 -0.181478,0.456499 -0.280633,0.654809 -0.110729,0.221459 -0.327345,0.327346 -0.467721,0.467723 -0.03242,0.03242 -0.154848,0.358055 -0.187089,0.374176 -0.164759,0.08238 -0.179858,-0.0072 -0.280633,0.09354 -0.0441,0.0441 0.0441,0.142991 0,0.187089 -0.0392,0.0392 -0.223939,0.0652 -0.280633,0.09354 -0.196549,0.09827 0.0018,0.185271 -0.09354,0.280633 -0.03118,0.03118 -0.249452,0.06236 -0.280633,0.09355 -0.193547,0.193545 0.295765,-0.0076 -0.09354,0.187087 -0.02789,0.01394 -0.0715,-0.02204 -0.09354,0 -0.0441,0.0441 0.05578,0.159199 0,0.187089 -0.05578,0.02789 -0.127926,-0.01971 -0.187089,0 -0.208137,0.06938 -0.104317,0.291407 -0.187088,0.374176 -0.0441,0.0441 -0.13131,-0.02789 -0.187089,0 -0.01824,0.0091 -0.07325,0.166794 -0.09354,0.18709 -0.06615,0.06615 -0.196965,-0.04183 -0.280633,0 -0.01824,0.0091 -0.07325,0.166791 -0.09355,0.187089 -0.114867,0.114867 -0.643578,-0.01124 -0.748354,0.09354 -0.02205,0.02204 0.02205,0.0715 0,0.09354 -0.04677,0.04677 -0.233861,-0.04677 -0.280633,0 -0.124726,0.124728 0.198437,0.08976 -0.09355,0.18709 -0.220511,0.0735 -0.580077,0.205901 -0.748354,0.374179 -0.061326,0.06133 -0.046679,0.327311 -0.093545,0.374176 -0.046896,0.0469 -0.2419448,0.07103 -0.2806329,0.18709 -0.030862,0.09258 -0.020436,0.301067 -0.093544,0.374176 -0.022048,0.02204 -0.071496,-0.02204 -0.093545,0 -0.2644609,0.264462 -0.4623621,0.742995 -0.7483547,1.028989 -0.049277,0.04928 -0.2594541,0.144729 -0.2806329,0.187086 -0.02789,0.05578 0.027889,0.131311 0,0.18709 -0.00835,0.01669 -0.2668593,0.173315 -0.280633,0.18709 -0.062363,0.06236 -0.031181,0.218268 -0.093544,0.280632 -0.022048,0.02204 -0.071496,-0.02204 -0.093545,0 -0.1883767,0.188376 -0.2873666,0.394378 -0.3741772,0.65481 -0.060223,0.180668 -0.1589336,0.03269 -0.2806332,0.09354 -0.068807,0.0344 -0.07208,0.316675 -0.1870885,0.374179 -0.2078101,0.103905 -0.4361751,0.264859 -0.6548104,0.374177 -0.3893092,0.194654 0.1000022,-0.0065 -0.093544,0.187089 -0.044097,0.0441 -0.1313098,-0.02789 -0.1870887,0 -0.1508911,0.07545 -0.036198,0.111644 -0.1870888,0.187087 -0.1627351,0.08137 -0.5347033,0.160528 -0.6548104,0.280633 -0.2147633,0.214765 -0.282082,0.469172 -0.5612659,0.748355 -0.061326,0.06133 -0.2337673,0.140224 -0.2806329,0.18709 -0.083387,0.08339 -0.043871,0.274831 -0.093545,0.374176 -0.4121081,0.824217 -0.3741772,1.945156 -0.3741772,3.086964 0,0.118977 -0.075729,0.672626 0,0.748355 0.022048,0.02205 0.071496,-0.02205 0.093544,0 0.044097,0.0441 0,0.124725 0,0.187088 0,0.2163 0.1865855,0.468728 0.093545,0.654811 -0.036679,0.07336 -0.3495913,-0.08125 -0.3741774,-0.09354 -0.074209,-0.0371 -0.1770158,-0.182052 -0.1870888,-0.187088 -0.055779,-0.02789 -0.127926,0.01972 -0.1870887,0 -0.1074526,-0.03582 -0.1297858,-0.223331 -0.1870884,-0.280633 -0.044097,-0.0441 -0.1429915,0.0441 -0.1870888,0 -0.1300757,-0.130076 -0.2076257,-0.30117 -0.3741774,-0.467722 -0.022048,-0.02205 -0.062363,0 -0.093544,0 -0.031181,-0.03118 -0.069084,-0.05685 -0.093544,-0.09354 -0.1242285,-0.186343 -0.2285168,-0.415606 -0.3741773,-0.561266 -0.2628132,-0.262814 -0.4107199,-0.329357 -0.6548104,-0.65481 -0.083669,-0.111559 -0.1429914,-0.241887 -0.1870886,-0.374179 -0.017636,-0.05291 0.037571,-0.243062 0,-0.280633 -0.022048,-0.02204 -0.071496,0.02204 -0.093544,0 -0.1242871,-0.124285 -0.34933476,-1.471866 -0.37417733,-1.496708 -0.0220485,-0.02204 -0.0714957,0.02204 -0.0935443,0 -0.14410941,-0.144111 0.0923984,-0.750647 0,-0.935442 -0.12312383,-0.246248 -0.006793,-0.488104 -0.0935443,-0.748356 -0.10259641,-0.30779 -0.1456061,-0.571846 -0.28063298,-0.841899 -0.1105409,-0.221083 0,-2.111351 0,-2.525696 0,-0.199673 0.0104166,-0.301467 0.0935443,-0.467723 0.14173996,-0.28348 -0.0403708,-1.094965 0.0935443,-1.496711 0.0614619,-0.184385 -0.0865587,-0.481692 0,-0.654809 0.18967156,-0.379344 0.42076671,-0.794578 0.56126601,-1.216075 0.065963,-0.19789 0.077713,-1.060651 0,-1.216078 -0.061524,-0.123047 -0.14492001,-0.247671 -0.18708867,-0.374177 -0.0295813,-0.08874 0.0418343,-0.196963 0,-0.280632 -0.0648192,-0.129638 -0.22861476,-0.228616 -0.28063301,-0.280633 -0.0391991,-0.0392 -0.0651976,-0.223941 -0.0935443,-0.280633 -0.0311814,-0.06236 -0.15590721,-0.03118 -0.18708865,-0.09354 -0.0497456,-0.09949 -0.0857044,-0.545587 -0.18708867,-0.748355 -0.13230874,-0.264618 0.19050558,-0.928611 0,-1.309622 -0.1037917,-0.207584 -0.55461566,-0.835247 -0.65481035,-0.935442 -0.0391991,-0.0392 -0.22393944,-0.0652 -0.28063298,-0.09355 -0.38930917,-0.194654 0.10000221,0.0065 -0.0935443,-0.187087 -0.0992123,-0.09921 -0.27891537,0.0034 -0.37417727,-0.187089 -0.02789,-0.05578 0.02789,-0.13131 0,-0.18709 -0.1039736,-0.207947 -0.394973,-0.582062 -0.561266,-0.748353 -0.053741,-0.05374 -0.534036,-0.413263 -0.561266,-0.467722 -0.051161,-0.102322 -0.090549,-0.277638 -0.1870887,-0.374177 -0.020297,-0.02029 -0.1779695,-0.07531 -0.1870886,-0.09355 -0.092515,-0.185028 -0.00321,-0.474146 -0.093544,-0.654809 -0.2238618,-0.447725 -0.2806329,-1.268624 -0.2806329,-1.870887 0,-0.153699 0.07247,-0.446649 0.1870887,-0.561266 0.022048,-0.02204 0.0796,0.02789 0.093544,0 0.02789,-0.05578 -0.044097,-0.142992 0,-0.18709 0.044097,-0.04409 0.1313098,0.02789 0.1870888,0 0.02789,-0.01394 -0.013945,-0.06565 0,-0.09354 0.036425,-0.07285 0.3388948,-0.525984 0.3741773,-0.561266 0.022049,-0.02204 0.071496,0.02204 0.093544,0 0.073108,-0.07311 0.062682,-0.281591 0.093544,-0.374176 0.049302,-0.147908 0.2227305,-0.229423 0.280633,-0.374179 0.074846,-0.187114 0.052035,-0.353719 0.093544,-0.561266 0.1181419,-0.590709 0.019056,-0.01905 0.1870887,-0.187087 0.022048,-0.02204 0.031181,-0.09355 0,-0.09355 -0.044097,0 -0.093544,0.137641 -0.093544,0.09355 0,-0.208751 0.124655,-0.218202 0.1870887,-0.280633 0.044097,-0.0441 -0.027889,-0.13131 0,-0.18709 0.031382,-0.06276 0.3574825,-0.247242 0.3741773,-0.280633 0.0418343,-0.08367 -0.066146,-0.214487 0,-0.280633 0.022049,-0.02204 0.0714958,0.02204 0.0935444,0 0.0436965,-0.0437 0.15462313,-0.679571 0.18708867,-0.841898 0.0464752,-0.232376 0.3918872,-1.087112 0.28063298,-1.309622 -0.0293458,-0.05869 -0.75478082,-0.380603 -0.84189902,-0.467722 -0.046772,-0.04677 -0.046772,-0.140317 -0.093544,-0.187087 -0.044097,-0.0441 -0.1429915,0.04409 -0.1870887,0 -0.057471,-0.05747 -0.0618,-0.21799 -0.1870886,-0.280633 -0.055779,-0.02789 -0.1429915,0.04409 -0.1870887,0 -0.1644596,-0.16446 -0.1186361,-0.449453 -0.1870887,-0.654812 -0.035552,-0.106656 -0.1515363,-0.173974 -0.1870886,-0.280633 -0.02492,-0.07476 0.052767,-0.321411 0,-0.374176 -0.083857,-0.08386 -0.3639585,-0.218533 -0.4677218,-0.374177 -0.1047697,-0.157154 -0.1477999,-0.428434 -0.2806329,-0.561268 -0.022048,-0.02204 -0.071496,0.02204 -0.093544,0 -0.046772,-0.04677 0.046772,-0.23386 0,-0.280633 -0.109135,-0.109133 -0.2650423,-0.171498 -0.3741774,-0.280633 -0.1870887,-0.187087 0.1870887,-0.935443 0,-1.122532 -0.046772,-0.04677 -0.1403165,-0.04677 -0.1870887,-0.09354 -0.022048,-0.02204 0.02789,-0.0796 0,-0.09354 -0.055779,-0.02789 -0.1313096,0.02789 -0.1870885,0 -0.02789,-0.01394 0.022048,-0.0715 0,-0.09355 -0.049302,-0.0493 -0.1377865,-0.04424 -0.1870887,-0.09354 -0.073712,-0.07371 -0.1440995,-0.237644 -0.1870887,-0.280633 -0.193824,-0.193824 -0.1885077,-0.09426 -0.3741775,-0.18709 -0.389309,-0.194654 0.1000024,0.0065 -0.093544,-0.187087 -0.077954,-0.07795 -0.2962238,-0.01558 -0.3741772,-0.09355 -0.022048,-0.02204 0.031181,-0.09354 0,-0.09354 -0.072757,0 0.2182699,0.68599 0,-0.18709 -0.044321,-0.177284 -0.099844,-0.04992 -0.1870887,-0.09354 -0.1965489,-0.09827 0.00183,-0.185272 -0.093545,-0.280633 -0.062975,-0.06298 -0.1182137,-0.04934 -0.1870885,-0.18709 -0.1477219,-0.295441 -0.182204,-1.39828 -0.3741774,-1.590254 -0.022048,-0.02204 -0.071496,0.02204 -0.093544,0 -0.00401,-0.004 -0.021013,-1.828861 0.093544,-2.057974 0.063624,-0.127249 0.2582931,-0.247124 0.2806329,-0.280633 0.1700572,-0.255085 0.1845225,-0.37161 0.3741775,-0.561266 0.1935464,-0.193545 -0.00757,0.295764 0.1870887,-0.09354 0.02789,-0.05578 -0.02789,-0.131311 0,-0.18709 0.1946545,-0.389308 -0.00646,0.100002 0.1870884,-0.09354 0.044097,-0.0441 -0.044097,-0.142992 0,-0.18709 0.022048,-0.02204 0.071496,0.02204 0.093545,0 0.046866,-0.04687 0.032218,-0.312851 0.093544,-0.374176 0.058036,-0.05804 0.218036,-0.15544 0.2806329,-0.280633 0.1151978,-0.230397 -0.2715342,0.08444 0.093545,-0.280633 0.023146,-0.02315 0.5188559,-0.404109 0.5612659,-0.467723 0.034593,-0.05189 -0.019722,-0.127926 0,-0.187089 0.082684,-0.248052 0.6444949,-0.649653 0.8418989,-0.748356 0.080534,-0.04027 0.3569822,-0.450524 0.4677218,-0.561266 0.069724,-0.06972 0.2109092,-0.02381 0.280633,-0.09354 0.049302,-0.0493 0.044242,-0.137787 0.093544,-0.18709 0.069684,-0.06968 0.3213216,-0.134231 0.3741774,-0.187086 0.075239,-0.07524 0.2404188,-0.37855 0.3741773,-0.467723 0.088515,-0.05901 0.46772167,-0.254153 0.46772167,-0.280633 0,-0.03118 -0.11559297,0.02204 -0.0935444,0 0.098002,-0.098 0.39674043,-0.116107 0.46772168,-0.187089 0.0220485,-0.02204 0,-0.06236 0,-0.09354 0.0311814,-0.06236 0.0442421,-0.137787 0.0935443,-0.187089 0.0910089,-0.09101 0.73547374,-0.44196 0.74835469,-0.46772 0.0278895,-0.05578 -0.0440972,-0.142992 0,-0.18709 0.0440972,-0.0441 0.13519959,0.03459 0.18708867,0 0.0935443,-0.06236 0.0971476,-0.213177 0.18708864,-0.280633 0.0935443,-0.06236 0.18708868,-0.124727 0.28063301,-0.187089 0,-0.03118 -0.0220485,-0.0715 0,-0.09354 0.0697239,-0.06972 0.19858921,-0.03885 0.28063301,-0.09354 0.1105461,-0.0737 0.1309369,-0.224483 0.1870887,-0.280633 0.1536793,-0.153681 0.4818795,-0.201247 0.6548103,-0.374179 0.1689341,-0.168934 0.3582991,-0.451842 0.4677217,-0.561266 0.054218,-0.05422 0.3199592,-0.132871 0.3741773,-0.187089 0.022048,-0.02204 0,-0.06236 0,-0.09354 0.031181,-0.03118 0.056853,-0.06908 0.093545,-0.09354 0.2233851,-0.148924 0.5833528,-0.302721 0.7483546,-0.467723 0.022048,-0.02204 -0.022048,-0.07149 0,-0.09354 0.1039964,-0.103997 1.7161563,-0.312992 1.7773423,-0.374179 0.022048,-0.02204 -0.022048,-0.0715 0,-0.09354 0.2750298,-0.275029 1.0543476,-0.736118 1.403165,-0.935442 0.2109102,-0.12052 0.4755634,-0.194932 0.6548104,-0.374179 0.022048,-0.02204 -0.022048,-0.0715 0,-0.09354 0.1214776,-0.121479 0.6620349,-0.0036 0.8418989,-0.09354 0.4327895,-0.216395 1.0899859,-0.24911 1.5902537,-0.374179 0.290928,-0.07273 0.29992,-0.30884 0.561266,-0.374176 0.09075,-0.0227 0.189881,0.02267 0.280633,0 0.186472,-0.04662 0.200667,-0.193879 0.374177,-0.280633 0.124726,-0.06236 0.342996,0.06236 0.467722,0 0.441773,-0.220888 1.021792,0.06476 1.496709,-0.09354 0.576756,-0.192254 1.094975,-0.237704 1.777342,-0.374179 0.0715,-0.01431 0.544741,-0.07702 0.561266,-0.09354 0.02205,-0.02204 -0.02205,-0.0715 0,-0.09354 0.07795,-0.07795 0.389768,0.07795 0.467722,0 0.02205,-0.02204 -0.02205,-0.07149 0,-0.09355 0.07549,-0.07549 2.053834,0.09313 2.057975,0.09355 0.1988,0.01987 0.559287,-0.07563 0.748355,0 0.129474,0.05179 0.235422,0.173212 0.374177,0.187087 0.188728,0.01886 0.373503,-0.06672 0.561266,-0.09354 0.16676,-0.02381 0.153825,0.06818 0.280633,0.09354 0.135053,0.02701 1.26051,-0.04911 1.309621,0 0.02205,0.02204 -0.02789,0.0796 0,0.09355 0.04135,0.02066 0.951518,0.17602 1.028988,0.187087 0.422779,0.0604 1.00943,0.03699 1.30962,0.18709 0.02789,0.01394 -0.02205,0.07149 0,0.09354 0.0251,0.02511 1.357908,0.04829 1.49671,0.18709 0.02476,0.02476 0,0.242115 0,0.280633 0,0.676521 -0.468934,0.656021 -0.841899,1.028988 -0.0441,0.04409 0.0441,0.142991 0,0.187087 -0.04677,0.04677 -0.140317,0.04677 -0.187089,0.09355 -0.04677,0.04677 0.04677,0.23386 0,0.280633 -0.02205,0.02204 -0.0715,-0.02204 -0.09354,0 -0.08993,0.08993 -0.06703,0.347657 -0.187089,0.46772 -0.140316,0.140316 -0.701583,-0.140317 -0.841899,0 -0.0441,0.0441 0.0441,0.142991 0,0.187089 -0.167867,0.167868 -0.747681,0.560255 -0.935443,0.841899 -0.08463,0.12695 -0.129696,0.259392 -0.187089,0.374179 -0.08611,0.172215 -0.194525,0.01487 -0.280633,0.187087 -0.02835,0.05669 -0.05434,0.241435 -0.09354,0.280633 -0.109135,0.109135 -0.265043,0.171498 -0.374178,0.280633 -0.02205,0.02204 0.02205,0.0715 0,0.09355 -0.140316,0.140317 -0.608038,-0.04677 -0.748354,0.09354 -0.08279,0.08279 -0.192153,0.418418 -0.467722,0.280633 -0.207743,-0.103872 -0.521442,-0.361214 -0.65481,-0.561265 -0.159387,-0.239081 -0.08135,-0.911046 -0.187089,-1.122532 -0.09702,-0.194038 -0.184501,-0.369001 -0.280633,-0.561266 -0.04967,-0.09935 -0.01016,-0.290791 -0.09354,-0.374179 -0.0203,-0.02029 -0.17797,-0.07531 -0.187089,-0.09354 -0.0022,-0.0044 -0.01942,-0.335346 0,-0.374176 0.14253,-0.28506 0.355733,-0.355735 0.561266,-0.561266 0.0441,-0.0441 -0.0441,-0.142991 0,-0.18709 0.02205,-0.02204 0.0715,0.02204 0.09354,0 0.06236,-0.06236 -0.06236,-0.311814 0,-0.374176 0.02205,-0.02204 0.0715,0.02204 0.09355,0 0.08482,-0.08482 -0.01717,-0.918273 0.187088,-1.122532 0.07926,-0.07926 0.441531,-0.220765 0.561266,-0.280633 0.211679,-0.105841 1.481787,-0.0075 1.683798,0.09354 0.176397,0.0882 0.465286,-0.06318 0.654811,0 0.678766,0.226256 1.423819,0.349879 2.057975,0.561266 0.01888,0.0063 0.343054,-0.03112 0.374177,0 0.04677,0.04677 0.04677,0.140316 0.09354,0.187089 0.02205,0.02204 0.07149,-0.02204 0.09354,0 0.0441,0.0441 -0.0441,0.142992 0,0.187087 0.02205,0.02204 0.0715,-0.02204 0.09354,0 0.06615,0.06615 0,0.550905 0,0.654812 0,0.327435 -0.02171,0.208796 -0.187088,0.374176 -0.193547,0.193546 0.295764,-0.0076 -0.09354,0.18709 -0.05578,0.02789 -0.142991,-0.0441 -0.187088,0 -0.04677,0.04677 -0.04677,0.140316 -0.09355,0.187087 -0.0441,0.0441 -0.142991,-0.0441 -0.187088,0 -0.02205,0.02204 0.02205,0.0715 0,0.09355 -0.02205,0.02204 -0.0715,-0.02204 -0.09354,0 -0.02205,0.02204 0.02205,0.0715 0,0.09354 -0.02205,0.02204 -0.0715,-0.02204 -0.09354,0 -0.02205,0.02204 0.02205,0.0715 0,0.09354 -0.02205,0.02204 -0.0715,-0.02204 -0.09354,0 -0.02205,0.02204 0.02205,0.0715 0,0.09355 -0.02205,0.02204 -0.0715,-0.02204 -0.09355,0 -0.223493,0.223493 -0.374177,0.547537 -0.374177,0.935442 0,0.174578 -0.01997,0.133482 -0.09354,0.280633 -0.03884,0.07769 0,0.285496 0,0.374179 0,0.146471 -0.258104,0.258104 -0.467722,0.46772 -0.03645,0.03645 0,0.317093 0,0.374179 0,0.118822 -0.008,-0.004 0.187089,0.09354 0.389309,0.194654 -0.100002,-0.0065 0.09354,0.18709 0.06133,0.06132 0.327311,0.04668 0.374177,0.09354 0.02205,0.02204 -0.02205,0.0715 0,0.09354 0.06236,0.06236 0.311815,-0.06236 0.374178,0 0.02205,0.02204 -0.02205,0.0715 0,0.09355 0.03645,0.03645 0.317092,0 0.374177,0 0.476335,0 0.561266,-0.334743 0.561266,-0.748355 0,-0.194398 -0.01408,-0.575345 -0.09354,-0.65481 -0.04677,-0.04677 -0.140317,-0.04677 -0.187089,-0.09355 -0.02205,-0.02204 0.02205,-0.0715 0,-0.09354 -0.01105,-0.01106 -0.902923,-0.126064 -0.935443,-0.09355 -0.02205,0.02204 0.01395,0.06566 0,0.09355 -0.06446,0.128913 -0.219387,0.125841 -0.280633,0.187089 -0.135168,0.135165 0.0023,0.369581 -0.09355,0.561266 -0.03964,0.07927 -0.203964,0.450845 -0.09354,0.561266 0.109108,0.109106 0.280875,0.187209 0.467722,0.280633 0.07769,0.03884 0.285494,0 0.374177,0 0.08871,0 0.504775,0.05649 0.561266,0 0.02205,-0.02204 -0.02205,-0.0715 0,-0.09355 0.04677,-0.04677 0.140316,-0.04677 0.187089,-0.09354 0.02729,-0.02729 0.152616,-1.063461 0.09354,-1.122531 -0.269343,-0.269344 -1.465087,-0.06192 -1.590254,-0.18709 -0.0441,-0.04409 0.0441,-0.142991 0,-0.187089 -0.02205,-0.02204 -0.07149,0.02204 -0.09354,0 -0.0441,-0.0441 0,-0.124725 0,-0.187087 0,-0.714957 0.290318,-0.48709 0.561266,-1.028989 0.02789,-0.05578 -0.0441,-0.142991 0,-0.187089 0.0441,-0.0441 0.142992,0.0441 0.187089,0 0.04677,-0.04677 0.04677,-0.140317 0.09354,-0.187087 0.02205,-0.02204 0.0715,0.02204 0.09354,0 0.0441,-0.0441 -0.0441,-0.142991 0,-0.18709 0.0441,-0.0441 0.142992,0.0441 0.187089,0 0.06106,-0.06106 0.144661,-0.289321 0.187089,-0.374176 0.194654,-0.389311 -0.0065,0.100002 0.187088,-0.09355 0.0441,-0.0441 -0.02789,-0.131307 0,-0.187087 0.05023,-0.100454 0.691707,-0.626486 0.748355,-0.654812 0.355885,-0.17794 0.914772,0.111763 1.216076,0.18709 0.161708,0.04043 0.402514,0.196532 0.65481,0.280633 0.05916,0.01971 0.13131,-0.02789 0.187089,0 0.07888,0.03944 0.101529,0.165697 0.18709,0.187089 0.116319,0.02908 0.45888,-0.0088 0.561266,0.09354 0.02204,0.02204 -0.02789,0.0796 0,0.09354 0.05578,0.02789 0.127926,-0.01971 0.187087,0 0.06876,0.02291 0.466066,0.311264 0.654812,0.374179 0.08632,0.02877 0.320611,0.03998 0.374176,0.09354 0.06298,0.06298 0.04934,0.118214 0.18709,0.18709 0.05578,0.02789 0.142991,-0.0441 0.187089,0 0.02204,0.02204 -0.02204,0.0715 0,0.09354 0.04324,0.04324 0.224152,-0.02824 0.280633,0 0.345107,0.172554 0.742688,0.279218 1.122532,0.374177 0.0605,0.01513 0.131307,-0.02789 0.187087,0 0.306556,0.153278 0.533471,0.407053 0.841899,0.561266 0.09593,0.04796 0.278251,0.04558 0.374179,0.09355 0.07888,0.03944 0.108204,0.147645 0.187086,0.187087 0.05779,0.0289 0.339506,0.05887 0.374179,0.09355 0.06297,0.06298 0.04934,0.118213 0.187087,0.187087 0.05578,0.02789 0.142992,-0.0441 0.18709,0 0.04689,0.0469 0.07102,0.241945 0.187089,0.280635 0.08874,0.02958 0.214488,-0.06615 0.280633,0 0.684313,0.684313 -1.566963,0.444429 -1.683797,0.561266 -0.0713,0.07129 0.05742,2.021851 0.09354,2.057974 0.04677,0.04677 0.140317,0.04677 0.18709,0.09354 0.04205,0.04206 0.144661,0.569957 0.187086,0.654812 0.11642,0.232838 0.286134,0.286133 0.467723,0.467719 0.02204,0.02204 -0.02204,0.0715 0,0.09355 0.03118,0.03118 0.249452,0.06236 0.280633,0.09354 0.0493,0.0493 0.04424,0.137787 0.09354,0.187089 0.0441,0.0441 0.13131,-0.02789 0.18709,0 0.135059,0.06753 0.23912,0.11956 0.374176,0.187087 0.05648,0.02824 0.237392,-0.04324 0.280633,0 0.02204,0.02204 -0.02789,0.0796 0,0.09355 0.04917,0.02458 0.539599,0.187087 0.654812,0.187087 0.249452,0 -0.03118,-0.03118 0.09354,0.09355 0.109135,0.109136 0.545676,-0.109135 0.654812,0 0.06614,0.06615 0,0.374177 0,0.280633 0,-0.06236 -0.06236,-0.187089 0,-0.187089 0.19818,0 0.02835,0.496075 0.09354,0.561266 0.02204,0.02204 0.0715,-0.02204 0.09354,0 0.04868,0.04867 0,0.295084 0,0.374179 0,0.03118 0,0.124724 0,0.09354 0,-0.06236 -0.06236,-0.187089 0,-0.187089 0.06065,0 0.18709,0.714896 0.18709,0.748355 0,0.18709 0,0.374177 0,0.561266 0,0.09354 0,0.374176 0,0.280633 0,-0.06236 0.06236,-0.18709 0,-0.18709 -0.25759,0 -0.02643,0.213506 -0.09354,0.280633 -0.02029,0.02029 -0.177972,0.07531 -0.18709,0.09355 -0.02789,0.05578 0.0441,0.142991 0,0.187086 -0.0441,0.0441 -0.13131,-0.02789 -0.187089,0 -0.02789,0.01394 0.02789,0.0796 0,0.09355 -0.05578,0.02789 -0.131311,-0.02789 -0.187087,0 -0.143465,0.07173 -0.31146,0.31146 -0.374179,0.374177 -0.03118,0.03118 -0.249452,0.06236 -0.280633,0.09354 -0.06132,0.06133 -0.140222,0.233768 -0.18709,0.280633 -0.07795,0.07795 -0.296222,0.01558 -0.374176,0.09355 -0.06721,0.06721 -0.206219,0.299763 -0.280633,0.374177 -0.18709,0.187089 -0.935443,-0.18709 -1.122532,0 -0.02204,0.02204 0.02204,0.07149 0,0.09354 -0.145256,0.145256 -0.612161,0.144441 -0.748355,0.280633 -0.02204,0.02204 0.02204,0.0715 0,0.09355 -0.0493,0.0493 -0.23639,0.04424 -0.187087,0.09354 0.03118,0.03118 0.06236,-0.06236 0.09354,-0.09354 -0.03118,0.06236 -0.04424,0.137787 -0.09354,0.187087 -0.02204,0.02204 -0.0715,-0.02204 -0.09355,0 -0.0516,0.0516 -0.09354,0.375002 -0.09354,0.467723 0,0.07505 -0.06204,0.592775 0,0.654812 0.04677,0.04677 0.140317,0.04677 0.18709,0.09354 0.04409,0.0441 -0.02789,0.13131 0,0.187089 0.082,0.163995 0.310986,0.202267 0.467719,0.280633 0.06236,0.03118 0.03118,0.155906 0.09355,0.187087 0.05578,0.02789 0.127926,-0.01971 0.187086,0 0.291984,0.09733 -0.03118,0.06236 0.09355,0.18709 0.06614,0.06615 0.196963,-0.04183 0.280632,0 0.0167,0.0083 0.173316,0.266859 0.187087,0.280633 0.03935,0.03935 0.339916,-0.01714 0.374179,0 0.02789,0.01394 -0.02204,0.07149 0,0.09354 0.02477,0.02477 0.242115,0 0.280633,0 0.197337,0 1.171559,0.138062 1.216076,0.09355 0.04677,-0.04677 0.04677,-0.140316 0.09355,-0.187089 0.04409,-0.0441 0.142991,0.0441 0.187087,0 0.193548,-0.193548 -0.295765,0.0076 0.09355,-0.18709 0.132151,-0.06608 0.190108,-0.003 0.280633,-0.09354 0.01762,-0.01762 0.187086,-1.041218 0.187086,-1.122532 0,-0.124727 -0.08819,-0.285983 0,-0.374179 0.0493,-0.0493 0.124728,-0.06236 0.18709,-0.09354 0.03287,-0.01643 1.762911,-0.05399 2.057974,0.09354 0.389311,0.194657 -0.100002,-0.0065 0.09355,0.187089 0.193546,0.193548 -0.0076,-0.295764 0.187087,0.09354 0.03894,0.07789 -0.05934,0.314844 0,0.374179 0.02204,0.02204 0.0715,-0.02204 0.09355,0 0.03715,0.03715 0.126997,0.441084 0.187087,0.561266 0.09382,0.187648 0.338066,0.24452 0.467722,0.374176 0.02204,0.02204 -0.02204,0.0715 0,0.09355 0.160957,0.160957 0.918584,-0.429381 1.216078,-0.280633 0.175501,0.08775 0.04,0.120002 0.09354,0.280633 0.06022,0.180668 0.158932,0.03269 0.280633,0.09354 0.08099,0.04049 0.05583,0.298746 0.09354,0.374176 0.05959,0.119184 0.302665,0.396211 0.374179,0.467723 0.06615,0.06614 0.202798,0.05189 0.280633,0 0.08204,-0.0547 0.02381,-0.21091 0.09354,-0.280633 0.03184,-0.03184 0.514747,-0.02326 0.561266,0 0.05583,0.02792 0.44918,0.346366 0.467722,0.374176 0.06053,0.0908 0.01714,0.297791 0.09354,0.374179 0.0441,0.0441 0.142992,-0.0441 0.18709,0 0.193545,0.193545 -0.295764,-0.0076 0.09354,0.187087 0.317347,0.158673 0.691452,0.2427 1.028989,0.467722 0.214905,0.14327 -0.04011,0.05343 0.187087,0.280633 0.111926,0.111927 0.253722,0.133263 0.280633,0.18709 0.02789,0.05578 -0.0441,0.142991 0,0.187087 0.177173,0.177173 0.195244,0.109855 0.280633,0.280633 0.02442,0.04887 -0.01836,0.654812 0,0.654812 0.03118,0 0.03118,-0.09355 0,-0.09355 -0.08819,0 -0.108204,0.147648 -0.187087,0.187089 -0.07484,0.03742 -0.205799,-0.03742 -0.280633,0 -0.189606,0.0948 -0.181936,0.181936 -0.280633,0.280633 -0.0441,0.0441 -0.124727,0 -0.18709,0 -0.25781,0 -0.807585,0.110702 -1.028988,0 -0.07888,-0.03944 -0.10342,-0.1592 -0.187087,-0.187089 -0.555485,-0.185161 -1.097412,-0.419791 -1.590254,-0.748353 -0.185317,0.0093 -0.04424,-0.137787 -0.09354,-0.18709 -0.02204,-0.02204 -0.06566,0.01394 -0.09355,0 -0.155038,-0.07752 -0.174614,-0.268158 -0.280633,-0.374176 -0.166775,-0.166775 -0.522716,-0.354902 -0.748355,-0.467723 -0.124725,-0.06236 -0.342995,0.06236 -0.46772,0 -0.430305,-0.215151 -1.062593,-0.06357 -1.496711,-0.280632 -0.09978,-0.04989 -0.274397,0.04989 -0.374176,0 -0.147117,-0.07356 -0.330661,-0.025 -0.467723,-0.09354 -0.203787,0.03497 -0.03118,-0.155908 -0.09354,-0.187089 -0.196091,-0.09805 -1.050854,0 -1.309621,0 -0.587722,0 -1.256578,-0.08005 -1.777342,0.09354 -0.08983,0.02995 -0.284398,-0.04489 -0.374179,0 -0.211658,0.105831 -0.50892,0.294367 -0.748352,0.374179 -0.08874,0.02958 -0.214488,-0.06615 -0.280633,0 -0.02204,0.02204 0.02204,0.0715 0,0.09354 -0.191807,0.191808 -0.63245,0.164727 -0.841899,0.374177 -0.02204,0.02204 0.02789,0.0796 0,0.09355 -0.05578,0.02789 -0.129188,-0.02315 -0.18709,0 -0.231677,-0.05186 -0.23473,0.210907 -0.374176,0.280633 -0.0332,0.01659 -0.272,0.07628 -0.280633,0.09354 -0.02789,0.05578 0.0441,0.142992 0,0.18709 -0.0441,0.04409 -0.127926,-0.01971 -0.18709,0 -0.03179,0.01058 -0.348107,0.415581 -0.374176,0.46772 -0.04715,0.09431 -0.608375,0.467947 -0.748355,0.561266 -0.03669,0.02445 -0.06236,0.06236 -0.09355,0.09355 -0.03118,0.06236 -0.03553,0.148412 -0.09354,0.187089 -0.05189,0.03459 -0.13131,-0.02789 -0.18709,0 -0.08681,0.0434 -0.02907,0.216165 -0.09354,0.280633 -0.04677,0.04677 -0.140316,0.04677 -0.187089,0.09354 -0.04677,0.04677 0.04677,0.233859 0,0.280633 -0.05747,0.05747 -0.217988,0.0618 -0.280633,0.187089 -0.04967,0.09935 -0.01016,0.290788 -0.09354,0.374176 -0.06298,0.06298 -0.118213,0.04934 -0.187089,0.18709 -0.02824,0.05648 0.04324,0.237389 0,0.280633 -0.02204,0.02204 -0.0715,-0.02204 -0.09354,0 -0.06112,0.06112 0.06795,1.096939 0.09354,1.122532 0.02204,0.02204 0.0715,-0.02204 0.09355,0 0.01619,0.01619 0,1.30474 0,1.403165 0,0.135469 0.05928,0.4427 0,0.561265 -0.162407,0.324811 -0.207711,0.862521 -0.467723,1.122532 -0.02204,0.02204 -0.07149,-0.02204 -0.09354,0 -0.0441,0.0441 0.0441,0.142992 0,0.18709 -0.02204,0.02204 -0.0715,-0.02204 -0.09355,0 -0.05238,0.05238 0.02032,0.406786 0,0.46772 -0.109956,0.329872 -0.414933,1.362408 -0.09354,1.683797 0.02204,0.02204 0.0715,-0.02204 0.09354,0 0.04324,0.04324 -0.02824,0.224155 0,0.280633 0.162113,0.324226 0.312113,0.68629 0.467722,0.841899 0.0441,0.0441 0.142992,-0.0441 0.18709,0 0.03004,0.03005 0.165954,0.270068 0.187087,0.280633 0.05578,0.02789 0.13131,-0.02789 0.187089,0 0.02789,0.01394 -0.02204,0.0715 0,0.09355 0.03118,0.03118 0.249452,0.06236 0.280633,0.09354 0.02204,0.02204 -0.02789,0.0796 0,0.09354 0.05578,0.02789 0.13131,-0.02789 0.18709,0 0.06236,0.03118 0.03375,0.151217 0.09354,0.18709 0.115263,0.06916 0.648671,0.224652 0.748355,0.374176 0.03459,0.05189 -0.02789,0.13131 0,0.187089 0.0057,0.01135 0.265486,0.0784 0.280633,0.09355 0.04677,0.04677 0.04677,0.140316 0.09354,0.187086 0.0441,0.0441 0.13131,-0.02789 0.187089,0 0.195385,0.09769 -0.0083,0.0894 0.18709,0.18709 0.118586,0.05929 0.473763,0.09959 0.561266,0.187089 0.113241,0.113242 0.186311,0.279856 0.280633,0.374177 0.04324,0.04324 0.224152,-0.02824 0.280633,0 0.163348,0.08167 0.01347,0.222758 0.187087,0.280633 0.298024,0.09934 0.815773,0 1.122531,0 0.919692,0 1.799405,0.09354 2.712786,0.09354 0.122627,0 0.673669,-0.07469 0.748356,0 0.02204,0.02204 0,0.06236 0,0.09355 0.06236,0 0.13131,-0.02789 0.187089,0 0.02789,0.01394 -0.02204,0.0715 0,0.09354 0.06241,0.06241 0.12468,-0.06241 0.187087,0 0.02204,0.02204 -0.02789,0.0796 0,0.09354 0.157501,0.07875 0.524071,-0.03719 0.654812,0.09355 0.02948,0.02948 0.03347,0.220562 0.09354,0.280633 0.02204,0.02204 0.07149,-0.02204 0.09354,0 0.04677,0.04677 -0.04677,0.23386 0,0.280633 0.02204,0.02204 0.0715,-0.02204 0.09355,0 0.06236,0.06236 -0.06236,0.311814 0,0.374177 0.02204,0.02204 0.0715,-0.02204 0.09354,0 0.136985,0.136985 -0.08999,0.661929 0,0.841898 0.229507,0.459013 0.07525,1.252654 -0.09354,1.590255 -0.03678,0.07356 -0.144081,0.331168 -0.187089,0.374176 -0.02204,0.02204 -0.0715,-0.02204 -0.09354,0 -0.02961,0.02961 0.05665,1.984182 0.09354,2.057977 0.04643,0.09286 0.08334,0.363969 0.09354,0.374176 0.193548,0.193546 -0.0076,-0.295764 0.18709,0.09354 0.02633,0.05265 0.130302,1.647042 0.09354,1.683797 -0.0493,0.0493 -0.137784,0.04424 -0.187087,0.09355 -0.113977,0.113977 -0.07311,0.540832 -0.187089,0.654809 -0.04687,0.04687 -0.219308,0.125764 -0.280633,0.187089 -0.03242,0.03242 -0.154848,0.358056 -0.18709,0.374177 -0.05578,0.02789 -0.142991,-0.0441 -0.187087,0 -0.0441,0.0441 0.02789,0.13131 0,0.187089 -0.0027,0.0054 -0.34704,0.226357 -0.374179,0.280633 -0.05015,0.100306 -0.151384,0.267063 -0.187087,0.374177 -0.02958,0.08874 0.06615,0.214487 0,0.280633 -0.02204,0.02204 -0.07149,-0.02204 -0.09355,0 -0.08339,0.08339 -0.04387,0.27483 -0.09354,0.374179 -0.05714,0.114273 -0.32212,0.696296 -0.374176,0.748352 -0.02204,0.02204 -0.0715,-0.02204 -0.09355,0 -0.0094,0.0094 0,1.109896 0,1.216078 0,0.312481 0.109842,1.370571 0,1.590252 -0.06076,0.121523 -0.03756,0.262213 -0.09354,0.374179 -0.03944,0.07888 -0.147648,0.108204 -0.187089,0.18709 -0.06591,0.131826 -0.117192,0.327929 -0.187087,0.467719 -0.04989,0.09978 0.04989,0.274397 0,0.374179 -0.08951,0.179017 -0.191125,0.382247 -0.280633,0.561266 -0.06523,0.130466 -0.02831,0.337254 -0.09355,0.46772 -0.03944,0.07889 -0.147646,0.108207 -0.18709,0.18709 -0.0428,0.08561 0.06347,0.310708 0,0.374176 -0.02204,0.02204 -0.0715,-0.02204 -0.09354,0 -0.09354,0.09355 0,0.374179 -0.09354,0.467723 -0.02204,0.02205 -0.0796,-0.02789 -0.09355,0 -0.04183,0.08367 0.06615,0.214487 0,0.280633 -0.04409,0.0441 -0.142991,-0.0441 -0.187087,0 -0.06615,0.06615 0.04183,0.196964 0,0.280633 -0.01394,0.02789 -0.07149,-0.02205 -0.09355,0 -0.03152,0.03152 -0.176062,1.051036 -0.09354,1.216076 0.0077,0.01545 0.255746,0 0.280633,0 0.06236,0 0.142991,0.0441 0.187089,0 0.02204,-0.02205 -0.02204,-0.0715 0,-0.09354 0.124489,-0.12449 0.488445,-0.225179 0.65481,-0.280633 0.176318,-0.05877 0.3064,-0.293516 0.467722,-0.374178 0.05669,-0.02835 0.241432,-0.05435 0.280633,-0.09354 0.02204,-0.02205 -0.02204,-0.0715 0,-0.09354 0.0235,-0.02349 0.529915,-0.15574 0.561266,-0.187089 0.100632,-0.100631 0.160737,-0.209487 0.374176,-0.280633 0.213125,-0.07104 0.490625,-0.116446 0.654812,-0.280633 0.06106,-0.06106 0.144661,-0.289323 0.187087,-0.374177 0.184065,-0.368126 0.669295,-0.669296 0.935445,-0.935443 0.06972,-0.06972 0.02381,-0.21091 0.09354,-0.280633 0.113307,-0.113308 0.418957,-0.325413 0.561265,-0.467722 0.05422,-0.05422 0.132872,-0.319961 0.18709,-0.374177 0.03118,-0.03118 0.249452,-0.06236 0.280633,-0.09355 0.0493,-0.0493 0.04424,-0.137787 0.09354,-0.187087 0.11716,-0.11716 0.163473,-0.06993 0.280633,-0.187089 0.110427,-0.110427 0.18074,-0.274283 0.280633,-0.374176 0.0441,-0.0441 0.142992,0.0441 0.18709,0 0.06105,-0.06106 0.144661,-0.289325 0.187089,-0.374179 0.194654,-0.389308 -0.0065,0.100001 0.187087,-0.09354 0.07441,-0.07441 0.119878,-0.40051 0.18709,-0.467722 0.193545,-0.193546 -0.0076,0.295764 0.187089,-0.09354 0.247298,-0.494596 0.593564,-0.719407 0.841899,-1.216078 0.02889,-0.05779 0.05887,-0.339502 0.09354,-0.374176 0.124724,-0.124725 0.08976,0.198437 0.187089,-0.09354 0.04964,-0.148926 0.07269,-0.446873 0.187087,-0.561265 0.0493,-0.0493 0.148413,-0.03553 0.187089,-0.09355 0.03459,-0.05189 -0.02789,-0.13131 0,-0.187086 0.01394,-0.02789 0.0715,0.02204 0.09354,0 0.0441,-0.0441 -0.02789,-0.13131 0,-0.18709 0.0626,-0.125195 0.222599,-0.222597 0.280633,-0.280633 0.202869,-0.202866 0.08721,-0.83557 0.280633,-1.028988 0.02204,-0.02204 0.07149,0.02204 0.09355,0 0.05422,-0.05422 0.132868,-0.319958 0.187087,-0.374177 0.02204,-0.02204 0.0715,0.02204 0.09355,0 0.04409,-0.0441 -0.02789,-0.13131 0,-0.187089 0.110514,-0.22103 0.353803,-0.426974 0.46772,-0.65481 0.05573,-0.111455 0.102613,-0.383246 0.187089,-0.467722 0.02204,-0.02204 0.0715,0.02204 0.09354,0 0.0441,-0.0441 -0.02789,-0.13131 0,-0.187089 0.03944,-0.07888 0.147648,-0.108204 0.187089,-0.187087 0.02789,-0.05578 -0.0441,-0.142992 0,-0.18709 0.02204,-0.02204 0.0796,0.02789 0.09354,0 0.02789,-0.05578 -0.01971,-0.127926 0,-0.187089 0.05877,-0.176316 0.293518,-0.306398 0.374179,-0.46772 0.02789,-0.05578 -0.0441,-0.142992 0,-0.18709 0.02204,-0.02204 0.07149,0.02204 0.09354,0 0.06236,-0.06236 -0.06236,-0.311814 0,-0.374176 0.02204,-0.02204 0.0715,0.02204 0.09354,0 0.116909,-0.116909 0.04231,-0.501095 0.09355,-0.654812 0.23102,-0.693066 0.382616,-1.607132 0.748355,-2.338607 0.08885,-0.1777 -0.06348,-0.464365 0,-0.654812 0.09271,-0.278122 0.107532,-0.61722 0.187087,-0.935443 0.07447,-0.297873 -0.134289,-0.760409 0,-1.028988 0.175096,-0.350189 0.24792,-0.837306 0.374179,-1.216075 0.09354,-0.280633 -0.09355,-0.654809 0,-0.935442 0.05648,-0.169437 0.02096,-0.509643 0.09354,-0.654812 0.07439,-0.148784 0.02424,-0.329118 0.09354,-0.467723 0.01394,-0.02789 0.08368,0.02958 0.09355,0 0.04185,-0.125558 -0.05039,-3.281278 -0.09355,-3.367595 -0.08395,-0.167897 -0.146106,-0.449895 -0.187087,-0.65481 -0.05108,-0.255402 0.08239,-0.594741 0,-0.841899 -0.109442,-0.328321 -0.171405,-0.701299 -0.280633,-1.028988 -0.06062,-0.181851 0.129574,-0.805868 0,-0.935442 -0.02204,-0.02204 -0.0715,0.02204 -0.09355,0 -0.03112,-0.03112 0.0063,-0.355301 0,-0.374179 -0.04905,-0.147159 -0.138036,-0.320562 -0.187087,-0.46772 -0.03944,-0.118327 0.05578,-0.26262 0,-0.374179 -0.01394,-0.02789 -0.0715,0.02204 -0.09355,0 -0.01061,-0.01061 -0.08036,-1.831322 -0.187087,-2.15152 -0.101552,-0.304655 0.111252,-0.15167 0,-0.374177 -0.0146,-0.02921 -0.211553,-0.142467 -0.280633,-0.280633 -0.02789,-0.05578 0.02789,-0.13131 0,-0.187089 -0.131048,-0.262091 -0.207751,-0.456817 -0.280636,-0.748353 0.05638,-0.16931 -0.151534,-0.173977 -0.187086,-0.280633 -0.02958,-0.08874 0.04183,-0.196966 0,-0.280633 -0.06482,-0.12964 -0.228616,-0.228616 -0.280633,-0.280633 -0.07986,-0.07986 -0.436462,-0.841663 -0.467723,-0.935445 -0.0263,-0.07889 0.03694,-0.206761 0,-0.280633 -0.194654,-0.389308 0.0065,0.100002 -0.187089,-0.09354 -0.04677,-0.04677 0.04677,-0.23386 0,-0.280633 -0.06297,-0.06298 -0.118214,-0.04934 -0.187087,-0.18709 -0.05655,-0.113096 -0.20337,-0.484002 -0.280633,-0.561266 -0.02204,-0.02204 -0.0715,0.02204 -0.09355,0 -0.0441,-0.04409 0.02789,-0.13131 0,-0.187086 -0.05259,-0.105188 -0.243697,-0.169826 -0.280633,-0.280636 -0.121457,-0.364376 -0.105889,-0.224121 -0.187087,-0.46772 -0.01971,-0.05916 0.0441,-0.142991 0,-0.187089 -0.07441,-0.07441 -0.306967,-0.213421 -0.374179,-0.280633 -0.0441,-0.0441 0.02789,-0.13131 0,-0.18709 -0.07528,-0.150561 -0.323636,-0.3161 -0.374177,-0.46772 -0.01971,-0.05916 0.02789,-0.13131 0,-0.187089 -0.03118,-0.06236 -0.155908,-0.03118 -0.187089,-0.09354 -0.03742,-0.07484 0.03742,-0.205798 0,-0.280633 -0.0371,-0.07421 -0.182052,-0.177016 -0.187087,-0.187089 -0.02789,-0.05578 0.01971,-0.127926 0,-0.18709 -0.03694,-0.110807 -0.228039,-0.175445 -0.280633,-0.280633 -0.03625,-0.0725 -0.05018,-0.215577 -0.09355,-0.280633 -0.04892,-0.07338 -0.147645,-0.108204 -0.187087,-0.187086 -0.02789,-0.05578 0.03459,-0.1352 0,-0.18709 -0.06046,-0.09069 -0.61274,-0.519194 -0.748355,-0.654809 -0.07098,-0.07098 -0.08909,-0.369721 -0.18709,-0.467723 -0.02204,-0.02204 -0.06236,0 -0.09354,0 -0.06236,-0.03118 -0.148413,-0.03553 -0.18709,-0.09354 -0.06053,-0.0908 -0.01714,-0.297791 -0.09354,-0.374179 -0.02204,-0.02204 -0.0715,0.02204 -0.09354,0 -0.02204,-0.02204 0.02204,-0.0715 0,-0.09354 -0.325421,-0.325421 -0.647038,-0.550902 -0.935445,-0.935445 0.0093,-0.185316 -0.137787,-0.04424 -0.187089,-0.09354 -0.06132,-0.06132 -0.140221,-0.233767 -0.187087,-0.280633 -0.04677,-0.04677 -0.140316,-0.04677 -0.187089,-0.09354 -0.02204,-0.02204 0.02204,-0.0715 0,-0.09355 -0.131445,-0.131445 -0.370049,-0.134122 -0.467723,-0.280633 -0.160994,-0.24149 -0.359055,-0.546142 -0.561266,-0.748352 -0.103137,-0.10314 -0.383593,-0.196506 -0.46772,-0.280633 -0.02029,-0.02029 -0.07531,-0.17797 -0.09355,-0.18709 -0.05578,-0.02789 -0.13131,0.02789 -0.187087,0 -0.02789,-0.01394 0,-0.06236 0,-0.09354 -0.03118,-0.03118 -0.0541,-0.07382 -0.09355,-0.09355 -0.09018,-0.04509 -0.297124,-0.04218 -0.374176,-0.09354 -0.143915,-0.09594 -0.230264,-0.278233 -0.374177,-0.374176 -0.08204,-0.0547 -0.210909,-0.02381 -0.280632,-0.09355 -0.0795,-0.0795 -0.119634,-0.190691 -0.18709,-0.280633 -0.106545,-0.14206 -0.259765,-0.166219 -0.374176,-0.280633 -0.02204,-0.02204 0.02204,-0.0715 0,-0.09354 -0.06226,-0.06226 -0.124836,0.06225 -0.18709,0 -0.02204,-0.02204 0.02204,-0.07149 0,-0.09354 -0.04324,-0.04324 -0.224155,0.02824 -0.280633,0 -0.13775,-0.06888 -0.124113,-0.124113 -0.187089,-0.187089 -0.07034,-0.07035 -0.801193,-0.146384 -0.841899,-0.18709 -0.02029,-0.02029 -0.07531,-0.177969 -0.09354,-0.187087 -0.08367,-0.04184 -0.214487,0.06615 -0.280633,0 -0.02204,-0.02204 0.02204,-0.0715 0,-0.09355 -0.0279,-0.0279 -0.981641,-0.04735 -1.028988,0 -0.411218,0.411218 -0.509273,1.600697 -0.18709,2.245064 0.04184,0.08367 -0.02958,0.191889 0,0.280633 0.09808,0.294222 0.586415,0.586414 0.748356,0.748355 0.02204,0.02204 -0.02204,0.0715 0,0.09354 0.09202,0.09203 0.35796,0.03866 0.467722,0.09355 0.213215,0.106608 0.279041,0.27904 0.374177,0.374176 0.02204,0.02204 0.0796,-0.02789 0.09354,0 0.02789,0.05578 -0.02789,0.13131 0,0.187089 0.02175,0.0435 0.234466,0.14092 0.280633,0.187087 0.0905,0.0905 0.09355,0.504069 0.09355,0.935445 0,0.944983 -2.806329,2.13564 -2.806329,0.18709 0,-0.05709 0.03645,-0.33773 0,-0.374179 -0.0975,-0.0975 -1.108927,0.200697 -1.216078,0.09355 -0.193546,-0.193548 0.295764,0.0076 -0.09354,-0.18709 -0.02789,-0.01394 -0.07149,0.02204 -0.09354,0 -0.02077,-0.02077 -0.0122,-0.555164 0,-0.561266 0.04109,-0.02056 0.618707,-0.150987 0.654809,-0.187089 0.06615,-0.06615 0,-0.374176 0,-0.280633 0,0.06236 0,0.249452 0,0.187089 0,-0.249451 0,-0.498903 0,-0.748355 0,-0.06236 0.06236,-0.187089 0,-0.187089 -0.03118,0 -0.03118,0.09355 0,0.09355 0.0164,0 0.558925,-0.189431 0.65481,-0.09355 0.161522,0.161522 0.41648,0.510024 0.561266,0.654812 0.0441,0.04409 0.13131,-0.02789 0.187089,0 0.142277,0.07114 0.787845,0.546697 0.841899,0.654809 0.01394,0.02789 -0.02204,0.0715 0,0.09354 0.02204,0.02204 0.0715,-0.02204 0.09354,0 0.04677,0.04677 -0.04677,0.233863 0,0.280633 0.04677,0.04677 0.140317,0.04677 0.18709,0.09355 0.06615,0.06615 -0.04183,0.196964 0,0.280633 0.0091,0.01823 0.166791,0.07325 0.187089,0.09354 0.07097,0.07097 0.152247,0.970285 0,1.122532 -0.09103,0.09103 -0.639868,0.172145 -0.654812,0.187089 -0.02204,0.02204 0.02204,0.0715 0,0.09354 -0.04324,0.04324 -0.224152,-0.02824 -0.280633,0 -0.08654,0.04327 -0.419232,0.329123 -0.561265,0.187089 -0.120238,-0.12024 -0.115568,-0.418227 -0.187087,-0.561266 -0.01394,-0.02789 -0.0715,0.02204 -0.09355,0 -0.06236,-0.06236 0.06236,-0.311814 0,-0.374176 -0.02204,-0.02204 -0.0715,0.02204 -0.09354,0 -0.06236,-0.06236 0.06236,-0.311817 0,-0.374179 -0.02204,-0.02204 -0.0715,0.02204 -0.09354,0 -0.04677,-0.04677 0.04677,-0.23386 0,-0.280633 -0.02204,-0.02204 -0.0715,0.02204 -0.09355,0 -0.124815,-0.124815 0.124817,-0.06227 0,-0.187087 -0.171498,-0.1715 -0.763945,0.07795 -0.935443,-0.09355 -0.116316,-0.116316 -0.09354,-0.235202 -0.09354,-0.374177 0,-0.03118 0,-0.124727 0,-0.09355 0,0.06236 0,0.249452 0,0.18709 0,-0.04945 -0.05791,-0.690449 0,-0.748356 0.04677,-0.04677 0.23386,0.04677 0.280633,0 0.02204,-0.02204 -0.02204,-0.07149 0,-0.09354 0.02204,-0.02204 0.0715,0.02204 0.09354,0 0.02273,-0.02273 -0.06022,-0.501049 0.18709,-0.748355 0.03296,-0.03296 0.454229,-0.01349 0.46772,0 0.116107,0.116109 0.117755,0.211298 0.187089,0.280632 0.0441,0.0441 0.142992,-0.04409 0.18709,0 0.07795,0.07796 0.109135,0.202682 0.187087,0.280633 0.0573,0.0573 0.244816,0.07964 0.280632,0.18709 0.01971,0.05916 -0.02789,0.13131 0,0.187089 0.02117,0.04236 0.231357,0.137811 0.280633,0.187087 0.06106,0.06106 0.144661,0.289325 0.18709,0.374179 0.05304,0.106085 0.317598,0.224052 0.374176,0.280633 0.02204,0.02204 -0.02789,0.0796 0,0.09354 0.05578,0.02789 0.142992,-0.0441 0.18709,0 0.05496,0.05496 0.03449,0.408667 0.09354,0.467722 0.02204,0.02204 0.0715,-0.02204 0.09355,0 0.02204,0.02204 -0.02204,0.0715 0,0.09354 0.04677,0.04677 0.23386,-0.04677 0.280633,0 0.02204,0.02204 -0.02204,0.07149 0,0.09355 0.0441,0.04409 0.124725,0 0.187087,0 0.193043,0 0.251301,-0.04955 0.280633,-0.09355 0.0964,-0.144595 -0.09253,-1.589236 -0.09354,-1.590255 -0.313733,-0.313732 -1.086493,-0.431681 -1.309622,-0.654809 -0.211679,-0.21168 -0.07236,-0.42536 -0.187086,-0.654809 -0.149678,-0.299355 -0.359731,-0.352507 -0.561266,-0.654812 -0.09428,-0.141425 0,-0.08686 0,-0.46772 0,-0.35692 -0.01929,-1.066115 0.280633,-1.216078 0.170381,-0.08519 0.896331,0.03911 1.028985,-0.09354 0.02204,-0.02204 -0.02204,-0.0715 0,-0.09354 0.04677,-0.04677 0.233863,0.04677 0.280633,0 0.06615,-0.06615 0,-0.374179 0,-0.280633 0,0.4674 -0.05927,-0.123179 -0.187087,-0.187089 -0.144237,-0.07212 -0.605565,-0.369229 -0.654812,-0.467723 -0.07836,-0.156718 -0.362854,-0.08222 -0.467719,-0.187089 -0.02204,-0.02204 0.02204,-0.0715 0,-0.09354 -0.104307,-0.104304 -0.428919,-0.02737 -0.561266,-0.09354 -0.07356,-0.03678 -0.331171,-0.144082 -0.374179,-0.18709 -0.02204,-0.02204 0.02789,-0.0796 0,-0.09354 -0.252207,-0.126106 -0.708496,-0.120388 -1.028986,-0.280633 -0.361119,-0.18056 -0.867529,-0.654812 -1.216078,-0.654812 -0.204197,0 -0.642427,-0.274439 -0.841899,-0.374177 -0.08367,-0.04183 -0.191889,0.02958 -0.280633,0 -0.255119,-0.08504 -0.493236,-0.289136 -0.748355,-0.374176 -0.135493,-0.04516 -0.335206,-0.02729 -0.46772,-0.09355 -0.428117,-0.214056 0.396946,0.03877 -0.280633,-0.187087 -0.07889,-0.0263 -0.206761,0.03694 -0.280633,0 -0.336066,-0.168034 0.334674,-0.06895 -0.374178,-0.187089 -0.123029,-0.02051 -0.26262,0.05578 -0.374178,0 -0.100557,-0.05028 -0.173976,-0.151538 -0.280633,-0.18709 -0.330994,-0.110331 -0.708749,-0.02697 -1.028987,-0.187087 -0.148978,-0.07449 -0.401891,0.05312 -0.561266,0 -0.327783,-0.109262 -0.595003,-0.195524 -0.935444,-0.280633 -0.06992,-0.01749 -0.816618,-0.06827 -0.841899,-0.09355 -0.02205,-0.02204 0.02205,-0.0715 0,-0.09354 -0.100794,-0.100796 -0.419343,-0.04624 -0.561266,-0.09354 -1.083904,-0.361301 -1.739329,-0.683321 -2.525697,-0.09355 z"
       style="fill:none;stroke:#000000;stroke-width:0.264583px;stroke-linecap:butt;stroke-linejoin:miter;stroke-opacity:1" />
  </g>
</svg>
